<svg width="447" height="597" viewBox="0 0 447 597" fill="none" xmlns="http://www.w3.org/2000/svg">
<path d="M446.551 596.626C446.551 596.827 346.578 597 223.297 597C100.016 597 0 596.827 0 596.626C0 596.424 99.9581 596.251 223.297 596.251C346.636 596.251 446.551 596.438 446.551 596.626Z" fill="#263238"/>
<path d="M349.141 420.378C326.898 404.844 321.859 376.006 322.737 350.077C322.881 345.758 322.406 341.18 324.464 337.394C326.523 333.607 331.332 331.001 335.205 332.815C338.415 334.327 339.812 338.07 341.611 341.166C344.013 345.288 347.531 348.648 351.761 350.855C354.511 352.295 357.923 353.158 360.644 351.661C364.387 349.602 364.819 344.463 364.79 340.144C364.79 332.11 364.742 324.086 364.646 316.072C364.388 311.768 364.825 307.451 365.942 303.287C367.281 299.199 370.261 295.412 374.336 294.26C378.41 293.109 383.492 295.484 384.413 299.688C384.572 301.469 384.615 303.258 384.543 305.044C384.658 306.843 385.493 308.816 387.178 309.363C388.862 309.91 390.619 308.657 391.914 307.39C396.349 303.071 399.372 297.442 402.179 291.885C404.987 286.328 407.737 280.612 411.768 275.875C415.799 271.139 421.37 267.381 427.604 267.021C433.838 266.661 440.331 270.491 441.886 276.538C443.441 282.584 439.914 288.761 436.127 293.67C430.414 300.957 423.678 307.382 416.13 312.746C414.656 313.551 413.481 314.807 412.775 316.331C411.84 319.21 414.561 322.09 417.397 322.997C420.607 324.062 424.091 323.731 427.475 324.134C430.858 324.537 434.457 326.006 435.739 329.173C437.495 333.578 433.809 338.186 430.196 341.209C422.94 347.256 414.7 352.013 405.836 355.275C402.669 356.426 399.343 357.449 396.78 359.666C394.218 361.883 392.692 365.756 394.232 368.794C395.773 371.831 399.732 372.796 403.058 372.177C406.383 371.558 409.335 369.773 412.502 368.578C418.419 366.346 426.049 366.749 429.778 371.86C430.933 373.621 431.665 375.625 431.914 377.716C432.164 379.807 431.926 381.927 431.218 383.91C429.777 387.857 427.559 391.475 424.696 394.55C415.267 405.816 403.015 414.376 389.193 419.356C375.473 424.107 362.76 425.402 349.126 420.407" fill="#4CAF4F"/>
<path d="M435.552 270.577C435.552 270.577 435.422 270.721 435.134 270.98L433.853 272.118C432.73 273.126 431.074 274.594 428.987 276.538C423.068 282.033 417.572 287.967 412.545 294.289C409.335 298.277 406.009 302.798 402.467 307.707C398.926 312.616 395.269 317.915 391.641 323.544C387.773 329.48 384.231 335.622 381.03 341.943C379.36 345.24 377.892 348.681 376.38 352.194L371.917 362.919C366.034 376.43 360.91 390.258 356.57 404.34C353.074 415.861 350.664 427.685 349.371 439.655C348.534 447.734 348.399 455.87 348.968 463.972C349.199 466.851 349.415 469.054 349.616 470.551C349.702 471.271 349.76 471.847 349.818 472.264V472.855C349.756 472.667 349.712 472.475 349.688 472.279C349.616 471.861 349.53 471.3 349.415 470.58C349.155 469.14 348.882 466.866 348.623 463.986C347.928 455.869 347.976 447.706 348.767 439.598C349.979 427.576 352.336 415.697 355.807 404.124C360.111 390.002 365.221 376.139 371.111 362.603L375.689 351.92C377.201 348.422 378.684 344.952 380.368 341.641C383.591 335.301 387.162 329.144 391.065 323.198C394.751 317.439 398.465 312.228 401.963 307.362C405.462 302.495 408.845 297.946 412.041 293.972C417.119 287.667 422.689 281.775 428.699 276.351C430.829 274.436 432.528 272.996 433.68 272.031L435.019 270.952C435.183 270.809 435.362 270.683 435.552 270.577Z" fill="#263238"/>
<path d="M380.555 341.612C380.352 341.019 380.212 340.406 380.138 339.784C379.907 338.589 379.648 336.904 379.346 334.716C378.727 330.397 378.093 324.48 377.417 317.929C376.74 311.378 375.977 305.447 375.343 301.171C375.012 299.04 374.724 297.327 374.523 296.132C374.365 295.52 374.283 294.892 374.278 294.26C374.526 294.837 374.705 295.441 374.811 296.06C375.127 297.241 375.487 298.939 375.89 301.085C376.711 305.404 377.517 311.278 378.194 317.843C378.871 324.408 379.446 330.166 379.893 334.644C380.109 336.659 380.296 338.373 380.44 339.74C380.552 340.358 380.59 340.986 380.555 341.612Z" fill="#263238"/>
<path d="M435.955 331.275C435.254 331.428 434.541 331.514 433.824 331.534C432.384 331.664 430.34 331.837 427.806 332.124C422.738 332.672 415.77 333.679 408.125 335.119C400.48 336.559 393.613 338.186 388.675 339.438C386.213 340.072 384.226 340.647 382.916 341.036C382.217 341.285 381.493 341.458 380.757 341.554C381.422 341.22 382.116 340.945 382.83 340.734C384.183 340.259 386.141 339.596 388.588 338.891C393.498 337.451 400.365 335.738 408.039 334.27C414.539 333.027 421.098 332.114 427.691 331.534C430.239 331.318 432.298 331.232 433.737 331.203C434.477 331.153 435.22 331.177 435.955 331.275Z" fill="#263238"/>
<path d="M356.512 403.116C356.359 402.907 356.233 402.68 356.138 402.439L355.188 400.438C354.367 398.696 353.258 396.119 351.934 392.966C349.256 386.631 345.844 377.763 342.216 367.915C338.588 358.068 335.248 349.199 332.714 342.792C331.476 339.683 330.454 337.134 329.691 335.234L328.884 333.175C328.773 332.938 328.695 332.686 328.654 332.427C328.808 332.635 328.933 332.862 329.028 333.103L329.979 335.104C330.785 336.846 331.908 339.424 333.232 342.576C335.91 348.911 339.322 357.78 342.95 367.627C346.578 377.475 349.918 386.343 352.452 392.75C353.69 395.86 354.713 398.408 355.461 400.308C355.792 401.129 356.066 401.748 356.282 402.367C356.394 402.605 356.471 402.857 356.512 403.116Z" fill="#263238"/>
<path d="M430.052 379.404C429.821 379.537 429.574 379.638 429.318 379.707L427.187 380.426L419.312 382.975C412.66 385.134 403.475 388.215 393.397 391.613C383.319 395.011 374.091 398.034 367.396 400.049C364.056 401.072 361.335 401.849 359.449 402.367L357.275 402.929C357.022 403.009 356.762 403.062 356.498 403.087C356.728 402.955 356.975 402.853 357.232 402.785L359.363 402.065L367.238 399.517C373.889 397.357 383.075 394.276 393.152 390.879C403.23 387.481 412.444 384.458 419.139 382.442C422.493 381.42 425.2 380.642 427.1 380.124L429.274 379.563C429.527 379.482 429.788 379.429 430.052 379.404Z" fill="#263238"/>
<path d="M400.049 30.1768L392.634 32.8258L389.452 23.1367C383.607 5.27005 364.978 -4.21755 347.86 1.81478C330.742 7.84711 321.628 27.4414 327.474 45.308L330.655 54.9972L323.212 57.6606C320.374 58.7615 318.069 60.9138 316.777 63.6701C315.484 66.4264 315.304 69.5748 316.273 72.4607L336.904 135.505C337.332 136.934 338.043 138.262 338.994 139.41C339.946 140.559 341.119 141.504 342.443 142.19C343.767 142.876 345.216 143.29 346.703 143.405C348.19 143.52 349.685 143.336 351.099 142.862L427.936 115.378C430.811 114.279 433.149 112.108 434.456 109.321C435.764 106.534 435.94 103.348 434.947 100.434L414.302 37.3897C413.862 35.965 413.14 34.6435 412.179 33.5039C411.218 32.3644 410.037 31.4301 408.707 30.7569C407.376 30.0838 405.924 29.6855 404.437 29.5858C402.949 29.4861 401.457 29.6871 400.049 30.1768ZM341.482 40.2547C339.906 35.6091 340.189 30.5338 342.271 26.0922C344.354 21.6505 348.075 18.1872 352.654 16.4277C354.915 15.6541 357.309 15.3438 359.693 15.5155C362.076 15.6872 364.401 16.3373 366.528 17.427C368.655 18.5166 370.541 20.0236 372.073 21.858C373.604 23.6923 374.751 25.8165 375.444 28.1036L378.612 37.7928L344.649 49.9439L341.482 40.2547ZM384.673 96.2013L389.942 112.297C390.039 112.62 390.008 112.967 389.855 113.268C389.702 113.568 389.439 113.798 389.121 113.91L381.736 116.544C381.442 116.626 381.128 116.59 380.859 116.445C380.591 116.3 380.389 116.057 380.296 115.767L374.984 99.743C372.054 99.5833 369.244 98.5327 366.928 96.7316C364.612 94.9305 362.902 92.465 362.026 89.6651C360.774 85.9635 361.003 81.9211 362.664 78.3841C364.325 74.8472 367.29 72.09 370.938 70.6899C372.739 70.0745 374.646 69.828 376.544 69.9651C378.443 70.1022 380.295 70.6201 381.989 71.488C383.683 72.3559 385.185 73.556 386.405 75.0167C387.626 76.4774 388.54 78.1689 389.093 79.9903C390.019 82.8345 390.095 85.8871 389.313 88.7742C388.53 91.6612 386.923 94.2573 384.687 96.2445L384.673 96.2013Z" fill="#4CAF4F"/>
<path d="M392.303 32.6531C392.303 32.8547 378.554 38.0232 361.451 44.1707C344.347 50.3182 330.396 55.2563 330.324 55.1124C330.252 54.9684 344.073 49.7567 361.191 43.5948C378.309 37.4329 392.231 32.4659 392.303 32.6531Z" fill="#263238"/>
<path d="M408.629 35.3022C408.693 35.4271 408.746 35.5572 408.788 35.6909C408.903 35.9789 409.032 36.3532 409.205 36.8139C409.58 37.8649 410.098 39.319 410.746 41.133L416.274 57.2288C418.578 64.0529 421.327 72.144 424.38 81.1277C425.819 85.634 427.518 90.3274 429.102 95.2656C429.949 97.8103 430.316 100.491 430.182 103.17C430.06 104.563 429.663 105.918 429.015 107.157C428.324 108.393 427.4 109.483 426.294 110.368C424.07 111.992 421.601 113.25 418.981 114.097L411.566 116.76L397.529 121.785L373.76 130.25L357.707 135.894L353.388 137.334L352.236 137.708C352.113 137.763 351.982 137.797 351.848 137.809C351.848 137.809 351.963 137.809 352.208 137.636L353.331 137.19L357.65 135.563L373.616 129.689L397.342 121.051L411.35 115.983L418.765 113.305C421.311 112.493 423.708 111.272 425.863 109.691C426.891 108.87 427.751 107.858 428.396 106.711C429.006 105.565 429.374 104.305 429.476 103.011C429.609 100.43 429.257 97.8469 428.44 95.3951C426.885 90.5002 425.243 85.7636 423.761 81.2573C420.766 72.2592 418.002 64.1393 415.813 57.3152C413.625 50.491 411.782 45.0058 410.515 41.1474C409.911 39.2614 409.45 37.7929 409.076 36.7275L408.73 35.5757C408.687 35.4885 408.653 35.3968 408.629 35.3022Z" fill="#263238"/>
<path d="M368.088 15.4489C368.088 15.4489 367.324 15.0745 365.914 14.4987C363.902 13.7259 361.776 13.2976 359.622 13.2317C356.43 13.1223 353.254 13.7222 350.322 14.9881C346.756 16.5646 343.707 19.1144 341.525 22.345C339.328 25.5664 338.15 29.3732 338.142 33.2723C338.172 36.468 338.657 39.6432 339.582 42.7023C340.33 45.3226 341.108 47.4101 341.626 48.8642C341.932 49.6028 342.182 50.3631 342.375 51.1389C341.966 50.4484 341.623 49.7205 341.352 48.965C340.762 47.5253 339.913 45.4809 339.078 42.8463C338.053 39.7551 337.495 36.5282 337.422 33.2723C337.384 29.2259 338.59 25.2655 340.877 21.9275C343.136 18.5789 346.309 15.9502 350.019 14.3547C353.043 13.0817 356.318 12.5202 359.593 12.7134C361.793 12.8256 363.955 13.3378 365.971 14.2251C366.51 14.4738 367.03 14.7626 367.526 15.0889C367.731 15.1789 367.92 15.3003 368.088 15.4489Z" fill="#263238"/>
<path d="M368.75 71.7842C368.98 71.6449 369.22 71.5246 369.47 71.4243C370.19 71.0991 370.937 70.8342 371.701 70.6324C372.915 70.2743 374.166 70.0616 375.43 69.9989C377.149 69.9066 378.868 70.1662 380.483 70.762C384.169 72.0577 387.552 75.8153 389.222 80.8399C390.023 83.5363 390.023 86.4073 389.222 89.1037C388.334 92.0303 386.742 94.6946 384.586 96.8637L384.673 96.475C386.588 101.73 388.675 107.431 390.835 113.377L390.964 113.737L390.604 113.867L387.307 114.961L380.109 117.365L379.749 117.48L379.634 117.12C377.661 111.16 375.502 105.603 373.875 100.146L374.192 100.391C371.377 100.157 368.694 99.1007 366.475 97.3532C364.468 95.8072 362.822 93.8419 361.652 91.5944C360.597 89.6013 360.071 87.3704 360.126 85.1158C360.193 82.8114 360.768 80.5504 361.811 78.4945C362.854 76.4386 364.338 74.6388 366.158 73.2239C366.907 72.6157 367.748 72.1298 368.649 71.7842C367.836 72.2667 367.048 72.7905 366.288 73.3534C364.289 75.0449 362.757 77.221 361.839 79.6737C361.052 81.5232 360.683 83.5242 360.76 85.5329C360.837 87.5417 361.358 89.5084 362.286 91.2921C363.436 93.4542 365.042 95.3405 366.993 96.8205C369.11 98.4816 371.668 99.483 374.35 99.6999H374.595L374.667 99.9159C376.251 105.272 378.425 110.872 380.426 116.861L379.951 116.631L387.149 114.226L390.432 113.118L390.201 113.607C388.056 107.661 385.983 101.946 384.083 96.6909V96.475L384.255 96.3022C386.348 94.2231 387.909 91.6698 388.805 88.859C389.568 86.2797 389.568 83.5344 388.805 80.955C387.235 76.1177 383.996 72.4464 380.483 71.1507C378.928 70.5511 377.268 70.272 375.603 70.3301C374.359 70.3586 373.123 70.5276 371.917 70.834C369.772 71.3667 368.764 71.8562 368.75 71.7842Z" fill="#263238"/>
<path d="M324.248 487.482L180.437 486.82C172.132 486.774 164.185 483.434 158.341 477.533C152.496 471.632 149.233 463.653 149.268 455.348L150.794 94.8337C150.811 90.7191 151.638 86.6482 153.23 82.8537C154.821 79.0592 157.144 75.6155 160.067 72.7194C162.99 69.8233 166.455 67.5317 170.264 65.9755C174.073 64.4193 178.151 63.629 182.266 63.6498L326.062 64.3121C334.367 64.354 342.316 67.6904 348.163 73.5886C354.01 79.4868 357.277 87.4644 357.246 95.7695L355.72 456.27C355.703 460.385 354.876 464.458 353.285 468.254C351.694 472.05 349.371 475.496 346.449 478.394C343.526 481.292 340.062 483.587 336.253 485.146C332.443 486.705 328.364 487.499 324.248 487.482Z" fill="#455A64"/>
<path d="M325.847 76.7078H297.974C297.065 76.7247 296.167 76.9206 295.334 77.2842C294.5 77.6479 293.746 78.1723 293.115 78.8274C292.484 79.4825 291.988 80.2555 291.656 81.1022C291.324 81.949 291.161 82.8529 291.179 83.7624V88.8157C291.196 89.7244 291.034 90.6276 290.701 91.4736C290.369 92.3195 289.873 93.0916 289.241 93.7455C288.61 94.3995 287.856 94.9225 287.023 95.2846C286.189 95.6467 285.292 95.8408 284.383 95.8558L230.049 95.6111C228.211 95.562 226.468 94.7855 225.202 93.452C223.936 92.1186 223.25 90.3371 223.297 88.499V83.4456C223.343 81.6099 222.66 79.8306 221.397 78.4975C220.135 77.1644 218.395 76.3863 216.559 76.3335H206.755L182.352 76.2183C176.548 76.1838 170.966 78.4506 166.83 82.5224C162.693 86.5942 160.338 92.1393 160.281 97.9434L158.842 449.834C158.828 452.714 159.382 455.567 160.472 458.233C161.562 460.898 163.166 463.323 165.193 465.368C167.219 467.414 169.629 469.04 172.284 470.154C174.939 471.268 177.788 471.848 180.668 471.861L324.176 472.524C327.058 472.537 329.914 471.983 332.581 470.892C335.248 469.802 337.674 468.197 339.721 466.169C341.767 464.141 343.395 461.729 344.51 459.072C345.624 456.415 346.205 453.565 346.218 450.684L347.658 98.7928C347.692 92.9723 345.414 87.3763 341.324 83.235C337.234 79.0937 331.667 76.7459 325.847 76.7078Z" fill="white"/>
<path d="M306.54 425.575L199.83 425.114C198.721 425.114 197.829 423.905 197.843 422.437L197.958 394.521C197.958 393.081 198.865 391.843 199.974 391.843L306.684 392.332C307.299 392.439 307.848 392.778 308.218 393.28C308.588 393.781 308.751 394.406 308.671 395.025L308.57 422.912C308.57 424.395 307.649 425.589 306.54 425.575Z" fill="#4CAF4F"/>
<path d="M232.274 412.213C231.685 412.213 231.119 412.118 230.575 411.93C230.039 411.733 229.623 411.484 229.329 411.182L229.657 410.536C229.937 410.808 230.311 411.039 230.779 411.227C231.254 411.409 231.753 411.499 232.274 411.499C232.772 411.499 233.176 411.439 233.486 411.318C233.803 411.19 234.033 411.02 234.177 410.808C234.328 410.597 234.403 410.363 234.403 410.106C234.403 409.796 234.313 409.547 234.131 409.358C233.958 409.17 233.727 409.022 233.441 408.917C233.154 408.803 232.836 408.705 232.489 408.622C232.142 408.539 231.794 408.452 231.447 408.362C231.1 408.263 230.779 408.135 230.484 407.976C230.197 407.818 229.963 407.61 229.782 407.354C229.608 407.089 229.521 406.746 229.521 406.323C229.521 405.93 229.623 405.571 229.827 405.247C230.039 404.914 230.36 404.65 230.79 404.454C231.22 404.25 231.772 404.148 232.444 404.148C232.889 404.148 233.331 404.212 233.769 404.341C234.207 404.461 234.585 404.631 234.902 404.85L234.619 405.519C234.279 405.292 233.916 405.126 233.531 405.02C233.154 404.914 232.787 404.862 232.432 404.862C231.957 404.862 231.564 404.926 231.254 405.054C230.945 405.183 230.715 405.356 230.564 405.575C230.42 405.787 230.348 406.028 230.348 406.3C230.348 406.61 230.435 406.859 230.609 407.048C230.79 407.236 231.024 407.384 231.311 407.489C231.606 407.595 231.927 407.69 232.274 407.773C232.621 407.856 232.965 407.946 233.305 408.044C233.652 408.143 233.969 408.271 234.256 408.43C234.551 408.581 234.785 408.784 234.958 409.041C235.14 409.298 235.23 409.634 235.23 410.049C235.23 410.434 235.124 410.793 234.913 411.125C234.702 411.45 234.377 411.714 233.939 411.918C233.509 412.115 232.953 412.213 232.274 412.213ZM237.056 412.145V404.216H237.895V412.145H237.056ZM240.474 412.145V404.216H241.165L246.636 411.103H246.274V404.216H247.101V412.145H246.41L240.95 405.258H241.313V412.145H240.474ZM253.166 412.213C252.562 412.213 252.003 412.115 251.49 411.918C250.984 411.714 250.542 411.431 250.164 411.069C249.794 410.706 249.504 410.28 249.292 409.789C249.088 409.298 248.986 408.762 248.986 408.18C248.986 407.599 249.088 407.063 249.292 406.572C249.504 406.081 249.798 405.654 250.176 405.292C250.553 404.93 250.995 404.65 251.501 404.454C252.014 404.25 252.573 404.148 253.177 404.148C253.781 404.148 254.333 404.242 254.831 404.431C255.337 404.62 255.767 404.907 256.122 405.292L255.601 405.824C255.269 405.492 254.903 405.254 254.502 405.111C254.102 404.967 253.672 404.896 253.211 404.896C252.72 404.896 252.267 404.979 251.852 405.145C251.444 405.303 251.086 405.534 250.776 405.836C250.474 406.13 250.236 406.478 250.062 406.878C249.896 407.27 249.813 407.705 249.813 408.18C249.813 408.649 249.896 409.083 250.062 409.483C250.236 409.883 250.474 410.234 250.776 410.536C251.086 410.831 251.444 411.061 251.852 411.227C252.267 411.386 252.717 411.465 253.2 411.465C253.653 411.465 254.08 411.397 254.48 411.261C254.888 411.125 255.261 410.895 255.601 410.57L256.077 411.205C255.699 411.537 255.258 411.79 254.752 411.964C254.246 412.13 253.717 412.213 253.166 412.213ZM255.273 411.103V408.18H256.077V411.205L255.273 411.103ZM264.608 412.213C263.596 412.213 262.799 411.922 262.218 411.341C261.636 410.759 261.346 409.898 261.346 408.758V404.216H262.184V408.724C262.184 409.66 262.395 410.351 262.818 410.797C263.241 411.242 263.838 411.465 264.608 411.465C265.386 411.465 265.986 411.242 266.409 410.797C266.832 410.351 267.043 409.66 267.043 408.724V404.216H267.859V408.758C267.859 409.898 267.568 410.759 266.986 411.341C266.412 411.922 265.62 412.213 264.608 412.213ZM270.384 412.145V404.216H273.352C274.024 404.216 274.602 404.325 275.085 404.544C275.568 404.756 275.938 405.065 276.195 405.473C276.459 405.873 276.591 406.361 276.591 406.934C276.591 407.493 276.459 407.976 276.195 408.384C275.938 408.784 275.568 409.094 275.085 409.313C274.602 409.532 274.024 409.642 273.352 409.642H270.849L271.223 409.245V412.145H270.384ZM271.223 409.313L270.849 408.905H273.329C274.122 408.905 274.723 408.735 275.13 408.396C275.546 408.048 275.753 407.561 275.753 406.934C275.753 406.3 275.546 405.809 275.13 405.462C274.723 405.115 274.122 404.941 273.329 404.941H270.849L271.223 404.544V409.313Z" fill="#E8E8E3"/>
<path d="M221.114 180.15L184.086 179.982L184.055 186.778L221.084 186.946L221.114 180.15Z" fill="#4CAF4F"/>
<path opacity="0.1" d="M221.114 180.15L184.086 179.982L184.055 186.778L221.084 186.946L221.114 180.15Z" fill="black"/>
<path d="M329.662 221.873C329.953 221.843 330.238 221.775 330.511 221.671C330.91 221.515 331.256 221.25 331.511 220.906C331.765 220.563 331.918 220.154 331.951 219.727C331.951 217.438 331.951 214.098 331.951 209.808C331.951 207.663 331.951 205.259 331.951 202.609C331.951 201.962 331.951 201.285 331.951 200.608C332.045 199.952 331.902 199.283 331.548 198.722C331.35 198.453 331.092 198.234 330.794 198.082C330.497 197.929 330.169 197.848 329.835 197.844H327.589H306.785L186.369 197.398C186.061 197.393 185.756 197.462 185.48 197.6C185.204 197.738 184.966 197.94 184.785 198.19C184.437 198.753 184.305 199.422 184.411 200.076C184.411 201.515 184.411 202.955 184.411 204.395C184.411 207.274 184.411 210.154 184.411 213.033C184.411 214.473 184.411 215.912 184.411 217.352C184.351 218.023 184.351 218.697 184.411 219.368C184.486 219.655 184.627 219.921 184.822 220.146C185.016 220.371 185.26 220.548 185.534 220.663C185.817 220.776 186.121 220.83 186.426 220.822H193.754L225.73 220.994L279.863 221.326L316.359 221.613L326.278 221.729H328.856C329.446 221.729 329.734 221.729 329.734 221.729H328.856H326.278H316.359H279.863L225.73 221.556L193.754 221.426H186.426C186.023 221.443 185.621 221.374 185.246 221.225C184.867 221.063 184.53 220.817 184.26 220.505C183.991 220.193 183.796 219.824 183.691 219.425C183.608 219.047 183.579 218.659 183.605 218.273V217.208C183.605 215.768 183.605 214.329 183.605 212.889C183.605 210.01 183.605 207.13 183.605 204.251C183.605 202.811 183.605 201.371 183.605 199.932C183.577 199.548 183.577 199.163 183.605 198.78C183.658 198.356 183.822 197.954 184.08 197.614C184.328 197.266 184.657 196.984 185.038 196.791C185.419 196.598 185.841 196.5 186.268 196.505L306.684 197.167L327.488 197.311H329.734C330.129 197.312 330.519 197.407 330.87 197.59C331.221 197.773 331.523 198.038 331.749 198.362C332.155 198.988 332.319 199.741 332.21 200.479C332.21 201.155 332.21 201.832 332.21 202.48C332.21 205.1 332.21 207.504 332.21 209.678C332.21 213.997 332.109 217.309 332.08 219.612C332.045 220.055 331.884 220.479 331.617 220.833C331.349 221.188 330.985 221.459 330.569 221.613C330.296 221.782 329.982 221.872 329.662 221.873Z" fill="#E0E0E0"/>
<path d="M262.932 204.625H195.209V210.974H262.932V204.625Z" fill="#4CAF4F"/>
<path opacity="0.2" d="M262.932 204.625H195.209V210.974H262.932V204.625Z" fill="white"/>
<path d="M220.862 242.142L183.833 241.974L183.803 248.769L220.831 248.937L220.862 242.142Z" fill="#4CAF4F"/>
<path opacity="0.1" d="M220.862 242.142L183.833 241.974L183.803 248.769L220.831 248.937L220.862 242.142Z" fill="black"/>
<path d="M328.726 283.866C329.017 283.83 329.305 283.777 329.59 283.707C329.992 283.579 330.362 283.367 330.675 283.084C330.988 282.8 331.236 282.453 331.404 282.066C331.631 281.485 331.719 280.859 331.663 280.238C331.663 279.547 331.663 278.798 331.663 277.963C331.663 276.293 331.663 274.393 331.663 272.204V263.062C331.732 262.4 331.585 261.734 331.246 261.162C330.89 260.575 330.332 260.139 329.676 259.938C328.959 259.81 328.229 259.771 327.502 259.823H306.785L186.786 259.377C186.141 259.378 185.518 259.614 185.033 260.04C184.549 260.467 184.235 261.054 184.152 261.694C184.152 263.062 184.152 264.574 184.152 266.014C184.152 268.893 184.152 271.772 184.152 274.652C184.152 276.091 184.152 277.531 184.152 278.971C184.098 279.644 184.127 280.321 184.238 280.986C184.418 281.57 184.788 282.077 185.289 282.426C185.821 282.764 186.446 282.925 187.074 282.887H189.075H193.236L225.097 283.045L279.042 283.376L315.409 283.664L325.3 283.779H315.409H279.042L225.068 283.722L193.207 283.607H186.945C186.166 283.653 185.393 283.446 184.742 283.016C184.087 282.563 183.609 281.896 183.389 281.13C183.26 280.399 183.221 279.654 183.273 278.913C183.273 277.474 183.273 276.034 183.273 274.594C183.273 271.715 183.273 268.835 183.273 265.956C183.273 264.516 183.273 263.077 183.273 261.637C183.379 260.814 183.78 260.057 184.403 259.508C185.026 258.96 185.827 258.657 186.657 258.657L306.655 259.319L327.373 259.477C328.144 259.43 328.919 259.483 329.676 259.636C330.424 259.88 331.055 260.393 331.447 261.075C331.82 261.709 331.981 262.446 331.908 263.177C331.908 263.854 331.908 264.516 331.908 265.179C331.908 267.784 331.908 270.174 331.908 272.377C331.908 274.58 331.908 276.437 331.908 278.136C331.908 278.956 331.908 279.719 331.908 280.425C331.96 281.069 331.856 281.716 331.605 282.311C331.419 282.708 331.148 283.06 330.813 283.344C330.477 283.627 330.085 283.834 329.662 283.952C329.347 283.978 329.031 283.949 328.726 283.866Z" fill="#E0E0E0"/>
<path d="M220.583 306.826L183.554 306.658L183.524 313.453L220.552 313.621L220.583 306.826Z" fill="#4CAF4F"/>
<path opacity="0.1" d="M220.583 306.826L183.554 306.658L183.524 313.453L220.552 313.621L220.583 306.826Z" fill="black"/>
<path d="M328.438 348.523C328.729 348.488 329.017 348.435 329.302 348.364C329.702 348.237 330.071 348.026 330.384 347.746C330.696 347.465 330.946 347.122 331.116 346.737C331.341 346.156 331.43 345.53 331.375 344.909C331.375 344.204 331.375 343.469 331.375 342.62C331.375 340.964 331.375 339.05 331.375 336.861V327.719C331.444 327.057 331.297 326.391 330.957 325.819C330.594 325.243 330.038 324.814 329.388 324.609C328.672 324.476 327.941 324.433 327.214 324.48H306.497L186.498 324.033C185.853 324.035 185.23 324.271 184.745 324.697C184.261 325.124 183.947 325.711 183.864 326.351C183.864 327.791 183.864 329.231 183.864 330.67C183.864 333.55 183.864 336.429 183.864 339.309C183.864 340.748 183.864 342.188 183.864 343.628C183.81 344.296 183.839 344.968 183.95 345.629C184.122 346.216 184.494 346.725 185.001 347.069C185.529 347.414 186.157 347.576 186.786 347.529H193.049L224.909 347.702L278.855 348.033L315.221 348.321L325.112 348.436H315.221H278.855L224.909 348.278L193.049 348.148H186.786C186.007 348.201 185.232 347.993 184.583 347.558C183.928 347.104 183.45 346.438 183.23 345.672C183.101 344.941 183.062 344.196 183.115 343.455C183.115 342.015 183.115 340.576 183.115 339.136C183.115 336.256 183.115 333.377 183.115 330.498C183.115 329.058 183.115 327.618 183.115 326.107C183.217 325.285 183.615 324.528 184.236 323.979C184.856 323.43 185.656 323.127 186.484 323.126L306.483 323.789L327.2 323.947C327.971 323.9 328.746 323.953 329.503 324.105C330.251 324.35 330.882 324.863 331.274 325.545C331.647 326.179 331.808 326.915 331.735 327.647C331.735 328.324 331.735 329 331.735 329.648C331.735 332.254 331.735 334.644 331.735 336.847C331.735 339.049 331.735 340.907 331.735 342.606C331.735 343.426 331.735 344.189 331.735 344.895C331.79 345.539 331.686 346.186 331.432 346.781C331.246 347.178 330.975 347.53 330.64 347.813C330.304 348.097 329.912 348.304 329.489 348.422C329.151 348.537 328.791 348.572 328.438 348.523Z" fill="#E0E0E0"/>
<path d="M261.486 268.413L193.764 268.106L193.735 274.455L261.457 274.762L261.486 268.413Z" fill="#4CAF4F"/>
<path opacity="0.2" d="M261.486 268.413L193.764 268.106L193.735 274.455L261.457 274.762L261.486 268.413Z" fill="white"/>
<path d="M199.887 336.775C199.845 337.354 199.633 337.908 199.279 338.368C198.925 338.828 198.443 339.173 197.894 339.362C197.345 339.551 196.752 339.575 196.19 339.43C195.628 339.285 195.12 338.978 194.731 338.548C194.341 338.117 194.086 337.582 193.998 337.008C193.91 336.434 193.992 335.847 194.235 335.319C194.477 334.791 194.869 334.347 195.362 334.04C195.855 333.733 196.428 333.578 197.008 333.593C197.81 333.638 198.562 333.997 199.101 334.592C199.64 335.188 199.923 335.972 199.887 336.775Z" fill="#4CAF4F"/>
<path d="M209.058 336.818C209.086 337.224 209.031 337.631 208.895 338.015C208.759 338.398 208.546 338.75 208.268 339.047C207.991 339.345 207.655 339.582 207.282 339.744C206.909 339.906 206.506 339.99 206.1 339.99C205.693 339.99 205.29 339.906 204.917 339.744C204.544 339.582 204.208 339.345 203.931 339.047C203.653 338.75 203.44 338.398 203.304 338.015C203.168 337.631 203.113 337.224 203.141 336.818C203.113 336.412 203.168 336.005 203.304 335.621C203.44 335.238 203.653 334.886 203.931 334.589C204.208 334.291 204.544 334.054 204.917 333.892C205.29 333.729 205.693 333.646 206.1 333.646C206.506 333.646 206.909 333.729 207.282 333.892C207.655 334.054 207.991 334.291 208.268 334.589C208.546 334.886 208.759 335.238 208.895 335.621C209.031 336.005 209.086 336.412 209.058 336.818Z" fill="#4CAF4F"/>
<path d="M218.244 336.861C218.201 337.44 217.99 337.994 217.635 338.454C217.281 338.914 216.799 339.26 216.25 339.449C215.701 339.638 215.109 339.661 214.546 339.516C213.984 339.371 213.477 339.065 213.087 338.634C212.697 338.204 212.443 337.668 212.354 337.094C212.266 336.52 212.349 335.933 212.591 335.405C212.834 334.878 213.226 334.433 213.719 334.126C214.212 333.819 214.784 333.664 215.364 333.679C216.165 333.728 216.915 334.088 217.453 334.683C217.992 335.278 218.275 336.06 218.244 336.861Z" fill="#4CAF4F"/>
<path d="M227.414 336.904C227.372 337.483 227.16 338.037 226.806 338.497C226.452 338.957 225.97 339.303 225.421 339.492C224.872 339.681 224.279 339.704 223.717 339.559C223.155 339.414 222.647 339.108 222.258 338.677C221.868 338.247 221.613 337.711 221.525 337.137C221.437 336.563 221.519 335.976 221.762 335.448C222.004 334.921 222.396 334.476 222.889 334.169C223.382 333.862 223.955 333.707 224.535 333.722C225.336 333.771 226.086 334.131 226.624 334.726C227.162 335.32 227.446 336.103 227.414 336.904Z" fill="#4CAF4F"/>
<path d="M236.585 336.933C236.546 337.513 236.336 338.068 235.984 338.53C235.631 338.992 235.15 339.341 234.601 339.532C234.052 339.723 233.459 339.748 232.895 339.605C232.332 339.461 231.823 339.156 231.432 338.725C231.041 338.295 230.785 337.76 230.696 337.185C230.607 336.611 230.688 336.023 230.931 335.494C231.173 334.966 231.565 334.52 232.059 334.213C232.552 333.906 233.125 333.75 233.706 333.766C234.504 333.814 235.252 334.172 235.79 334.764C236.328 335.355 236.613 336.134 236.585 336.933Z" fill="#4CAF4F"/>
<path d="M245.771 336.976C245.731 337.553 245.524 338.106 245.175 338.567C244.825 339.028 244.349 339.376 243.804 339.57C243.259 339.763 242.669 339.793 242.107 339.656C241.545 339.518 241.036 339.22 240.642 338.797C240.248 338.374 239.986 337.844 239.888 337.274C239.791 336.704 239.862 336.118 240.094 335.588C240.325 335.058 240.706 334.607 241.19 334.291C241.675 333.975 242.241 333.808 242.819 333.809C243.63 333.839 244.396 334.189 244.949 334.783C245.502 335.377 245.798 336.165 245.771 336.976Z" fill="#4CAF4F"/>
<path d="M254.942 337.019C254.97 337.425 254.914 337.833 254.779 338.216C254.643 338.6 254.429 338.951 254.152 339.249C253.874 339.546 253.539 339.784 253.165 339.946C252.792 340.108 252.39 340.192 251.983 340.192C251.576 340.192 251.174 340.108 250.8 339.946C250.427 339.784 250.092 339.546 249.814 339.249C249.537 338.951 249.323 338.6 249.187 338.216C249.052 337.833 248.996 337.425 249.024 337.019C248.996 336.614 249.052 336.206 249.187 335.823C249.323 335.439 249.537 335.088 249.814 334.79C250.092 334.493 250.427 334.255 250.8 334.093C251.174 333.931 251.576 333.847 251.983 333.847C252.39 333.847 252.792 333.931 253.165 334.093C253.539 334.255 253.874 334.493 254.152 334.79C254.429 335.088 254.643 335.439 254.779 335.823C254.914 336.206 254.97 336.614 254.942 337.019Z" fill="#4CAF4F"/>
<path d="M264.112 337.063C264.073 337.64 263.866 338.192 263.516 338.653C263.167 339.114 262.69 339.463 262.145 339.656C261.6 339.849 261.011 339.879 260.449 339.742C259.887 339.605 259.378 339.306 258.984 338.883C258.589 338.46 258.327 337.931 258.23 337.361C258.133 336.791 258.204 336.204 258.435 335.674C258.667 335.144 259.048 334.694 259.532 334.378C260.017 334.061 260.583 333.894 261.161 333.895C261.972 333.925 262.738 334.275 263.291 334.869C263.844 335.463 264.14 336.252 264.112 337.063Z" fill="#4CAF4F"/>
<path d="M273.283 337.106C273.243 337.686 273.034 338.241 272.681 338.703C272.329 339.165 271.848 339.513 271.299 339.704C270.75 339.895 270.156 339.921 269.593 339.778C269.03 339.634 268.521 339.328 268.13 338.898C267.739 338.468 267.483 337.933 267.394 337.358C267.304 336.784 267.386 336.196 267.628 335.667C267.871 335.139 268.263 334.693 268.756 334.386C269.25 334.079 269.823 333.923 270.404 333.939C271.202 333.987 271.95 334.345 272.488 334.937C273.025 335.528 273.311 336.307 273.283 337.106Z" fill="#4CAF4F"/>
<g opacity="0.2">
<path d="M199.887 336.775C199.845 337.354 199.633 337.908 199.279 338.368C198.925 338.828 198.443 339.173 197.894 339.362C197.345 339.551 196.752 339.575 196.19 339.43C195.628 339.285 195.12 338.978 194.731 338.548C194.341 338.117 194.086 337.582 193.998 337.008C193.91 336.434 193.992 335.847 194.235 335.319C194.477 334.791 194.869 334.347 195.362 334.04C195.855 333.733 196.428 333.578 197.008 333.593C197.81 333.638 198.562 333.997 199.101 334.592C199.64 335.188 199.923 335.972 199.887 336.775Z" fill="white"/>
<path d="M209.058 336.818C209.086 337.224 209.031 337.631 208.895 338.015C208.759 338.398 208.546 338.75 208.268 339.047C207.991 339.345 207.655 339.582 207.282 339.744C206.909 339.906 206.506 339.99 206.1 339.99C205.693 339.99 205.29 339.906 204.917 339.744C204.544 339.582 204.208 339.345 203.931 339.047C203.653 338.75 203.44 338.398 203.304 338.015C203.168 337.631 203.113 337.224 203.141 336.818C203.113 336.412 203.168 336.005 203.304 335.621C203.44 335.238 203.653 334.886 203.931 334.589C204.208 334.291 204.544 334.054 204.917 333.892C205.29 333.729 205.693 333.646 206.1 333.646C206.506 333.646 206.909 333.729 207.282 333.892C207.655 334.054 207.991 334.291 208.268 334.589C208.546 334.886 208.759 335.238 208.895 335.621C209.031 336.005 209.086 336.412 209.058 336.818Z" fill="white"/>
<path d="M218.244 336.861C218.201 337.44 217.99 337.994 217.635 338.454C217.281 338.914 216.799 339.26 216.25 339.449C215.701 339.638 215.109 339.661 214.546 339.516C213.984 339.371 213.477 339.065 213.087 338.634C212.697 338.204 212.443 337.668 212.354 337.094C212.266 336.52 212.349 335.933 212.591 335.405C212.834 334.878 213.226 334.433 213.719 334.126C214.212 333.819 214.784 333.664 215.364 333.679C216.165 333.728 216.915 334.088 217.453 334.683C217.992 335.278 218.275 336.06 218.244 336.861Z" fill="white"/>
<path d="M227.414 336.904C227.372 337.483 227.16 338.037 226.806 338.497C226.452 338.957 225.97 339.303 225.421 339.492C224.872 339.681 224.279 339.704 223.717 339.559C223.155 339.414 222.647 339.108 222.258 338.677C221.868 338.247 221.613 337.711 221.525 337.137C221.437 336.563 221.519 335.976 221.762 335.448C222.004 334.921 222.396 334.476 222.889 334.169C223.382 333.862 223.955 333.707 224.535 333.722C225.336 333.771 226.086 334.131 226.624 334.726C227.162 335.32 227.446 336.103 227.414 336.904Z" fill="white"/>
<path d="M236.585 336.933C236.546 337.513 236.336 338.068 235.984 338.53C235.631 338.992 235.15 339.341 234.601 339.532C234.052 339.723 233.459 339.748 232.895 339.605C232.332 339.461 231.823 339.156 231.432 338.725C231.041 338.295 230.785 337.76 230.696 337.185C230.607 336.611 230.688 336.023 230.931 335.494C231.173 334.966 231.565 334.52 232.059 334.213C232.552 333.906 233.125 333.75 233.706 333.766C234.504 333.814 235.252 334.172 235.79 334.764C236.328 335.355 236.613 336.134 236.585 336.933Z" fill="white"/>
<path d="M245.771 336.976C245.731 337.553 245.524 338.106 245.175 338.567C244.825 339.028 244.349 339.376 243.804 339.57C243.259 339.763 242.669 339.793 242.107 339.656C241.545 339.518 241.036 339.22 240.642 338.796C240.248 338.373 239.986 337.844 239.888 337.274C239.791 336.704 239.862 336.118 240.094 335.588C240.325 335.058 240.706 334.607 241.19 334.291C241.675 333.975 242.241 333.807 242.819 333.809C243.63 333.839 244.396 334.189 244.949 334.783C245.502 335.376 245.798 336.165 245.771 336.976Z" fill="white"/>
<path d="M254.942 337.019C254.97 337.425 254.914 337.833 254.779 338.216C254.643 338.6 254.429 338.951 254.152 339.249C253.874 339.546 253.539 339.784 253.165 339.946C252.792 340.108 252.39 340.192 251.983 340.192C251.576 340.192 251.174 340.108 250.8 339.946C250.427 339.784 250.092 339.546 249.814 339.249C249.537 338.951 249.323 338.6 249.187 338.216C249.052 337.833 248.996 337.425 249.024 337.019C248.996 336.614 249.052 336.206 249.187 335.823C249.323 335.439 249.537 335.088 249.814 334.79C250.092 334.493 250.427 334.255 250.8 334.093C251.174 333.931 251.576 333.847 251.983 333.847C252.39 333.847 252.792 333.931 253.165 334.093C253.539 334.255 253.874 334.493 254.152 334.79C254.429 335.088 254.643 335.439 254.779 335.823C254.914 336.206 254.97 336.614 254.942 337.019Z" fill="white"/>
<path d="M264.112 337.063C264.073 337.64 263.866 338.192 263.516 338.653C263.167 339.114 262.69 339.463 262.145 339.656C261.6 339.849 261.011 339.879 260.449 339.742C259.887 339.605 259.378 339.306 258.984 338.883C258.589 338.46 258.327 337.931 258.23 337.361C258.133 336.791 258.204 336.204 258.435 335.674C258.667 335.144 259.048 334.694 259.532 334.378C260.017 334.061 260.583 333.894 261.161 333.895C261.972 333.925 262.738 334.275 263.291 334.869C263.844 335.463 264.14 336.252 264.112 337.063Z" fill="white"/>
<path d="M273.283 337.106C273.243 337.686 273.034 338.241 272.681 338.703C272.329 339.165 271.848 339.513 271.299 339.704C270.75 339.895 270.156 339.921 269.593 339.777C269.03 339.634 268.521 339.328 268.13 338.898C267.739 338.468 267.483 337.932 267.394 337.358C267.304 336.783 267.386 336.195 267.628 335.667C267.871 335.139 268.263 334.693 268.756 334.386C269.25 334.078 269.823 333.923 270.404 333.938C271.202 333.987 271.95 334.345 272.488 334.936C273.025 335.528 273.311 336.307 273.283 337.106Z" fill="white"/>
</g>
<path d="M260.254 129.271C261.254 128.831 262.102 128.106 262.694 127.187C263.285 126.268 263.593 125.196 263.58 124.103C263.617 123.392 263.509 122.682 263.263 122.015C263.017 121.347 262.637 120.737 262.148 120.221C261.658 119.705 261.068 119.294 260.415 119.013C259.761 118.733 259.058 118.588 258.346 118.588C257.635 118.588 256.931 118.733 256.277 119.013C255.624 119.294 255.034 119.705 254.545 120.221C254.055 120.737 253.676 121.347 253.43 122.015C253.183 122.682 253.076 123.392 253.113 124.103C253.091 125.206 253.397 126.292 253.991 127.222C254.585 128.152 255.442 128.885 256.453 129.329C248.391 130.538 248.751 139.292 248.751 139.292L267.812 139.378C267.812 139.378 268.259 130.466 260.254 129.271Z" fill="#4CAF4F"/>
<path opacity="0.1" d="M260.254 129.271C261.254 128.831 262.102 128.106 262.694 127.187C263.285 126.268 263.593 125.196 263.58 124.103C263.617 123.392 263.509 122.682 263.263 122.015C263.017 121.347 262.637 120.737 262.148 120.221C261.658 119.705 261.068 119.294 260.415 119.013C259.761 118.733 259.058 118.588 258.346 118.588C257.635 118.588 256.931 118.733 256.277 119.013C255.624 119.294 255.034 119.705 254.545 120.221C254.055 120.737 253.676 121.347 253.43 122.015C253.183 122.682 253.076 123.392 253.113 124.103C253.091 125.206 253.397 126.292 253.991 127.222C254.585 128.152 255.442 128.885 256.453 129.329C248.391 130.538 248.751 139.292 248.751 139.292L267.812 139.378C267.812 139.378 268.259 130.466 260.254 129.271Z" fill="black"/>
<path d="M291.228 145.024L223.29 144.715L223.253 152.835L291.191 153.143L291.228 145.024Z" fill="#4CAF4F"/>
<path opacity="0.2" d="M291.228 145.024L223.29 144.715L223.253 152.835L291.191 153.143L291.228 145.024Z" fill="white"/>
<path d="M41.4634 187.104H40.7867L38.8287 187.248C37.7691 187.311 36.7155 187.451 35.6758 187.665C35.0024 187.76 34.3344 187.89 33.6746 188.054L31.4431 188.673C27.6449 189.838 24.0614 191.613 20.8325 193.928C16.5665 197.024 13.0044 200.989 10.3803 205.561C8.83803 208.196 7.61068 211.004 6.72351 213.925C5.79129 217.101 5.25456 220.379 5.12545 223.686C5.03965 225.424 5.0685 227.165 5.21183 228.898C5.21183 229.776 5.45658 230.655 5.57176 231.547C5.66863 232.447 5.83713 233.338 6.07565 234.211C7.37025 239.988 9.99705 245.382 13.7465 249.964C17.4959 254.546 22.2643 258.188 27.6711 260.6C31.5843 262.289 35.7787 263.231 40.0381 263.379C44.4374 263.621 48.8411 262.99 52.9954 261.522L54.2623 261.047H54.4351L54.579 261.133L72.7336 270.347L72.2009 270.808C70.2573 264.79 68.3857 258.959 66.5717 253.359V253.143L66.7301 252.984C71.1341 248.549 74.4034 243.116 76.2609 237.148C77.9432 231.691 78.4341 225.937 77.7006 220.274C77.048 215.242 75.43 210.383 72.9352 205.964C70.7847 202.168 68.0105 198.761 64.7289 195.886C62.0215 193.61 59.0249 191.703 55.8172 190.214C53.39 189.167 50.8622 188.371 48.2732 187.838L45.3938 187.363L43.3062 187.205L42.0393 187.118H41.6074C41.7509 187.102 41.8957 187.102 42.0393 187.118H43.3206L45.4082 187.205L48.2876 187.622C50.9088 188.116 53.4711 188.883 55.9324 189.911C59.1952 191.383 62.2458 193.286 65.0024 195.569C68.3443 198.431 71.1774 201.839 73.3815 205.647C75.9471 210.114 77.6148 215.039 78.2908 220.145C79.0853 225.895 78.6286 231.749 76.9519 237.306C75.0824 243.399 71.7625 248.947 67.2771 253.474L67.3635 253.1C69.1776 258.7 71.0636 264.531 73.0215 270.534L73.2951 271.412L72.4745 270.995L54.3199 261.795H54.6366L53.3409 262.27C49.1067 263.76 44.6214 264.406 40.1389 264.171C35.7876 264.005 31.5056 263.029 27.5127 261.291C19.8963 258.029 13.5595 252.36 9.47333 245.152C7.59296 241.824 6.21973 238.233 5.39899 234.499C5.17423 233.603 5.00594 232.694 4.8951 231.778C4.77992 230.871 4.59276 229.978 4.54957 229.085C4.15993 223.963 4.70136 218.812 6.14764 213.882C7.0569 210.92 8.31846 208.078 9.90525 205.417C12.5919 200.803 16.2283 196.814 20.5734 193.712C23.8554 191.391 27.4991 189.63 31.3567 188.5L33.617 187.924C34.2823 187.77 34.9551 187.65 35.6326 187.565C36.6831 187.37 37.7466 187.254 38.8143 187.219L40.7867 187.147C41.011 187.117 41.2371 187.102 41.4634 187.104Z" fill="#4CAF4F"/>
<path d="M49.6696 220.678H47.0062L41.2474 212.587V207.274C41.2474 207.274 37.1298 207.015 37.6193 213.969C38.1088 220.922 37.6193 219.152 37.6193 219.152C37.6193 219.152 28.8804 219.152 28.1605 219.943C27.4407 220.735 27.3975 229.172 27.2967 233.88C27.2415 235.015 27.5672 236.135 28.2219 237.064C28.8766 237.993 29.8229 238.676 30.9103 239.005C31.2152 239.089 31.5299 239.133 31.8462 239.135C34.0345 239.135 45.1633 237.364 45.1633 237.364H49.756L49.6696 220.678Z" fill="#4CAF4F"/>
<path d="M57.2856 219.252L55.6443 237.45H51.0949V219.626L57.2856 219.252Z" fill="#4CAF4F"/>
<path d="M111.548 589.729V577.42L89.4774 577.262L89.2902 595.877L90.6579 595.978C96.7478 596.366 121.64 596.942 125.729 595.675C130.278 594.264 111.548 589.729 111.548 589.729Z" fill="#4CAF4F"/>
<path d="M126.247 594.523C126.247 594.725 117.983 594.898 107.805 594.898C97.6261 594.898 89.3623 594.725 89.3623 594.523C89.3623 594.322 97.6261 594.149 107.805 594.149C117.983 594.149 126.247 594.322 126.247 594.523Z" fill="#263238"/>
<path d="M111.937 592.249C111.75 592.148 111.937 591.5 112.383 590.809C112.829 590.118 113.434 589.83 113.578 589.974C113.722 590.118 113.42 590.665 112.988 591.255C112.556 591.846 112.124 592.35 111.937 592.249Z" fill="#263238"/>
<path d="M113.348 593.055C113.146 593.055 113.247 592.249 113.679 591.486C114.111 590.723 114.686 590.262 114.845 590.377C115.003 590.492 114.744 591.14 114.341 591.817C113.938 592.493 113.535 593.127 113.348 593.055Z" fill="#263238"/>
<path d="M96.0136 594.466C95.9272 594.466 95.5961 594.207 95.121 593.66C94.541 592.957 93.895 592.311 93.1918 591.731C92.5003 591.178 91.6765 590.816 90.8019 590.68C90.1253 590.593 89.6933 590.68 89.6502 590.593C89.607 590.507 90.0245 590.205 90.8163 590.147C91.8613 590.125 92.8807 590.471 93.6957 591.126C94.4593 591.748 95.1033 592.504 95.5961 593.357C95.9272 593.991 96.1 594.408 96.0136 594.466Z" fill="#263238"/>
<path d="M112.009 589.931C112.109 590.104 111.735 590.536 111.102 590.766C110.468 590.996 109.907 590.91 109.878 590.766C109.849 590.622 110.295 590.32 110.842 590.118C111.39 589.917 111.893 589.758 112.009 589.931Z" fill="#263238"/>
<path d="M111.663 588.736C111.663 588.952 111.087 589.125 110.339 589.139C109.59 589.153 109 588.981 109.014 588.779C109.028 588.577 109.619 588.39 110.339 588.376C111.058 588.362 111.634 588.534 111.663 588.736Z" fill="#263238"/>
<path d="M165.896 589.729V577.42L143.826 577.262L143.639 595.69L145.006 595.79C151.096 596.179 176.003 596.942 180.077 595.675C184.627 594.264 165.896 589.729 165.896 589.729Z" fill="#4CAF4F"/>
<path d="M180.596 594.552C180.596 594.754 172.346 594.927 162.153 594.927C151.96 594.927 143.725 594.754 143.725 594.552C143.725 594.351 151.974 594.178 162.153 594.178C172.332 594.178 180.596 594.351 180.596 594.552Z" fill="#263238"/>
<path d="M166.285 592.249C166.112 592.148 166.285 591.5 166.732 590.809C167.178 590.118 167.783 589.83 167.926 589.974C168.07 590.118 167.768 590.665 167.336 591.255C166.904 591.846 166.472 592.35 166.285 592.249Z" fill="#263238"/>
<path d="M167.696 593.055C167.509 593.055 167.595 592.249 168.042 591.486C168.488 590.723 169.049 590.262 169.208 590.377C169.366 590.492 169.093 591.14 168.689 591.817C168.286 592.493 167.898 593.127 167.696 593.055Z" fill="#263238"/>
<path d="M150.362 594.466C150.276 594.466 149.959 594.207 149.47 593.66C148.89 592.957 148.244 592.311 147.54 591.731C146.849 591.178 146.025 590.816 145.15 590.68C144.488 590.593 144.042 590.68 143.999 590.593C143.956 590.507 144.373 590.205 145.165 590.147C146.21 590.125 147.229 590.471 148.044 591.126C148.812 591.744 149.456 592.501 149.945 593.357C150.276 593.991 150.449 594.408 150.362 594.466Z" fill="#263238"/>
<path d="M166.357 589.931C166.458 590.104 166.084 590.536 165.45 590.766C164.817 590.996 164.255 590.91 164.226 590.766C164.198 590.622 164.644 590.32 165.191 590.118C165.738 589.917 166.242 589.758 166.357 589.931Z" fill="#263238"/>
<path d="M166.04 588.736C166.04 588.952 165.465 589.125 164.716 589.139C163.967 589.153 163.391 588.981 163.406 588.779C163.42 588.577 163.996 588.39 164.716 588.376C165.436 588.362 166.04 588.534 166.04 588.736Z" fill="#263238"/>
<path d="M247.21 224.19C246.635 223.6 245.209 223.888 245.209 223.888C245.352 223.059 245.352 222.212 245.209 221.383C244.95 220.577 243.136 220.735 243.136 220.735C243.053 220.056 243.053 219.37 243.136 218.691C243.151 218.54 243.118 218.389 243.044 218.258C242.969 218.126 242.855 218.021 242.719 217.956C241.86 217.607 240.938 217.44 240.012 217.467C238.903 216.675 243.395 210.384 245.065 208.368C246.735 206.353 246.433 204.783 244.95 204.783C243.928 204.783 238.687 210.83 237.075 212.86C235.463 214.89 231.187 220.534 231.043 216.027C230.899 211.521 229.085 208.123 227.947 207.547C226.81 206.972 225.601 208.325 226.22 209.577C226.764 211 227.103 212.493 227.227 214.012C227.384 215.221 227.33 216.449 227.069 217.64C226.592 219.856 225.942 222.032 225.126 224.147H225.01C225.01 224.147 193.596 254.28 191.321 256.425C189.291 258.354 148.462 254.136 140.27 253.272C137.486 252.865 134.675 252.672 131.862 252.696C128.306 252.855 127.672 253.359 124.131 253.402C115.187 253.501 106.263 254.286 97.4388 255.749C93.4432 256.428 89.7108 258.192 86.649 260.847C83.5872 263.503 81.3135 266.948 80.0761 270.808C71.8266 296.578 53.1394 357.578 49.8425 391.843C47.3511 396.361 45.102 401.008 43.1047 405.765C40.7868 412.071 41.3483 412.287 42.1257 412.431C44.2276 412.819 46.6175 401.503 47.5102 404.239C48.4028 406.974 42.9751 417.729 45.1778 418.046C48.0572 418.449 50.3464 406.528 50.6199 405.578C50.8934 404.628 52.3187 404.93 52.0596 405.822C51.6421 407.089 47.5965 420.522 50.4183 420.954C51.9732 421.184 52.146 418.348 52.146 418.348C52.146 418.348 55.0254 405.491 56.3355 405.75C57.6456 406.01 56.2491 413.597 55.5869 416.131C54.9246 418.665 55.846 419.946 57.1993 419.327C58.1207 418.895 60.3235 411.193 60.9281 408.687C61.5328 406.182 63.0445 399.243 65.0744 403.26C67.1044 407.277 70.1854 409.609 71.4523 409.666C71.7378 409.634 72.0069 409.516 72.225 409.329C72.4431 409.142 72.6001 408.894 72.676 408.616C72.7519 408.339 72.7431 408.046 72.6507 407.774C72.5584 407.501 72.3867 407.263 72.1578 407.089C71.0681 406.025 70.1328 404.814 69.3791 403.49C68.7075 402.459 68.2204 401.319 67.9395 400.121C67.3593 397.733 67.0217 395.292 66.9317 392.836L66.7013 391.397C69.9262 375.43 79.2123 328.568 92.6158 298.637L98.1155 309.953L100.505 318.332L85.8493 354.512L148.361 353.691L139.032 317.785L150.362 280.353C162.614 280.626 194.071 281.087 199.312 278.712C205.906 275.832 240.012 232.757 240.012 232.757C242.235 231.029 244.364 229.184 246.39 227.228C246.39 227.228 248.463 225.486 247.21 224.19Z" fill="#FFBE9D"/>
<path d="M83.0995 327.777C84.9135 321.586 94.2283 290.978 94.2283 290.978C94.2283 290.978 98.8066 315.928 97.5973 318.937C96.4848 321.513 95.1706 323.997 93.6669 326.366C83.0995 342.447 84.4816 350.495 84.4816 350.495L148.332 348.551C148.476 339.625 143.192 318.865 142.098 315.553C141.004 312.242 144.647 301.401 144.647 301.401C144.647 301.401 151.845 294.073 151.586 290.301C151.449 286.913 151.03 283.542 150.333 280.223L189.205 281.663L187.981 255.317L132.15 249.731C130.206 255.216 112.628 252.524 112.628 252.524C93.6525 253.157 92.4719 256.641 84.5824 262.774C76.6928 268.907 63.6348 321.543 63.6348 321.543L83.0995 327.777Z" fill="#4CAF4F"/>
<path d="M120.848 321.543C119.742 321.741 118.615 321.799 117.494 321.716C115.406 321.716 112.541 321.572 109.388 321.255C106.235 320.938 103.385 320.492 101.355 320.089C100.235 319.945 99.1379 319.664 98.0866 319.254C99.2122 319.254 100.335 319.36 101.441 319.57C103.485 319.83 106.322 320.19 109.46 320.506C112.599 320.823 115.449 321.039 117.508 321.183C118.63 321.197 119.749 321.318 120.848 321.543Z" fill="#263238"/>
<path d="M125.225 316.115C124.118 316.657 122.948 317.059 121.741 317.31C115.997 318.819 110.071 319.522 104.133 319.398C102.905 319.438 101.676 319.321 100.477 319.052C101.689 318.899 102.911 318.836 104.133 318.865C106.394 318.793 109.503 318.635 112.93 318.231C116.356 317.828 119.409 317.252 121.568 316.792C122.768 316.471 123.99 316.245 125.225 316.115Z" fill="#263238"/>
<path d="M146.705 291.899C146.676 292.997 146.526 294.088 146.259 295.153C145.885 297.154 145.309 299.89 144.574 302.884C143.84 305.879 143.135 308.643 142.501 310.515C142.247 311.586 141.87 312.624 141.378 313.61C141.459 312.516 141.661 311.434 141.983 310.385C142.53 308.139 143.149 305.548 143.84 302.711C144.531 299.875 145.194 297.284 145.741 295.038C145.935 293.957 146.259 292.903 146.705 291.899Z" fill="#263238"/>
<path d="M83.7762 324.105C80.4455 323.591 77.1584 322.826 73.943 321.816C70.6575 321.048 67.4333 320.038 64.2971 318.793C67.6261 319.316 70.9126 320.081 74.1302 321.082C77.4165 321.848 80.6408 322.858 83.7762 324.105Z" fill="#263238"/>
<path d="M151.024 279.907C150.481 280 149.926 280 149.383 279.907C147.879 279.752 146.403 279.399 144.992 278.856C142.637 277.971 140.493 276.603 138.698 274.84C136.903 273.077 135.496 270.958 134.569 268.619C133.544 266.047 133.106 263.277 133.287 260.514C133.352 258.235 134.033 256.015 135.26 254.093C136.122 252.798 137.411 251.845 138.902 251.401C139.301 251.291 139.713 251.237 140.126 251.242C140.414 251.242 140.558 251.242 140.558 251.242C140.558 251.242 139.953 251.242 138.989 251.631C137.621 252.136 136.46 253.084 135.692 254.323C133.734 257.404 133.187 263.033 135.274 268.288C136.246 270.766 137.767 272.991 139.723 274.796C141.326 276.272 143.172 277.461 145.179 278.309C147.063 279.053 149.024 279.589 151.024 279.907Z" fill="#263238"/>
<path d="M184.584 281.145C184.223 276.73 184.108 272.298 184.238 267.871C184.125 263.447 184.26 259.02 184.641 254.611C185.002 259.021 185.117 263.448 184.987 267.871C185.108 272.3 184.973 276.732 184.584 281.145Z" fill="#263238"/>
<path d="M131.776 251.343C131.934 248.133 132.265 244.505 132.265 244.505C132.265 244.505 140.212 243.626 140.687 235.42C141.162 227.214 140.687 208.282 140.687 208.282L126.29 200.911L110.31 213.479L112.772 254.51L127.428 255.446C128.548 255.477 129.635 255.063 130.45 254.294C131.265 253.524 131.742 252.463 131.776 251.343Z" fill="#FFBE9D"/>
<path d="M133.201 228.927C133.201 228.927 133.201 229.085 133.071 229.273C132.964 229.408 132.826 229.516 132.668 229.586C132.51 229.656 132.337 229.687 132.164 229.676C131.243 229.676 130.35 228.61 130.034 227.372C129.883 226.772 129.883 226.144 130.034 225.544C130.063 225.282 130.158 225.031 130.308 224.815C130.459 224.599 130.662 224.424 130.897 224.306C131.091 224.226 131.308 224.226 131.502 224.306C131.646 224.377 131.762 224.493 131.833 224.637C131.934 224.882 131.833 225.04 131.833 225.025C131.833 225.011 131.833 224.882 131.689 224.738C131.614 224.634 131.503 224.563 131.378 224.536C131.254 224.51 131.123 224.53 131.013 224.594C130.836 224.7 130.689 224.85 130.586 225.029C130.483 225.208 130.426 225.409 130.422 225.616C130.301 226.151 130.301 226.707 130.422 227.243C130.71 228.366 131.488 229.273 132.179 229.359C132.314 229.377 132.451 229.368 132.583 229.33C132.714 229.293 132.836 229.229 132.942 229.143C133.114 229.028 133.172 228.913 133.201 228.927Z" fill="#EB996E"/>
<path d="M145.626 203.848C144.517 200.076 140.5 198.204 136.843 197.167C131.272 195.584 125.254 194.893 119.812 196.894C114.37 198.895 107.834 202.408 107.834 208.411C104.623 208.152 102.78 210.96 101.513 214.444C100.703 216.566 100.218 218.799 100.074 221.066C99.6705 228.927 97.4678 239.782 92.3713 245.541C89.4919 248.752 85.5039 250.969 83.8626 254.971C82.4229 258.441 83.1716 262.558 81.8327 266.071C80.6377 269.167 78.0031 271.369 76.0739 274.062C74.1084 277.116 72.9518 280.619 72.7125 284.243C72.4733 287.867 73.1593 291.493 74.7062 294.779C76.2642 297.981 78.4577 300.832 81.1531 303.158C83.8486 305.485 86.9895 307.238 90.3845 308.312C97.1094 310.358 104.281 310.428 111.044 308.513C116.12 307.3 120.855 304.952 124.894 301.646C129.026 298.272 131.865 293.572 132.928 288.343C133.95 282.469 132.308 276.495 131.085 270.649C127.255 252.178 128.349 251.214 133.187 234.067C133.302 233.764 133.359 233.448 133.446 233.145C133.532 232.843 133.575 232.699 133.633 232.469C133.77 231.791 133.843 231.101 133.849 230.41C133.142 230.673 132.375 230.728 131.638 230.57C130.901 230.412 130.225 230.047 129.688 229.517C129.15 228.953 128.775 228.253 128.603 227.493C128.431 226.732 128.467 225.939 128.709 225.198C129.049 224.388 129.555 223.657 130.195 223.055C130.835 222.452 131.594 221.99 132.424 221.7C134.022 221.038 135.735 220.692 137.304 219.958C140.63 218.374 142.933 215.092 144.503 211.651C145.793 209.266 146.191 206.499 145.626 203.848Z" fill="#263238"/>
<path d="M133.777 229.316C134.081 229.765 134.332 230.248 134.526 230.755C134.957 231.662 135.533 232.944 136.167 234.427L136.282 234.7H135.98L134.54 234.83C133.547 234.83 132.711 235.017 131.732 235.002C131.647 234.983 131.568 234.943 131.503 234.885C131.437 234.827 131.388 234.754 131.358 234.671C131.315 234.54 131.315 234.399 131.358 234.268C131.391 234.074 131.435 233.882 131.488 233.692L131.747 232.67C131.877 231.988 132.08 231.322 132.352 230.683C132.325 231.378 132.223 232.069 132.049 232.742L131.848 233.764C131.776 234.11 131.646 234.643 131.848 234.599C132.568 234.599 133.59 234.441 134.54 234.383L135.98 234.254L135.792 234.571C135.173 233.131 134.655 231.778 134.353 230.842C134.088 230.364 133.894 229.85 133.777 229.316Z" fill="#4CAF4F"/>
<path d="M84.4816 350.495L148.332 348.551L176.118 457.018L171.007 581.437H137.246L141.378 459.667L116.688 384.155L120.488 586.26L86.3676 586.764L82.7827 396.796C82.6244 391.512 80.8967 379.606 81.5446 374.365L84.4816 350.495Z" fill="#263238"/>
<path d="M125.182 385.696C124.137 385.761 123.088 385.698 122.058 385.508C120.129 385.278 117.494 384.875 114.6 384.299C111.706 383.723 109.115 383.061 107.243 382.528C106.243 382.308 105.275 381.96 104.364 381.492C104.364 381.276 109.057 382.399 114.816 383.565C120.575 384.731 125.211 385.48 125.182 385.696Z" fill="#455A64"/>
<path d="M170.662 574.613C170.662 574.814 163.017 574.987 153.587 574.987C144.157 574.987 136.498 574.814 136.498 574.613C136.498 574.411 144.143 574.238 153.587 574.238C163.032 574.238 170.662 574.397 170.662 574.613Z" fill="#455A64"/>
<path d="M120.186 581.005C120.186 581.221 112.757 581.379 103.601 581.379C94.4442 581.379 87.0298 581.221 87.0298 581.005C87.0298 580.789 94.4586 580.63 103.601 580.63C112.743 580.63 120.186 580.803 120.186 581.005Z" fill="#455A64"/>
<path d="M115.781 580.487C115.579 580.487 114.686 536.331 113.779 481.867C112.872 427.404 112.34 383.219 112.527 383.219C112.714 383.219 113.635 427.36 114.528 481.853C115.421 536.345 115.996 580.487 115.781 580.487Z" fill="#455A64"/>
<path d="M166.127 574.613C166.111 574.416 166.111 574.219 166.127 574.022V572.295C166.127 570.74 166.242 568.508 166.328 565.672C166.53 559.913 166.818 551.549 167.178 541.298C167.955 520.682 169.049 492.262 170.244 460.891C170.244 460.589 170.244 460.301 170.244 460.042V460.142C162.686 429.909 155.847 402.468 150.88 382.615L145.122 359.133C144.459 356.383 143.955 354.238 143.595 352.741C143.423 352.036 143.308 351.488 143.207 351.071C143.151 350.884 143.117 350.69 143.106 350.495C143.181 350.677 143.239 350.864 143.279 351.057C143.394 351.46 143.538 352.007 143.739 352.698C144.128 354.138 144.69 356.326 145.409 359.061C146.849 364.618 148.879 372.623 151.413 382.485C156.423 402.324 163.334 429.693 170.993 459.97V460.07C170.993 460.33 170.993 460.632 170.993 460.92C169.712 492.291 168.545 520.696 167.696 541.312C167.25 551.577 166.875 559.885 166.616 565.672C166.472 568.552 166.357 570.74 166.285 572.295C166.285 573.029 166.199 573.605 166.184 574.022C166.186 574.221 166.167 574.419 166.127 574.613Z" fill="#455A64"/>
<path d="M155.113 457.508C152.688 458.305 150.19 458.859 147.656 459.163C144.546 459.696 141.897 460.07 140.702 460.128V459.84C141.091 459.955 141.292 460.027 141.292 460.085C141.292 460.142 141.047 460.085 140.644 460.085H139.78L140.644 459.825C141.767 459.494 144.416 458.947 147.526 458.386C150.02 457.845 152.561 457.551 155.113 457.508Z" fill="#455A64"/>
<path d="M154.523 461.64C152.277 461.742 150.027 461.641 147.799 461.337C145.55 461.291 143.31 461.045 141.105 460.603C145.604 460.236 150.133 460.586 154.523 461.64Z" fill="#455A64"/>
<path opacity="0.2" d="M84.208 352.784C84.9642 353.755 85.9166 354.556 87.0032 355.134C88.0898 355.712 89.286 356.054 90.5138 356.139C93.0854 356.443 95.6866 356.395 98.245 355.995C114.73 354.166 132.193 352.482 148.332 348.551C127.442 349.718 105.372 349.329 84.4815 350.495L84.2656 352.28" fill="black"/>
<g opacity="0.2">
<path d="M105.731 382.226L117.508 427.922L116.688 384.155L105.731 382.226Z" fill="black"/>
</g>
</svg>
