<svg width="5" height="3" viewBox="0 0 5 3" fill="none" xmlns="http://www.w3.org/2000/svg">
<path d="M0.779688 0.522666C0.779688 0.570177 0.779689 0.62957 0.767329 0.665208C0.705437 1.12847 0.705431 1.59174 0.74251 2.06688C0.767323 2.18567 0.792044 2.30445 0.891108 2.39948C1.05197 2.57766 1.29945 2.54203 1.39851 2.32821C1.44804 2.2213 1.44804 2.11439 1.42323 2.00749C1.29945 1.5561 1.27473 1.08096 1.26237 0.617688C1.26237 0.593932 1.26237 0.558295 1.26237 0.522666C1.39851 0.510784 1.5223 0.498901 1.63363 0.498901C1.72033 0.487028 1.79458 0.475146 1.85647 0.439508C2.04205 0.344486 2.04206 0.142551 1.84402 0.0475202C1.76977 0.0118824 1.6708 0 1.58419 0C1.27473 0.0118824 0.965362 0.0118821 0.655902 0.0118821C0.544572 0.0118821 0.433145 0.0237645 0.321721 0.0356376C0.259829 0.04752 0.185584 0.04752 0.136146 0.0831578C0.0494403 0.118786 0 0.17818 0 0.261328C0.0123595 0.344486 0.0494403 0.391997 0.136146 0.427635C0.185584 0.463273 0.24747 0.475146 0.309362 0.475146C0.457865 0.487028 0.618826 0.510784 0.779688 0.522666ZM4.18318 1.06908C4.18318 1.08096 4.19554 1.09283 4.19554 1.09283C4.24507 1.41356 4.2946 1.7224 4.33168 2.03124C4.34414 2.13815 4.35649 2.23318 4.43074 2.31633C4.59161 2.51826 4.83918 2.49451 4.95051 2.2807C5.00004 2.17378 5.0124 2.06688 4.98768 1.94809C4.91343 1.59173 4.87625 1.23538 4.802 0.890898C4.75247 0.677081 4.69067 0.475146 4.62878 0.285093C4.59161 0.166306 4.505 0.0831488 4.3565 0.0712757C4.20799 0.0475202 4.09657 0.118786 4.03467 0.2257C3.96042 0.320722 3.89853 0.415753 3.849 0.522666C3.76239 0.712719 3.68814 0.902781 3.58917 1.08096C3.57671 1.12847 3.56435 1.16411 3.53964 1.19974C3.52728 1.17598 3.51492 1.16411 3.51492 1.16411C3.35396 0.867143 3.20545 0.570177 3.04459 0.285093C3.01978 0.261328 3.00742 0.237573 2.99506 0.213817C2.92081 0.106913 2.83419 0.0475202 2.69805 0.0475202C2.57427 0.0593933 2.4752 0.130669 2.41341 0.237573C2.38859 0.285093 2.3886 0.320721 2.37624 0.368242C2.3267 0.748356 2.26481 1.12847 2.21537 1.50859C2.19056 1.7224 2.1782 1.93621 2.1782 2.15003C2.16584 2.19754 2.1782 2.25693 2.20292 2.30445C2.22773 2.39948 2.30198 2.45888 2.40095 2.47075C2.52474 2.48263 2.61135 2.447 2.64852 2.35196C2.6856 2.2807 2.69805 2.22131 2.71041 2.16191C2.75994 1.94809 2.79702 1.74616 2.8342 1.54422C2.85892 1.42544 2.87127 1.33041 2.90845 1.19974C2.93316 1.24726 2.95789 1.2829 2.9827 1.31852C3.09403 1.46108 3.20546 1.60362 3.3416 1.7224C3.47774 1.81743 3.58916 1.80555 3.70049 1.69864C3.72531 1.67488 3.73767 1.66301 3.76239 1.63925C3.87381 1.47295 4.00996 1.30665 4.12129 1.14034C4.1461 1.11659 4.15846 1.09283 4.18318 1.06908Z" fill="#3A3B7B"/>
</svg>
