<svg width="56" height="56" viewBox="0 0 56 56" fill="none" xmlns="http://www.w3.org/2000/svg">
<path fill-rule="evenodd" clip-rule="evenodd" d="M14 0C21.7319 0 28 6.26801 28 14V0H42C49.7319 0 56 6.26801 56 14C56 21.7319 49.7319 28 42 28C49.7319 28 56 34.2681 56 42C56 45.8392 54.4546 49.3175 51.9519 51.8468L51.8995 51.8995L51.8531 51.9457C49.3233 54.452 45.8424 56 42 56C38.1837 56 34.7241 54.473 32.1986 51.9967C32.1658 51.9645 32.1331 51.932 32.1005 51.8995C32.0698 51.8689 32.0393 51.8381 32.0089 51.8072C29.5294 49.2813 28 45.8192 28 42C28 49.7319 21.7319 56 14 56C6.26801 56 0 49.7319 0 42V28H14C6.26801 28 0 21.7319 0 14C0 6.26801 6.26801 0 14 0ZM25.2 14C25.2 20.1856 20.1856 25.2 14 25.2V2.8C20.1856 2.8 25.2 7.81441 25.2 14ZM53.2 42C53.2 35.8144 48.1856 30.8 42 30.8C35.8144 30.8 30.8 35.8144 30.8 42H53.2ZM2.8 30.8V42C2.8 48.1856 7.81441 53.2 14 53.2C20.1856 53.2 25.2 48.1856 25.2 42V30.8H2.8ZM30.8 25.2V2.8H42C48.1856 2.8 53.2 7.81441 53.2 14C53.2 20.1856 48.1856 25.2 42 25.2H30.8Z" fill="#263238"/>
</svg>
