<svg width="77" height="42" viewBox="0 0 77 42" fill="none" xmlns="http://www.w3.org/2000/svg">
<path d="M76.994 14.9375C77.002 14.8791 77.002 14.8201 76.994 14.7617C77.0016 14.7142 77.0016 14.6657 76.994 14.618L76.4236 10.5123C76.3413 10.0211 76.1212 9.56198 75.7881 9.18633L75.6903 9.07449L75.5111 8.89875L65.6361 0.559545L65.9131 0.83115C65.6865 0.565313 65.402 0.352679 65.0805 0.208911C64.759 0.0651424 64.4087 -0.00610754 64.0555 0.000417289H61.0571C60.5695 -0.00905324 60.0931 0.14292 59.7045 0.431762C59.2965 0.14466 58.8053 -0.00653603 58.3031 0.000417289H55.3047C54.9115 -0.00583762 54.5236 0.089843 54.1802 0.2778C53.8368 0.465756 53.5502 0.739315 53.3494 1.07077C53.0396 1.54418 52.9233 2.11457 53.0234 2.66832L53.3982 5.25634C53.1499 5.11835 52.8689 5.04675 52.5834 5.04868H38.0642C37.5433 5.05189 37.0343 5.20158 36.5976 5.48C36.1753 5.73916 35.8362 6.11026 35.6199 6.55035L34.4955 5.60781C34.0529 5.20638 33.4688 4.9888 32.866 5.00075H10.0849C9.56217 5.01009 9.05101 5.15326 8.60211 5.41611C7.98797 5.76851 7.5379 6.34151 7.34733 7.01365L0.112163 30.7373C-0.0230232 31.1282 -0.0363219 31.5498 0.0739707 31.9481C0.184263 32.3464 0.413152 32.7036 0.731396 32.9739C0.814321 33.0428 0.901392 33.1068 0.992129 33.1655C0.992129 33.1655 0.845447 33.0697 0.76397 32.9899L10.639 41.345C11.0568 41.7221 11.6029 41.9328 12.1707 41.9361H35.131C35.6554 41.9227 36.1669 41.7739 36.6139 41.5047C36.8668 41.3693 37.0929 41.1908 37.282 40.9775L37.3635 40.8657L37.4939 40.706L37.5916 40.5302L38.6672 41.4409C39.0789 41.8029 39.6132 42.0021 40.1663 42H63.1754C63.6992 41.9829 64.2098 41.8344 64.6583 41.5687C64.9055 41.4249 65.1304 41.2474 65.3265 41.0415L65.4079 40.9296L65.5382 40.7699C65.6075 40.6688 65.6676 40.5619 65.7175 40.4503C65.7707 40.3535 65.8144 40.2519 65.8478 40.1469L72.4475 18.4841V18.2924C72.4556 18.218 72.4556 18.1431 72.4475 18.0687V17.925C72.4554 17.8773 72.4554 17.8288 72.4475 17.7811C72.4549 17.6801 72.4549 17.5787 72.4475 17.4776H74.566C74.7502 17.4942 74.9357 17.4942 75.1199 17.4776H75.2667C75.3859 17.4427 75.5008 17.3944 75.6089 17.3338H75.7719L76.0651 17.1102L76.1955 17.0143L76.4236 16.7267V16.631L76.5866 16.3593C76.5775 16.3065 76.5775 16.2524 76.5866 16.1996C76.5779 16.1737 76.5779 16.1456 76.5866 16.1197C76.6212 16.026 76.6485 15.9299 76.6681 15.8321C76.6605 15.8006 76.6605 15.7677 76.6681 15.7362C76.6601 15.6887 76.6601 15.6401 76.6681 15.5925C76.6681 15.5925 76.994 14.9694 76.994 14.9375Z" fill="black"/>
</svg>
