<svg width="50" height="43" viewBox="0 0 50 43" fill="none" xmlns="http://www.w3.org/2000/svg">
<path d="M29.3938 14.0682C28.9553 14.0682 28.5989 13.7123 28.5989 13.2732V11.9223C28.5989 11.4838 28.9548 11.1273 29.3938 11.1273C29.8323 11.1273 30.1888 11.4832 30.1888 11.9223V13.2732C30.1888 13.7123 29.8323 14.0682 29.3938 14.0682Z" fill="#103E13"/>
<path d="M26.0515 14.0682C25.613 14.0682 25.2566 13.7123 25.2566 13.2732V11.9223C25.2566 11.4838 25.6124 11.1273 26.0515 11.1273C26.49 11.1273 26.8464 11.4832 26.8464 11.9223V13.2732C26.8459 13.7123 26.4905 14.0682 26.0515 14.0682Z" fill="#103E13"/>
<path d="M22.7097 14.0682C22.2712 14.0682 21.9147 13.7123 21.9147 13.2732V11.9223C21.9147 11.4838 22.2706 11.1273 22.7097 11.1273C23.1481 11.1273 23.5046 11.4832 23.5046 11.9223V13.2732C23.5046 13.7123 23.1487 14.0682 22.7097 14.0682Z" fill="#103E13"/>
<path d="M29.3938 19.5927C28.9553 19.5927 28.5989 19.2368 28.5989 18.7977V17.4474C28.5989 17.0089 28.9548 16.6524 29.3938 16.6524C29.8323 16.6524 30.1888 17.0083 30.1888 17.4474V18.7977C30.1888 19.2368 29.8323 19.5927 29.3938 19.5927Z" fill="#103E13"/>
<path d="M26.0515 19.5927C25.613 19.5927 25.2566 19.2368 25.2566 18.7977V17.4474C25.2566 17.0089 25.6124 16.6524 26.0515 16.6524C26.49 16.6524 26.8464 17.0083 26.8464 17.4474V18.7977C26.8459 19.2368 26.4905 19.5927 26.0515 19.5927Z" fill="#103E13"/>
<path d="M22.7097 19.5927C22.2712 19.5927 21.9147 19.2368 21.9147 18.7977V17.4474C21.9147 17.0089 22.2706 16.6524 22.7097 16.6524C23.1481 16.6524 23.5046 17.0083 23.5046 17.4474V18.7977C23.5046 19.2368 23.1487 19.5927 22.7097 19.5927Z" fill="#103E13"/>
<path d="M29.3938 25.1173C28.9553 25.1173 28.5989 24.7614 28.5989 24.3224V22.9714C28.5989 22.533 28.9548 22.1765 29.3938 22.1765C29.8323 22.1765 30.1888 22.5324 30.1888 22.9714V24.3224C30.1888 24.7614 29.8323 25.1173 29.3938 25.1173Z" fill="#103E13"/>
<path d="M26.0515 25.1173C25.613 25.1173 25.2566 24.7614 25.2566 24.3224V22.9714C25.2566 22.533 25.6124 22.1765 26.0515 22.1765C26.49 22.1765 26.8464 22.5324 26.8464 22.9714V24.3224C26.8459 24.7614 26.4905 25.1173 26.0515 25.1173Z" fill="#103E13"/>
<path d="M22.7097 25.1173C22.2712 25.1173 21.9147 24.7614 21.9147 24.3224V22.9714C21.9147 22.533 22.2706 22.1765 22.7097 22.1765C23.1481 22.1765 23.5046 22.5324 23.5046 22.9714V24.3224C23.5046 24.7614 23.1487 25.1173 22.7097 25.1173Z" fill="#103E13"/>
<path d="M29.3938 30.6408C28.9553 30.6408 28.5989 30.2849 28.5989 29.8459V28.4949C28.5989 28.0564 28.9548 27.7 29.3938 27.7C29.8323 27.7 30.1888 28.0559 30.1888 28.4949V29.8459C30.1888 30.2849 29.8323 30.6408 29.3938 30.6408Z" fill="#103E13"/>
<path d="M26.0515 30.6408C25.613 30.6408 25.2566 30.2849 25.2566 29.8459V28.4949C25.2566 28.0564 25.6124 27.7 26.0515 27.7C26.49 27.7 26.8464 28.0559 26.8464 28.4949V29.8459C26.8459 30.2849 26.4905 30.6408 26.0515 30.6408Z" fill="#103E13"/>
<path d="M22.7097 30.6408C22.2712 30.6408 21.9147 30.2849 21.9147 29.8459V28.4949C21.9147 28.0564 22.2706 27.7 22.7097 27.7C23.1481 27.7 23.5046 28.0559 23.5046 28.4949V29.8459C23.5046 30.2849 23.1487 30.6408 22.7097 30.6408Z" fill="#103E13"/>
<path d="M29.3938 36.1653C28.9553 36.1653 28.5989 35.8094 28.5989 35.3703V34.0199C28.5989 33.5814 28.9548 33.225 29.3938 33.225C29.8323 33.225 30.1888 33.5809 30.1888 34.0199V35.3703C30.1888 35.8088 29.8323 36.1653 29.3938 36.1653Z" fill="#103E13"/>
<path d="M26.0515 36.1653C25.613 36.1653 25.2566 35.8094 25.2566 35.3703V34.0199C25.2566 33.5814 25.6124 33.225 26.0515 33.225C26.49 33.225 26.8464 33.5809 26.8464 34.0199V35.3703C26.8459 35.8088 26.4905 36.1653 26.0515 36.1653Z" fill="#103E13"/>
<path d="M22.7097 36.1653C22.2712 36.1653 21.9147 35.8094 21.9147 35.3703L21.9153 34.0199C21.9153 33.5814 22.2712 33.225 22.7102 33.225C23.1487 33.225 23.5051 33.5809 23.5051 34.0199V35.3703C23.5046 35.8088 23.1487 36.1653 22.7097 36.1653Z" fill="#103E13"/>
<path d="M0.00066695 41.6631C0.00066695 42.1016 0.356558 42.4581 0.795609 42.4581H49.205C49.6435 42.4581 50 42.1022 50 41.6631C50 41.2246 49.6441 40.8682 49.205 40.8682H47.7355V18.0443C47.7355 17.6058 47.3796 17.2493 46.9406 17.2493L33.9616 17.2499V0.795065C33.9616 0.516788 33.8164 0.259571 33.5791 0.11543C33.3424 -0.0292506 33.0464 -0.0381199 32.8003 0.0899298L18.0441 7.77268C17.7808 7.90961 17.6167 8.18124 17.6167 8.47782V22.8508H3.33601C2.89753 22.8508 2.54107 23.2067 2.54107 23.6457V40.8683H0.793835C0.355352 40.8678 0 41.2236 0 41.6627L0.00066695 41.6631ZM33.9619 29.2896H46.1464V40.8688L33.9619 40.8683V29.2896ZM33.9619 23.7655H46.1464V27.7003L33.9619 27.6997V23.7655ZM33.9619 18.8389H46.1464V22.1767H33.9619V18.8389ZM19.2058 8.96051L32.3715 2.10539V40.8676H19.2058V8.96051ZM8.06063 34.5191C8.06063 32.8693 9.36777 31.5267 10.9748 31.5267C12.5819 31.5267 13.8896 32.8688 13.8896 34.5191V40.8685H8.06063V34.5191ZM4.13091 24.4404H17.6165V40.8683H15.4794V34.5188C15.4794 31.9926 13.4594 29.9371 10.9748 29.9371C8.49133 29.9371 6.47134 31.992 6.47134 34.5188V40.8683H4.13091V24.4404Z" fill="#103E13"/>
</svg>
