<svg width="46" height="42" viewBox="0 0 46 42" fill="none" xmlns="http://www.w3.org/2000/svg">
<path d="M28.4808 20.5025C28.1437 20.5025 27.8307 20.4098 27.5527 20.2607V20.2647C27.5527 20.795 27.3466 21.2931 26.9725 21.6662C26.5985 22.0402 26.1008 22.2463 25.571 22.2463C25.229 22.2463 24.912 22.1513 24.631 21.9983C24.6026 22.4835 24.4087 22.937 24.0627 23.2834C23.6886 23.6574 23.1909 23.8635 22.6608 23.8635C21.6076 23.8635 20.7523 23.0357 20.6907 21.998C20.3648 22.1741 19.9964 22.2665 19.6164 22.242C18.5803 22.1741 17.769 21.2789 17.769 20.2036V11.2903L16.754 13.0487C16.3675 13.7212 15.6438 14.1388 14.8647 14.1388C14.4851 14.1388 14.1101 14.0392 13.7779 13.8489C13.3643 13.6091 13.0685 13.2241 12.9454 12.7637C12.8217 12.3029 12.8857 11.821 13.1249 11.408C13.1252 11.408 16.4456 5.65794 16.6482 5.30474C16.6723 5.25163 16.7409 5.0976 16.7993 4.96632C16.855 4.84099 16.9028 4.71235 16.9487 4.58305C17.95 1.75607 20.4295 7.67245e-06 23.4198 7.67245e-06C27.3029 7.67245e-06 30.4621 3.42566 30.4621 7.63642L30.4624 18.5205C30.4624 19.0502 30.2566 19.5479 29.8829 19.9223C29.5088 20.2964 29.0111 20.5025 28.4808 20.5025L28.4808 20.5025ZM23.4198 1.053C20.8503 1.053 18.8024 2.50433 17.9412 4.93521C17.8861 5.08957 17.8287 5.24393 17.7618 5.39434C17.5675 5.83006 17.5675 5.83006 17.5127 5.89272L17.5055 5.88646C17.2344 6.39803 16.4289 7.7929 14.0366 11.935C13.9383 12.1049 13.9123 12.3021 13.9624 12.4908C14.0132 12.6794 14.1349 12.8384 14.3034 12.9357C14.8266 13.2362 15.543 13.0423 15.8411 12.5228L17.8396 9.06275C17.959 8.85661 18.2005 8.75535 18.432 8.81802C18.6622 8.8797 18.8222 9.08848 18.8222 9.32662V20.2039C18.8222 20.7172 19.2094 21.1601 19.6854 21.1914C19.9598 21.2059 20.2158 21.1139 20.4081 20.922C20.5829 20.7471 20.6792 20.5143 20.6792 20.2653V13.1514C20.6792 12.8604 20.915 12.6246 21.206 12.6246C21.4969 12.6246 21.7327 12.8601 21.7327 13.1514L21.7324 21.8822C21.7324 22.3942 22.149 22.8107 22.6609 22.8107C22.9096 22.8107 23.1431 22.7144 23.3182 22.5396C23.493 22.3645 23.5894 22.1309 23.5894 21.8822V13.1513C23.5894 12.8604 23.8249 12.6246 24.1161 12.6246C24.407 12.6246 24.6429 12.8601 24.6429 13.1513L24.6425 20.1834V20.2652C24.6425 20.7768 25.0591 21.1934 25.5713 21.1934C25.8197 21.1934 26.0526 21.0967 26.2287 20.9213C26.4035 20.7468 26.4998 20.5139 26.4998 20.2649V13.151C26.4998 12.8601 26.7353 12.6242 27.0266 12.6242C27.3175 12.6242 27.5533 12.8597 27.5533 13.151L27.5527 18.5207C27.5527 19.033 27.9693 19.4495 28.4808 19.4495C28.7298 19.4495 28.9627 19.3529 29.1375 19.1784C29.313 19.003 29.409 18.7694 29.409 18.5207L29.4093 7.63667C29.4093 4.00684 26.7225 1.05311 23.4198 1.05311L23.4198 1.053Z" fill="#103E13"/>
<path d="M7.78532 28.0673L15.4289 23.4818C16.3505 22.9284 17.5362 23.1636 18.1273 24.0175C18.343 24.3285 18.4532 24.691 18.4703 25.0601C18.7553 24.9114 19.0654 24.8306 19.381 24.8306C19.5426 24.8306 19.7049 24.8507 19.8652 24.8906C20.3787 25.0189 20.8115 25.3398 21.0836 25.7937C21.3561 26.2482 21.4356 26.7808 21.3073 27.2938C21.1888 27.7684 20.9002 28.1679 20.4988 28.442C20.7795 28.6076 21.0216 28.8335 21.1938 29.1211C21.4662 29.5756 21.5457 30.108 21.4178 30.6216C21.2894 31.1345 20.9685 31.5672 20.514 31.84L20.5114 31.8417C20.7871 32.0069 21.0249 32.2306 21.1951 32.5139C21.4679 32.9684 21.5474 33.501 21.4191 34.0146C21.2904 34.5278 20.9695 34.9606 20.5157 35.233L11.1827 40.832C9.44087 41.8766 7.42719 42.2372 5.51349 41.8463C3.58264 41.4518 1.98356 40.342 1.01125 38.7211C-0.527463 36.1566 -0.296863 33.1267 1.61188 30.8142C1.69929 30.7087 1.78538 30.6012 1.86355 30.4897C1.94634 30.3719 2.04298 30.2334 2.07596 30.1859C2.27353 29.833 5.49739 24.0245 5.49706 24.0252C5.82261 23.4378 6.4328 23.1052 7.06211 23.1056C7.35567 23.1056 7.65351 23.1778 7.92828 23.3302C8.2601 23.5156 8.53881 23.7857 8.73374 24.1113C9.13449 24.7792 9.14868 25.615 8.77135 26.2914L7.78532 28.0673ZM7.83117 24.6527C7.72892 24.4822 7.58841 24.3463 7.41656 24.25C7.06133 24.0534 6.61407 24.1814 6.41851 24.5353C4.11166 28.6913 3.32529 30.1076 3.02182 30.6116L3.02874 30.6132C3.00334 30.6977 3.00335 30.6977 2.72563 31.0945C2.63129 31.2287 2.52872 31.3577 2.42416 31.4846C0.782851 33.4732 0.592274 35.9757 1.9139 38.1793C2.73255 39.5442 4.08556 40.4799 5.72383 40.8144C7.37991 41.1511 9.12541 40.8378 10.6404 39.9288L19.9742 34.3295C20.1873 34.2019 20.3377 33.999 20.3977 33.7586C20.4577 33.5185 20.4204 33.2688 20.2925 33.0557C20.0293 32.617 19.4577 32.4729 19.019 32.7371L14.4145 35.4995C14.1651 35.6492 13.8412 35.5687 13.6918 35.3191C13.5421 35.0697 13.6229 34.7461 13.8722 34.5964L18.4771 31.834L19.9725 30.9368C20.1856 30.8089 20.3364 30.606 20.3964 30.3662C20.4564 30.1258 20.4191 29.8758 20.2912 29.663C20.0276 29.224 19.456 29.0812 19.0177 29.3444L12.9174 33.004C12.6673 33.154 12.3444 33.0729 12.1947 32.8235C12.0449 32.5742 12.1261 32.2506 12.3751 32.1009L19.8621 27.6095C20.0751 27.4815 20.2255 27.279 20.2856 27.0386C20.3456 26.7984 20.3083 26.5488 20.1807 26.3357C20.053 26.123 19.8502 25.9725 19.6097 25.9125C19.368 25.8525 19.1193 25.8898 18.9069 26.0171L17.5209 26.8486C17.5206 26.8486 17.5206 26.8489 17.5202 26.8489H17.5199L11.4199 30.5085C11.1699 30.6589 10.8467 30.5777 10.6973 30.3281C10.5475 30.0787 10.6286 29.7551 10.8777 29.6054L16.978 25.9458C17.1911 25.8179 17.3418 25.615 17.4018 25.3752C17.4678 25.112 17.4176 24.8429 17.2613 24.6173C16.9902 24.2251 16.4103 24.1209 15.9707 24.385L6.64364 29.9804C6.43947 30.1025 6.17792 30.0728 6.00673 29.9075C5.83522 29.742 5.79662 29.4817 5.91206 29.2736L7.85152 25.7793C8.04613 25.43 8.03853 24.9986 7.83107 24.6529L7.83117 24.6527Z" fill="#103E13"/>
<path d="M44.3099 38.7207C43.3379 40.3418 41.7392 41.4514 39.808 41.8459C37.894 42.2361 35.881 41.8763 34.1388 40.8316L24.805 35.2324C24.3508 34.9599 24.0296 34.5272 23.9009 34.0133C23.7733 33.5004 23.8531 32.9677 24.1252 32.5138C24.2951 32.2302 24.5332 32.0065 24.8093 31.8413L24.8066 31.8396C24.3525 31.5672 24.0312 31.1344 23.9032 30.6212C23.7746 30.108 23.8544 29.5749 24.1269 29.1205C24.3023 28.8286 24.5428 28.6003 24.8172 28.4384C24.4188 28.1643 24.1318 27.7662 24.0137 27.2938C23.8851 26.7803 23.9649 26.2475 24.2374 25.7937C24.5095 25.3395 24.9426 25.0186 25.4558 24.8903C25.6161 24.8501 25.7787 24.8303 25.9397 24.8303C26.2557 24.8306 26.5657 24.9107 26.8507 25.0598C26.8682 24.6907 26.978 24.3283 27.1937 24.0172C27.7851 23.1639 28.9699 22.9278 29.8928 23.4815L37.5361 28.0663L36.5509 26.2917C36.1729 25.6142 36.1867 24.7784 36.5875 24.1102C36.7828 23.785 37.0618 23.5148 37.3953 23.3278C37.6694 23.1761 37.9662 23.1042 38.2591 23.1042C38.8881 23.1045 39.499 23.4363 39.8241 24.0238C40.9575 26.0658 43.0961 29.917 43.2465 30.1858C43.2785 30.2323 43.3751 30.3709 43.4579 30.4886C43.5367 30.6004 43.6218 30.7073 43.7099 30.8135C45.6184 33.1269 45.8486 36.1565 44.3099 38.7207L44.3099 38.7207ZM42.8973 31.4848C42.7924 31.3578 42.6895 31.2282 42.5958 31.0946C42.3108 30.6902 42.3036 30.6796 42.2821 30.5738C41.949 30.0226 41.1363 28.5595 38.9023 24.5348C38.7064 24.1815 38.2611 24.0525 37.9066 24.2485C37.7321 24.3461 37.5919 24.4823 37.4897 24.6528C37.2825 24.9982 37.2746 25.4296 37.4702 25.7799L39.409 29.2732C39.5247 29.4817 39.4862 29.7416 39.315 29.9071C39.1441 30.0731 38.8829 30.1021 38.6777 29.98L29.3507 24.3847C28.911 24.1211 28.3315 24.2244 28.0597 24.6169C27.9034 24.8425 27.8536 25.1116 27.9189 25.3745C27.9789 25.6146 28.1296 25.8172 28.343 25.9451C28.3437 25.9455 28.344 25.9461 28.3447 25.9464L34.4431 29.605C34.6924 29.7547 34.7732 30.078 34.6235 30.3276C34.4737 30.5767 34.1508 30.6581 33.9008 30.5081L26.4139 26.0167C26.2014 25.8894 25.9514 25.8518 25.7113 25.9122C25.4705 25.9722 25.268 26.1226 25.1404 26.336C25.0124 26.5487 24.9754 26.7984 25.0348 27.0386C25.0948 27.2787 25.2456 27.4815 25.4587 27.6095L26.9156 28.4833L32.9453 32.1009C33.1946 32.2507 33.2754 32.5739 33.1257 32.8236C32.9759 33.0726 32.653 33.1538 32.403 33.004L26.3034 29.3445C25.8647 29.0806 25.2934 29.2237 25.0296 29.6631C24.9016 29.8762 24.8646 30.1259 24.924 30.366C24.984 30.6061 25.1348 30.8086 25.3482 30.9369L26.8437 31.8341L31.4478 34.5965C31.6972 34.7462 31.778 35.0694 31.6282 35.3191C31.4785 35.5682 31.1556 35.65 30.9056 35.4995L26.3014 32.7372C26.089 32.6098 25.84 32.5722 25.5985 32.6326C25.3584 32.6926 25.1552 32.843 25.0276 33.0558C24.8999 33.2688 24.8627 33.5189 24.922 33.7587C24.9821 33.9988 25.1328 34.2013 25.3462 34.3296L34.68 39.9289C36.1946 40.8376 37.9414 41.1522 39.5965 40.8144C41.2345 40.48 42.5875 39.5442 43.4061 38.1794C44.7291 35.9754 44.5388 33.4726 42.8979 31.4847L42.8973 31.4848Z" fill="#103E13"/>
</svg>
