<svg width="67" height="38" viewBox="0 0 67 38" fill="none" xmlns="http://www.w3.org/2000/svg">
<path d="M33.5035 0C28.516 0 24.4558 4.09735 24.4558 9.10606C24.4558 12.2746 26.0828 15.0723 28.5398 16.7031C25.5723 17.6953 23.0046 19.5498 21.1213 21.9758C20.08 21.1749 18.9166 20.5308 17.6624 20.0693C19.5643 18.6573 20.8072 16.3891 20.8072 13.8399C20.8072 9.5919 17.3715 6.11441 13.1493 6.11441C8.92703 6.11441 5.49139 9.5919 5.49139 13.8399C5.49139 16.3906 6.7353 18.6598 8.63883 20.0718C3.59923 21.9315 0 26.8004 0 32.5305V36.5556C0.000515816 36.8624 0.123256 37.1564 0.340885 37.3725C0.558512 37.5891 0.85299 37.7098 1.15984 37.7087H18.8193C18.8621 37.7134 18.9049 37.716 18.9477 37.7154H48.0602C48.103 37.716 48.1464 37.7134 48.1886 37.7087H65.8494C66.4843 37.7062 66.9984 37.191 67 36.5556V32.5305C67 26.8004 63.407 21.9315 58.37 20.0713C60.2735 18.6598 61.5174 16.3901 61.5174 13.8394C61.5174 9.59138 58.0818 6.11388 53.8596 6.11388C49.6374 6.11388 46.2017 9.59138 46.2017 13.8394C46.2017 16.3886 47.4451 18.6572 49.347 20.0688C48.0902 20.5314 46.9262 21.1775 45.8835 21.9805C44.0011 19.5529 41.4369 17.6959 38.4696 16.7031C40.9259 15.0723 42.5536 12.2746 42.5536 9.10606C42.5536 4.09735 38.4912 0 33.5038 0H33.5035ZM33.5035 2.31041C37.2337 2.31041 40.2408 5.33771 40.2408 9.10606C40.2408 12.845 37.2805 15.8428 33.5917 15.8909C33.5623 15.8909 33.5334 15.8867 33.5035 15.8867C33.4736 15.8867 33.4452 15.8909 33.4153 15.8909C29.7264 15.8434 26.7682 12.8451 26.7682 9.10606C26.7682 5.33718 29.7728 2.31041 33.503 2.31041H33.5035ZM13.1494 8.42468C16.1091 8.42468 18.4969 10.8269 18.4969 13.8398C18.4969 16.8325 16.14 19.2243 13.2082 19.2568C13.1886 19.2568 13.1695 19.2548 13.1494 19.2548C13.1298 19.2548 13.1107 19.2568 13.0906 19.2568C10.1587 19.2243 7.80185 16.8319 7.80185 13.8398C7.80185 10.827 10.1896 8.42468 13.1493 8.42468H13.1494ZM53.8589 8.42468C56.8186 8.42468 59.2063 10.8269 59.2063 13.8398C59.2063 16.8325 56.8495 19.2243 53.9176 19.2568C53.898 19.2568 53.8789 19.2548 53.8588 19.2548C53.8392 19.2548 53.8201 19.2568 53.8 19.2568C50.8682 19.2243 48.5113 16.8319 48.5113 13.8398C48.5113 10.827 50.8991 8.42468 53.8588 8.42468H53.8589ZM33.415 18.2012C33.4444 18.2017 33.4733 18.2053 33.5032 18.2053C33.5326 18.2053 33.5615 18.2012 33.5914 18.2012C40.9893 18.2486 46.9099 24.2201 46.9099 31.6953L46.9094 35.4043H20.0981V31.6953C20.0981 24.2194 26.017 18.2487 33.414 18.2012H33.415ZM13.061 21.5699C13.0904 21.5704 13.1192 21.574 13.1491 21.574C13.1791 21.574 13.2074 21.5699 13.2373 21.5699C15.7396 21.59 18.0232 22.4528 19.8415 23.8963C18.5404 26.1985 17.7879 28.8558 17.7879 31.6959V35.3962H2.30948V32.5303C2.30948 26.4551 7.08609 21.6173 13.0607 21.5693L13.061 21.5699ZM53.7704 21.5699C53.8003 21.5704 53.8287 21.574 53.8586 21.574C53.8885 21.574 53.9169 21.5699 53.9468 21.5699C59.9214 21.6173 64.698 26.4558 64.698 32.5309V35.3962H49.2116L49.2111 31.6959C49.2111 28.8574 48.4607 26.202 47.1621 23.9003C48.981 22.4548 51.2662 21.5899 53.7705 21.5699H53.7704Z" fill="#103E13"/>
</svg>
