<svg width="67" height="67" viewBox="0 0 67 67" fill="none" xmlns="http://www.w3.org/2000/svg">
<path d="M39.5183 33.0039C39.1822 33.0039 38.8701 32.9115 38.5929 32.7628V32.7668C38.5929 33.2956 38.3874 33.7922 38.0145 34.1641C37.6416 34.537 37.1453 34.7426 36.6171 34.7426C36.2761 34.7426 35.9601 34.6479 35.6799 34.4953C35.6516 34.979 35.4582 35.4312 35.1133 35.7765C34.7404 36.1494 34.2441 36.355 33.7156 36.355C32.6655 36.355 31.8128 35.5295 31.7514 34.4949C31.4264 34.6705 31.0591 34.7626 30.6802 34.7383C29.6473 34.6705 28.8383 33.7781 28.8383 32.7059V23.8192L27.8264 25.5723C27.441 26.2428 26.7195 26.6591 25.9427 26.6591C25.5642 26.6591 25.1903 26.5598 24.8591 26.3701C24.4468 26.131 24.1518 25.7472 24.0291 25.2881C23.9058 24.8287 23.9696 24.3482 24.208 23.9365C24.2083 23.9365 27.5189 18.2035 27.7209 17.8514C27.7449 17.7984 27.8133 17.6448 27.8715 17.514C27.9271 17.389 27.9748 17.2607 28.0205 17.1318C29.0188 14.3133 31.4909 12.5624 34.4723 12.5624C38.3439 12.5624 41.4936 15.9779 41.4936 20.1761L41.494 31.0278C41.494 31.5559 41.2888 32.0522 40.9162 32.4255C40.5433 32.7984 40.047 33.0039 39.5182 33.0039L39.5183 33.0039ZM34.4723 13.6123C31.9105 13.6123 29.8687 15.0593 29.01 17.4829C28.9551 17.6368 28.8979 17.7907 28.8311 17.9407C28.6374 18.3751 28.6374 18.3751 28.5828 18.4376L28.5756 18.4314C28.3053 18.9414 27.5022 20.3321 25.117 24.4619C25.019 24.6313 24.9931 24.8279 25.0431 25.016C25.0937 25.2041 25.215 25.3626 25.3831 25.4597C25.9047 25.7592 26.619 25.5659 26.9162 25.0479L28.9088 21.5982C29.0278 21.3927 29.2685 21.2917 29.4994 21.3542C29.7289 21.4157 29.8884 21.6239 29.8884 21.8613V32.7062C29.8884 33.2179 30.2745 33.6596 30.7491 33.6908C31.0227 33.7053 31.2778 33.6135 31.4696 33.4221C31.6439 33.2478 31.7399 33.0157 31.7399 32.7674V25.6746C31.7399 25.3846 31.975 25.1495 32.2651 25.1495C32.5551 25.1495 32.7903 25.3843 32.7903 25.6746L32.7899 34.3796C32.7899 34.8899 33.2053 35.3053 33.7156 35.3053C33.9636 35.3053 34.1964 35.2093 34.3711 35.035C34.5454 34.8603 34.6414 34.6275 34.6414 34.3796V25.6746C34.6414 25.3846 34.8762 25.1494 35.1666 25.1494C35.4566 25.1494 35.6917 25.3843 35.6917 25.6746L35.6914 32.6858V32.7674C35.6914 33.2774 36.1068 33.6927 36.6175 33.6927C36.8651 33.6927 37.0973 33.5964 37.2729 33.4214C37.4472 33.2475 37.5432 33.0153 37.5432 32.767V25.6743C37.5432 25.3842 37.778 25.1491 38.0684 25.1491C38.3584 25.1491 38.5936 25.3839 38.5936 25.6743L38.5929 31.028C38.5929 31.5388 39.0082 31.9541 39.5183 31.9541C39.7666 31.9541 39.9987 31.8578 40.173 31.6838C40.348 31.5088 40.4437 31.276 40.4437 31.028L40.444 20.1764C40.444 16.5573 37.7652 13.6124 34.4723 13.6124L34.4723 13.6123Z" fill="#103E13"/>
<path d="M18.8844 40.5462L26.5052 35.9744C27.424 35.4226 28.6063 35.6571 29.1956 36.5085C29.4106 36.8186 29.5205 37.18 29.5376 37.548C29.8217 37.3997 30.1308 37.3191 30.4455 37.3191C30.6067 37.3191 30.7685 37.3392 30.9283 37.379C31.4403 37.5069 31.8718 37.8269 32.1431 38.2793C32.4147 38.7325 32.494 39.2636 32.3661 39.775C32.248 40.2482 31.9603 40.6465 31.56 40.9198C31.8399 41.0849 32.0813 41.3101 32.2529 41.5969C32.5246 42.0501 32.6038 42.5809 32.4762 43.0929C32.3483 43.6043 32.0283 44.0357 31.5752 44.3077L31.5726 44.3094C31.8475 44.4741 32.0846 44.6971 32.2543 44.9796C32.5262 45.4327 32.6055 45.9638 32.4776 46.4758C32.3493 46.9875 32.0293 47.419 31.5768 47.6906L22.2717 53.273C20.535 54.3145 18.5273 54.6739 16.6193 54.2842C14.6942 53.8909 13.0999 52.7844 12.1304 51.1683C10.5963 48.6115 10.8262 45.5906 12.7293 43.285C12.8164 43.1797 12.9023 43.0725 12.9802 42.9614C13.0627 42.844 13.1591 42.7058 13.192 42.6585C13.389 42.3066 16.6032 36.5155 16.6029 36.5161C16.9275 35.9304 17.5359 35.5989 18.1633 35.5993C18.456 35.5993 18.7529 35.6713 19.0269 35.8232C19.3577 36.008 19.6356 36.2774 19.83 36.6019C20.2295 37.2679 20.2437 38.1012 19.8674 38.7756L18.8844 40.5462ZM18.9301 37.1418C18.8281 36.9718 18.688 36.8363 18.5167 36.7403C18.1625 36.5443 17.7166 36.6719 17.5216 37.0248C15.2216 41.1683 14.4376 42.5804 14.135 43.0829L14.1419 43.0846C14.1166 43.1688 14.1166 43.1688 13.8397 43.5644C13.7457 43.6982 13.6434 43.8268 13.5391 43.9534C11.9027 45.9361 11.7127 48.4311 13.0304 50.6282C13.8466 51.989 15.1956 52.9219 16.829 53.2554C18.4802 53.5911 20.2205 53.2787 21.7309 52.3724L31.037 46.7898C31.2494 46.6626 31.3994 46.4603 31.4592 46.2206C31.5191 45.9812 31.4819 45.7322 31.3543 45.5198C31.0919 45.0824 30.522 44.9387 30.0846 45.2021L25.4938 47.9563C25.2452 48.1056 24.9222 48.0253 24.7733 47.7764C24.624 47.5278 24.7045 47.2052 24.9532 47.0559L29.5443 44.3017L31.0353 43.4072C31.2478 43.2796 31.3981 43.0774 31.4579 42.8383C31.5178 42.5986 31.4806 42.3493 31.353 42.1372C31.0902 41.6995 30.5203 41.5571 30.0833 41.8195L24.0011 45.4682C23.7519 45.6178 23.4299 45.5369 23.2806 45.2883C23.1313 45.0397 23.2122 44.7171 23.4605 44.5678L30.9252 40.0898C31.1376 39.9622 31.2876 39.7603 31.3474 39.5205C31.4073 39.2811 31.3701 39.0322 31.2428 38.8198C31.1156 38.6077 30.9133 38.4577 30.6736 38.3978C30.4325 38.338 30.1846 38.3751 29.9728 38.5021L28.591 39.3311C28.5906 39.3311 28.5906 39.3315 28.5903 39.3315H28.59L22.5081 42.9801C22.2589 43.1301 21.9366 43.0492 21.7876 42.8002C21.6383 42.5516 21.7192 42.229 21.9675 42.0797L28.0497 38.4311C28.2621 38.3035 28.4124 38.1012 28.4722 37.8621C28.538 37.5997 28.488 37.3314 28.3322 37.1064C28.0618 36.7154 27.4837 36.6115 27.0454 36.8749L17.7461 42.4536C17.5425 42.5753 17.2817 42.5457 17.1111 42.381C16.9401 42.2159 16.9016 41.9564 17.0167 41.7489L18.9504 38.265C19.1444 37.9167 19.1368 37.4866 18.93 37.142L18.9301 37.1418Z" fill="#103E13"/>
<path d="M55.3003 51.1679C54.3312 52.7842 52.7373 53.8905 50.8118 54.2838C48.9035 54.6729 46.8965 54.3141 45.1594 53.2726L35.8534 47.69C35.4006 47.4183 35.0803 46.9869 34.952 46.4745C34.8248 45.9631 34.9043 45.432 35.1756 44.9795C35.345 44.6967 35.5824 44.4737 35.8577 44.309L35.8551 44.3073C35.4022 44.0357 35.0819 43.6042 34.9543 43.0925C34.8261 42.5808 34.9057 42.0494 35.1773 41.5963C35.3522 41.3052 35.592 41.0777 35.8656 40.9162C35.4683 40.6429 35.1822 40.246 35.0645 39.775C34.9363 39.263 35.0158 38.7319 35.2875 38.2794C35.5588 37.8265 35.9906 37.5066 36.5023 37.3787C36.6621 37.3385 36.8242 37.3188 36.9847 37.3188C37.2998 37.3191 37.6089 37.399 37.893 37.5477C37.9104 37.1797 38.0199 36.8183 38.235 36.5082C38.8247 35.6574 40.0059 35.422 40.926 35.9741L48.5466 40.5452L47.5644 38.7759C47.1875 38.1004 47.2013 37.2671 47.6009 36.6009C47.7955 36.2766 48.0737 36.0073 48.4062 35.8208C48.6795 35.6695 48.9755 35.5979 49.2675 35.5979C49.8946 35.5982 50.5037 35.929 50.8279 36.5147C51.9578 38.5507 54.0901 42.3904 54.24 42.6584C54.2719 42.7048 54.3683 42.8429 54.4508 42.9603C54.5294 43.0718 54.6143 43.1784 54.7021 43.2843C56.6049 45.5908 56.8344 48.6113 55.3003 51.1679L55.3003 51.1679ZM53.8919 43.9535C53.7873 43.8269 53.6847 43.6977 53.5913 43.5645C53.3072 43.1613 53.2999 43.1508 53.2786 43.0452C52.9464 42.4957 52.1362 41.0369 49.9088 37.0242C49.7135 36.672 49.2695 36.5434 48.916 36.7387C48.742 36.8361 48.6023 36.9719 48.5003 37.1419C48.2938 37.4862 48.2859 37.9164 48.4809 38.2656L50.4139 41.7485C50.5294 41.9564 50.4909 42.2155 50.3202 42.3806C50.1499 42.546 49.8894 42.5749 49.6849 42.4533L40.3856 36.8745C39.9472 36.6118 39.3694 36.7147 39.0985 37.1061C38.9426 37.331 38.8929 37.5993 38.958 37.8614C39.0179 38.1008 39.1682 38.3028 39.3809 38.4304C39.3816 38.4307 39.3819 38.4313 39.3826 38.4317L45.4628 42.0793C45.7114 42.2286 45.792 42.5509 45.6427 42.7998C45.4934 43.0481 45.1714 43.1294 44.9222 42.9797L37.4575 38.5017C37.2457 38.3748 36.9964 38.3373 36.757 38.3975C36.517 38.4573 36.315 38.6073 36.1878 38.8201C36.0602 39.0322 36.0234 39.2811 36.0825 39.5205C36.1424 39.7599 36.2927 39.9622 36.5051 40.0898L37.9577 40.9609L43.9695 44.5678C44.2181 44.7171 44.2987 45.0394 44.1493 45.2884C44.0001 45.5366 43.6781 45.6176 43.4288 45.4682L37.3473 41.8196C36.91 41.5565 36.3404 41.6992 36.0773 42.1373C35.9497 42.3497 35.9129 42.5986 35.9721 42.838C36.0319 43.0775 36.1822 43.2794 36.395 43.4073L37.886 44.3018L42.4765 47.056C42.7251 47.2052 42.8056 47.5275 42.6563 47.7765C42.507 48.0248 42.1851 48.1063 41.9358 47.9564L37.3454 45.2022C37.1336 45.0752 36.8853 45.0378 36.6446 45.0979C36.4052 45.1578 36.2026 45.3077 36.0753 45.5199C35.9481 45.7323 35.9109 45.9816 35.9701 46.2206C36.0299 46.4601 36.1802 46.662 36.393 46.7899L45.699 52.3725C47.2092 53.2785 48.9507 53.5922 50.601 53.2554C52.234 52.922 53.583 51.989 54.3992 50.6282C55.7183 48.4308 55.5285 45.9355 53.8925 43.9535L53.8919 43.9535Z" fill="#103E13"/>
</svg>
