<svg width="67" height="67" viewBox="0 0 67 67" fill="none" xmlns="http://www.w3.org/2000/svg">
<path d="M37.5707 26.5359C37.1352 26.5359 36.7811 26.1824 36.7811 25.7463V24.4044C36.7811 23.9689 37.1346 23.6148 37.5707 23.6148C38.0063 23.6148 38.3603 23.9683 38.3603 24.4044V25.7463C38.3603 26.1824 38.0063 26.5359 37.5707 26.5359Z" fill="#103E13"/>
<path d="M34.2509 26.5359C33.8154 26.5359 33.4613 26.1824 33.4613 25.7463V24.4044C33.4613 23.9689 33.8148 23.6148 34.2509 23.6148C34.6864 23.6148 35.0405 23.9683 35.0405 24.4044V25.7463C35.0399 26.1824 34.687 26.5359 34.2509 26.5359Z" fill="#103E13"/>
<path d="M30.9316 26.5359C30.4961 26.5359 30.142 26.1824 30.142 25.7463V24.4044C30.142 23.9689 30.4955 23.6148 30.9316 23.6148C31.3671 23.6148 31.7212 23.9683 31.7212 24.4044V25.7463C31.7212 26.1824 31.3677 26.5359 30.9316 26.5359Z" fill="#103E13"/>
<path d="M37.5707 32.0231C37.1352 32.0231 36.7811 31.6697 36.7811 31.2336V29.8923C36.7811 29.4567 37.1346 29.1027 37.5707 29.1027C38.0063 29.1027 38.3603 29.4562 38.3603 29.8923V31.2336C38.3603 31.6697 38.0063 32.0231 37.5707 32.0231Z" fill="#103E13"/>
<path d="M34.2509 32.0231C33.8154 32.0231 33.4613 31.6697 33.4613 31.2336V29.8923C33.4613 29.4567 33.8148 29.1027 34.2509 29.1027C34.6864 29.1027 35.0405 29.4562 35.0405 29.8923V31.2336C35.0399 31.6697 34.687 32.0231 34.2509 32.0231Z" fill="#103E13"/>
<path d="M30.9316 32.0231C30.4961 32.0231 30.142 31.6697 30.142 31.2336V29.8923C30.142 29.4567 30.4955 29.1027 30.9316 29.1027C31.3671 29.1027 31.7212 29.4562 31.7212 29.8923V31.2336C31.7212 31.6697 31.3677 32.0231 30.9316 32.0231Z" fill="#103E13"/>
<path d="M37.5707 37.5106C37.1352 37.5106 36.7811 37.1571 36.7811 36.721V35.3791C36.7811 34.9436 37.1346 34.5896 37.5707 34.5896C38.0063 34.5896 38.3603 34.943 38.3603 35.3791V36.721C38.3603 37.1571 38.0063 37.5106 37.5707 37.5106Z" fill="#103E13"/>
<path d="M34.2509 37.5106C33.8154 37.5106 33.4613 37.1571 33.4613 36.721V35.3791C33.4613 34.9436 33.8148 34.5896 34.2509 34.5896C34.6864 34.5896 35.0405 34.943 35.0405 35.3791V36.721C35.0399 37.1571 34.687 37.5106 34.2509 37.5106Z" fill="#103E13"/>
<path d="M30.9316 37.5106C30.4961 37.5106 30.142 37.1571 30.142 36.721V35.3791C30.142 34.9436 30.4955 34.5896 30.9316 34.5896C31.3671 34.5896 31.7212 34.943 31.7212 35.3791V36.721C31.7212 37.1571 31.3677 37.5106 30.9316 37.5106Z" fill="#103E13"/>
<path d="M37.5707 42.9968C37.1352 42.9968 36.7811 42.6433 36.7811 42.2072V40.8654C36.7811 40.4299 37.1346 40.0758 37.5707 40.0758C38.0063 40.0758 38.3603 40.4293 38.3603 40.8654V42.2072C38.3603 42.6433 38.0063 42.9968 37.5707 42.9968Z" fill="#103E13"/>
<path d="M34.2509 42.9968C33.8154 42.9968 33.4613 42.6433 33.4613 42.2072V40.8654C33.4613 40.4299 33.8148 40.0758 34.2509 40.0758C34.6864 40.0758 35.0405 40.4293 35.0405 40.8654V42.2072C35.0399 42.6433 34.687 42.9968 34.2509 42.9968Z" fill="#103E13"/>
<path d="M30.9316 42.9968C30.4961 42.9968 30.142 42.6433 30.142 42.2072V40.8654C30.142 40.4299 30.4955 40.0758 30.9316 40.0758C31.3671 40.0758 31.7212 40.4293 31.7212 40.8654V42.2072C31.7212 42.6433 31.3677 42.9968 30.9316 42.9968Z" fill="#103E13"/>
<path d="M37.5707 48.4841C37.1352 48.4841 36.7811 48.1306 36.7811 47.6945V46.3532C36.7811 45.9177 37.1346 45.5636 37.5707 45.5636C38.0063 45.5636 38.3603 45.9171 38.3603 46.3532V47.6945C38.3603 48.13 38.0063 48.4841 37.5707 48.4841Z" fill="#103E13"/>
<path d="M34.2509 48.4841C33.8154 48.4841 33.4613 48.1306 33.4613 47.6945V46.3532C33.4613 45.9177 33.8148 45.5636 34.2509 45.5636C34.6864 45.5636 35.0405 45.9171 35.0405 46.3532V47.6945C35.0399 48.13 34.687 48.4841 34.2509 48.4841Z" fill="#103E13"/>
<path d="M30.9316 48.4841C30.4961 48.4841 30.142 48.1306 30.142 47.6945L30.1425 46.3532C30.1425 45.9177 30.496 45.5636 30.9321 45.5636C31.3677 45.5636 31.7217 45.9171 31.7217 46.3532V47.6945C31.7212 48.13 31.3677 48.4841 30.9316 48.4841Z" fill="#103E13"/>
<path d="M8.3756 53.9449C8.3756 54.3804 8.72909 54.7345 9.16519 54.7345H57.2484C57.684 54.7345 58.038 54.381 58.038 53.9449C58.038 53.5094 57.6845 53.1553 57.2484 53.1553H55.7888V30.4852C55.7888 30.0497 55.4353 29.6956 54.9993 29.6956L42.1077 29.6961V13.3522C42.1077 13.0758 41.9635 12.8203 41.7278 12.6771C41.4927 12.5334 41.1987 12.5246 40.9542 12.6518L26.2975 20.2828C26.036 20.4188 25.873 20.6886 25.873 20.9832V35.2593H11.6885C11.2529 35.2593 10.8989 35.6128 10.8989 36.0489V53.1554H9.16343C8.7279 53.1549 8.37494 53.5084 8.37494 53.9445L8.3756 53.9449ZM42.108 41.6547H54.2105V53.1559L42.108 53.1554V41.6547ZM42.108 36.1678H54.2105V40.0761L42.108 40.0756V36.1678ZM42.108 31.2745H54.2105V34.5898H42.108V31.2745ZM27.4513 21.4626L40.5283 14.6537V53.1547H27.4513V21.4626ZM16.3813 46.849C16.3813 45.2103 17.6796 43.8767 19.2758 43.8767C20.872 43.8767 22.1709 45.2098 22.1709 46.849V53.1557H16.3813V46.849ZM12.478 36.8382H25.8727V53.1554H23.7501V46.8487C23.7501 44.3395 21.7437 42.2979 19.2758 42.2979C16.8091 42.2979 14.8027 44.3389 14.8027 46.8487V53.1554H12.478V36.8382Z" fill="#103E13"/>
</svg>
