<svg width="616" height="603" viewBox="0 0 616 603" fill="none" xmlns="http://www.w3.org/2000/svg">
<path d="M307.441 530.577C439.128 530.577 545.881 524.345 545.881 516.656C545.881 508.968 439.128 502.735 307.441 502.735C175.755 502.735 69.0021 508.968 69.0021 516.656C69.0021 524.345 175.755 530.577 307.441 530.577Z" fill="#F5F5F5"/>
<path d="M429.496 205.759L417.296 200.84C417.296 200.84 401.199 230.195 396.587 231.683C390.315 233.7 377.329 239.307 369.631 240.291C368.585 241.521 366.876 245.345 367.036 246.735C377.378 250.191 400.104 245.604 404.974 241.988C416.054 233.786 429.496 205.759 429.496 205.759Z" fill="#E58A7B"/>
<path d="M433.246 199.082C435.521 207.481 423.199 224.378 423.199 224.378L407.052 215.327C407.052 215.327 410.078 208.379 413.767 201.307C419.682 189.883 430.652 189.502 433.246 199.082Z" fill="#4CAF4F"/>
<path opacity="0.2" d="M433.246 199.082C435.521 207.481 423.199 224.378 423.199 224.378L407.052 215.327C407.052 215.327 410.078 208.379 413.767 201.307C419.682 189.883 430.652 189.502 433.246 199.082Z" fill="black"/>
<path opacity="0.2" d="M413.46 218.942L419.818 222.509L420.937 202.992C417.235 205.833 414.628 214.392 413.46 218.942Z" fill="black"/>
<path d="M422.621 192.761C422.621 192.761 410.053 220.726 417.383 272.794H466.905C467.692 265.194 465.085 228.104 474.517 192.293C469.085 191.232 463.588 190.529 458.063 190.19C451.055 189.784 444.03 189.784 437.022 190.19C432.164 190.684 427.35 191.543 422.621 192.761Z" fill="#4CAF4F"/>
<path opacity="0.2" d="M422.621 192.761C422.621 192.761 410.053 220.726 417.383 272.794H466.905C467.692 265.194 465.085 228.104 474.517 192.293C469.085 191.232 463.588 190.529 458.063 190.19C451.055 189.784 444.03 189.784 437.022 190.19C432.164 190.684 427.35 191.543 422.621 192.761Z" fill="black"/>
<g style="mix-blend-mode:multiply">
<path d="M411.135 517.763C411.062 519.091 429.84 520.161 453.07 520.161C476.301 520.161 495.214 519.091 495.288 517.763C495.362 516.435 476.596 515.377 453.353 515.377C430.111 515.377 411.221 516.447 411.135 517.763Z" fill="#E8ECF1"/>
</g>
<path d="M444.192 482.866L435.409 486.266L442.975 505.811L451.758 502.411L444.192 482.866Z" fill="#E58A7B"/>
<path d="M483.359 508.306H474.099L470.705 486.872H479.965L483.359 508.306Z" fill="#E58A7B"/>
<path d="M473.46 507.236H483.864C484.044 507.237 484.219 507.302 484.356 507.419C484.493 507.536 484.585 507.698 484.614 507.876L485.954 516.103C485.982 516.309 485.966 516.52 485.906 516.719C485.846 516.918 485.743 517.103 485.606 517.259C485.468 517.415 485.298 517.54 485.108 517.625C484.918 517.71 484.711 517.753 484.503 517.751C480.875 517.689 479.129 517.468 474.554 517.468C471.738 517.468 465.946 517.763 462.035 517.763C458.125 517.763 457.866 513.926 459.477 513.57C466.708 512.008 469.512 509.88 471.923 507.814C472.348 507.441 472.894 507.236 473.46 507.236Z" fill="#263238"/>
<path d="M442.716 504.064L452.554 501.186C452.729 501.136 452.917 501.149 453.084 501.22C453.252 501.292 453.39 501.419 453.476 501.58L457.165 508.958C457.251 509.145 457.295 509.349 457.294 509.555C457.293 509.761 457.246 509.964 457.159 510.15C457.071 510.336 456.943 510.501 456.785 510.633C456.627 510.765 456.442 510.86 456.243 510.913C452.665 511.897 450.266 512.5 445.79 513.803C442.703 514.701 439.555 516.165 436.505 517.136C434.39 517.812 429.422 517.837 426.852 517.837C423.052 517.837 422.203 513.828 423.839 513.644C427.959 513.188 428.512 513.398 430.787 512.254C434.51 510.627 437.883 508.297 440.723 505.392C441.259 504.781 441.946 504.323 442.716 504.064Z" fill="#263238"/>
<path d="M371.18 240.242L360.998 235.975L356.804 247.264C360.978 247.9 365.223 247.9 369.397 247.264L371.18 240.242Z" fill="#E58A7B"/>
<path d="M353.422 235.68L353.152 243.181L356.804 247.239L360.998 235.95L353.422 235.68Z" fill="#E58A7B"/>
<path d="M445.397 484.526L436.586 487.927L440.488 498.034L449.299 494.633L445.397 484.526Z" fill="#CF6F64"/>
<path d="M479.965 486.872H470.705L472.464 497.927H481.724L479.965 486.872Z" fill="#CF6F64"/>
<path opacity="0.2" d="M415.808 258.713C415.993 260.939 416.202 263.214 416.472 265.55L453.292 253.597C459.041 251.893 464.039 248.28 467.458 243.353C467.606 240.07 467.791 236.614 468.073 233.011C468.196 231.265 468.344 229.469 468.504 227.649C468.664 225.829 468.885 223.812 469.119 221.869L415.808 258.713Z" fill="black"/>
<path d="M427.835 218.377L426.606 218.229C427.331 212.08 431.918 207.235 436.751 207.358V208.588C432.521 208.502 428.487 212.867 427.835 218.377Z" fill="white"/>
<path d="M434.39 229.727H434.181V228.498C438.411 228.657 442.384 224.243 443.035 218.746L444.265 218.893C443.613 224.907 439.174 229.727 434.39 229.727Z" fill="white"/>
<path d="M457.375 166.493C455.641 173.269 453.599 185.677 458.063 190.19C458.063 190.19 454.94 197.065 442.359 197.065C430.861 197.065 437.022 190.19 437.022 190.19C444.671 188.395 444.806 182.812 443.798 177.524L457.375 166.493Z" fill="#E58A7B"/>
<path d="M451.841 170.994L443.81 177.524C444.059 178.739 444.203 179.973 444.241 181.213C446.589 183.55 451.299 177.635 451.779 174.609C452.023 173.418 452.044 172.192 451.841 170.994Z" fill="#CF6F64"/>
<path d="M430 166.407C430.559 167.375 431.311 168.218 432.211 168.882C433.11 169.547 434.137 170.019 435.227 170.268C438.178 170.92 439.654 168.202 438.842 165.472C438.116 163.013 435.694 159.704 432.693 160.27C432.05 160.403 431.449 160.687 430.939 161.1C430.428 161.513 430.024 162.042 429.761 162.642C429.497 163.243 429.381 163.899 429.423 164.554C429.464 165.209 429.662 165.844 430 166.407Z" fill="#CF6F64"/>
<path d="M434.882 144.726C430.283 146.829 428.66 165.103 434.439 167.809C440.219 170.514 443.589 140.729 434.882 144.726Z" fill="#263238"/>
<path d="M458.776 156.298C457.67 165.472 457.547 170.871 452.628 175.569C451.103 177.127 449.178 178.235 447.064 178.768C444.95 179.302 442.729 179.241 440.648 178.592C438.566 177.943 436.705 176.732 435.268 175.091C433.832 173.451 432.877 171.446 432.509 169.297C431.021 161.057 433.074 147.444 442.273 143.791C444.206 142.939 446.331 142.619 448.429 142.864C450.527 143.11 452.521 143.912 454.205 145.188C455.889 146.464 457.2 148.167 458.004 150.12C458.808 152.074 459.074 154.207 458.776 156.298Z" fill="#E58A7B"/>
<path d="M443.663 149.473C450.475 147.739 455.481 146.558 453.685 152.228C451.312 159.803 448.459 167.132 452.283 167.464C454.62 167.673 464.95 163.295 463.634 158.856C462.49 154.995 467.323 153.937 468.184 151.982C471.369 144.898 462.257 145.833 463.88 141.529C465.503 137.224 456.501 130.289 451.582 133.744C443.576 139.327 429.84 139.241 437.059 130.055C442.236 123.5 433.001 124.841 433.001 124.841C433.001 124.841 438.584 128.149 429.188 133.265C419.252 138.725 428.364 153.396 443.663 149.473Z" fill="#263238"/>
<path d="M462.392 166.407C461.047 168.353 459.026 169.729 456.723 170.268C453.685 170.92 452.517 168.202 453.661 165.472C454.681 163.013 457.485 159.704 460.387 160.27C463.29 160.836 463.954 163.996 462.392 166.407Z" fill="#E58A7B"/>
<path d="M417.382 272.794C417.382 272.794 409.069 347.195 408.417 375.43C407.753 404.797 436.591 496.427 436.591 496.427L451.349 490.278C451.349 490.278 434.132 406.556 436.591 377.718C439.198 346.272 449.971 272.843 449.971 272.843L417.382 272.794Z" fill="#4CAF4F"/>
<path opacity="0.2" d="M438.043 293.22C431.414 306.969 435.878 334.159 439.469 350.269C440.834 338.894 442.457 326.547 443.995 315.122C443.847 297.561 442.482 283.997 438.043 293.22Z" fill="black"/>
<path d="M450.697 485.408C450.771 485.408 452.443 490.106 452.443 490.106L435.423 497.263L432.742 492.27L450.697 485.408Z" fill="#4CAF4F"/>
<path d="M434.956 272.794C434.956 272.794 441.314 343.555 445.52 370.056C450.143 399.091 468.27 495.787 468.27 495.787H485.229C485.229 495.787 475.071 401.44 473.152 372.688C471.062 341.501 466.905 272.794 466.905 272.794H434.956Z" fill="#4CAF4F"/>
<path d="M485.487 491.372C485.561 491.372 486.053 496.107 486.053 496.107H467.409L466.081 490.671L485.487 491.372Z" fill="#4CAF4F"/>
<path opacity="0.2" d="M478.994 485.765C478.955 485.765 478.918 485.752 478.889 485.727C478.859 485.702 478.84 485.667 478.834 485.629C478.736 484.769 469.574 399.546 467.852 373.721C465.983 345.707 462.22 283.567 462.183 282.939C462.181 282.919 462.184 282.899 462.19 282.879C462.197 282.86 462.208 282.842 462.222 282.827C462.235 282.812 462.252 282.8 462.271 282.792C462.29 282.784 462.31 282.779 462.33 282.78C462.371 282.779 462.41 282.795 462.439 282.822C462.469 282.849 462.487 282.887 462.49 282.927C462.49 283.554 466.29 345.645 468.16 373.708C469.881 399.534 479.043 484.695 479.129 485.617C479.133 485.637 479.132 485.658 479.127 485.678C479.122 485.698 479.112 485.717 479.1 485.733C479.087 485.749 479.071 485.763 479.053 485.773C479.034 485.782 479.014 485.788 478.994 485.789V485.765Z" fill="black"/>
<path d="M444.708 158.856C444.708 159.606 444.241 160.209 443.749 160.209C443.257 160.209 442.9 159.606 442.949 158.856C442.999 158.106 443.417 157.503 443.909 157.503C444.401 157.503 444.757 158.118 444.708 158.856Z" fill="#263238"/>
<path d="M436.272 158.856C436.272 159.606 435.792 160.209 435.312 160.209C434.833 160.209 434.464 159.606 434.501 158.856C434.538 158.106 434.98 157.503 435.472 157.503C435.964 157.503 436.321 158.118 436.272 158.856Z" fill="#263238"/>
<path d="M438.928 159.237C437.902 161.528 436.578 163.674 434.993 165.62C436.223 166.849 438.522 166.284 438.522 166.284L438.928 159.237Z" fill="#DF5753"/>
<path d="M439.149 169.42C439.121 169.42 439.093 169.414 439.066 169.403C439.04 169.391 439.017 169.375 438.997 169.354C438.977 169.333 438.962 169.309 438.952 169.282C438.943 169.255 438.939 169.227 438.94 169.198C438.943 169.139 438.969 169.082 439.013 169.041C439.056 169 439.114 168.977 439.174 168.977C440.114 168.984 441.045 168.779 441.896 168.379C442.747 167.979 443.498 167.393 444.093 166.665C444.136 166.628 444.19 166.607 444.247 166.607C444.303 166.607 444.358 166.628 444.4 166.665C444.44 166.706 444.462 166.761 444.462 166.819C444.462 166.876 444.44 166.931 444.4 166.972C443.763 167.747 442.961 168.368 442.052 168.792C441.144 169.215 440.152 169.43 439.149 169.42Z" fill="#263238"/>
<path d="M446.208 156.593C446.149 156.624 446.084 156.639 446.018 156.639C445.951 156.639 445.886 156.624 445.827 156.593C445.367 156.296 444.843 156.111 444.299 156.053C443.754 155.996 443.203 156.067 442.691 156.261C442.641 156.286 442.587 156.301 442.531 156.305C442.475 156.308 442.42 156.301 442.367 156.282C442.314 156.264 442.266 156.235 442.224 156.198C442.183 156.16 442.149 156.115 442.125 156.064C442.08 155.955 442.079 155.832 442.122 155.722C442.166 155.612 442.251 155.523 442.359 155.474C443.002 155.212 443.699 155.108 444.39 155.172C445.082 155.236 445.748 155.467 446.331 155.843C446.378 155.875 446.419 155.916 446.45 155.964C446.481 156.012 446.502 156.065 446.513 156.121C446.523 156.177 446.522 156.235 446.51 156.291C446.498 156.346 446.475 156.399 446.442 156.446C446.38 156.516 446.299 156.567 446.208 156.593Z" fill="#263238"/>
<path d="M433.013 154.134C432.947 154.118 432.888 154.084 432.841 154.035C432.8 153.995 432.767 153.947 432.745 153.895C432.723 153.842 432.711 153.785 432.711 153.728C432.711 153.671 432.723 153.614 432.745 153.561C432.767 153.508 432.8 153.46 432.841 153.42C433.312 152.892 433.899 152.479 434.556 152.215C435.213 151.95 435.922 151.841 436.628 151.895C436.685 151.904 436.739 151.924 436.788 151.955C436.836 151.986 436.878 152.026 436.91 152.073C436.942 152.12 436.964 152.174 436.975 152.23C436.986 152.286 436.985 152.344 436.973 152.4C436.946 152.514 436.879 152.614 436.784 152.682C436.689 152.75 436.572 152.781 436.456 152.769C435.897 152.733 435.338 152.826 434.82 153.039C434.302 153.252 433.84 153.58 433.468 153.998C433.412 154.061 433.34 154.106 433.259 154.13C433.179 154.154 433.094 154.155 433.013 154.134Z" fill="#263238"/>
<path d="M479.277 204.394L466.487 200.988C466.487 200.988 453.943 231.867 449.504 233.872C443.478 236.626 428.217 246.169 421.724 250.683C421.367 252.22 421.65 256.29 422.461 257.409C433.529 255.393 454.718 247.239 459.145 243.095C469.242 233.638 479.277 204.394 479.277 204.394Z" fill="#E58A7B"/>
<path d="M470.349 508.86C469.724 508.909 469.103 508.74 468.59 508.38C468.432 508.237 468.313 508.055 468.246 507.853C468.179 507.65 468.166 507.433 468.209 507.224C468.216 507.093 468.259 506.967 468.333 506.859C468.407 506.751 468.508 506.665 468.627 506.609C469.66 506.08 472.55 507.913 472.882 508.122C472.918 508.144 472.946 508.178 472.962 508.218C472.978 508.258 472.98 508.302 472.968 508.343C472.957 508.386 472.936 508.426 472.906 508.458C472.876 508.49 472.838 508.514 472.796 508.528C471.994 508.725 471.174 508.836 470.349 508.86ZM469.119 506.941C469.026 506.921 468.929 506.921 468.836 506.941C468.789 506.965 468.75 507.002 468.723 507.048C468.697 507.094 468.685 507.147 468.688 507.2C468.656 507.343 468.661 507.492 468.704 507.632C468.747 507.773 468.827 507.899 468.934 507.999C469.414 508.429 470.619 508.479 472.205 508.171C471.261 507.549 470.197 507.13 469.082 506.941H469.119Z" fill="#4CAF4F"/>
<path d="M472.734 508.528C472.702 508.538 472.668 508.538 472.636 508.528C471.714 508.011 469.98 505.982 470.238 504.949C470.276 504.785 470.369 504.639 470.501 504.534C470.632 504.43 470.795 504.372 470.963 504.371C471.128 504.349 471.296 504.363 471.456 504.412C471.615 504.46 471.761 504.543 471.886 504.654C472.906 505.527 472.968 508.208 472.968 508.343C472.974 508.384 472.966 508.425 472.946 508.46C472.926 508.496 472.895 508.524 472.857 508.54C472.816 508.548 472.773 508.544 472.734 508.528ZM471.086 504.777H471C470.717 504.777 470.681 504.937 470.668 504.998C470.521 505.601 471.615 507.138 472.525 507.864C472.521 506.825 472.199 505.812 471.603 504.961C471.46 504.837 471.276 504.771 471.086 504.777Z" fill="#4CAF4F"/>
<path d="M437.698 507.323C436.946 507.585 436.127 507.585 435.374 507.323C435.203 507.23 435.058 507.096 434.953 506.932C434.848 506.769 434.785 506.582 434.771 506.388C434.756 506.266 434.771 506.143 434.817 506.029C434.862 505.915 434.935 505.814 435.03 505.736C436.014 504.851 440.035 505.736 440.49 505.908C440.533 505.919 440.571 505.945 440.598 505.981C440.625 506.017 440.639 506.06 440.637 506.105C440.639 506.151 440.627 506.197 440.603 506.236C440.579 506.276 440.544 506.307 440.502 506.326C439.597 506.735 438.659 507.068 437.698 507.323ZM435.694 505.859C435.553 505.887 435.422 505.951 435.313 506.044C435.273 506.073 435.243 506.113 435.226 506.158C435.209 506.204 435.204 506.254 435.214 506.302C435.222 506.431 435.262 506.556 435.331 506.665C435.4 506.775 435.495 506.866 435.608 506.929C436.259 507.273 437.772 507.003 439.727 506.179C438.41 505.847 437.047 505.739 435.694 505.859Z" fill="#4CAF4F"/>
<path d="M440.465 506.326H440.367C439.137 506.105 436.677 504.691 436.604 503.633C436.604 503.387 436.714 503.043 437.305 502.846C437.504 502.775 437.716 502.745 437.927 502.758C438.138 502.77 438.345 502.826 438.534 502.92C439.863 503.572 440.564 505.933 440.6 506.044C440.609 506.081 440.608 506.12 440.597 506.156C440.586 506.193 440.566 506.226 440.539 506.253C440.521 506.283 440.495 506.308 440.465 506.326ZM437.551 503.215H437.428C437.046 503.35 437.046 503.51 437.046 503.559C437.046 504.199 438.83 505.367 440.072 505.761C439.786 504.773 439.18 503.908 438.35 503.301C438.103 503.176 437.819 503.145 437.551 503.215Z" fill="#4CAF4F"/>
<path d="M422.769 249.957L409.942 255.86L408.454 259.549L413.189 262.734C413.189 262.734 422.043 261.775 424.564 256.081L422.769 249.957Z" fill="#E58A7B"/>
<path d="M423.31 257.619C423.023 255.154 422.21 252.78 420.924 250.658L422.953 249.133C424.48 251.578 425.453 254.327 425.806 257.188L423.31 257.619Z" fill="#263238"/>
<path d="M425.499 251.703C425.77 252.13 425.903 252.63 425.88 253.134C425.858 253.639 425.68 254.125 425.371 254.525C425.062 254.925 424.638 255.221 424.155 255.371C423.673 255.522 423.156 255.52 422.675 255.366C422.193 255.212 421.771 254.913 421.465 254.511C421.159 254.109 420.985 253.622 420.966 253.117C420.946 252.612 421.083 252.113 421.357 251.689C421.632 251.264 422.03 250.934 422.498 250.744C423.024 250.476 423.634 250.427 424.196 250.606C424.758 250.786 425.226 251.18 425.499 251.703Z" fill="#263238"/>
<path d="M401.273 260.631L402.982 262.353L414.493 257.434L409.942 255.86L401.273 260.631Z" fill="#E58A7B"/>
<path opacity="0.2" d="M450.697 485.408C450.771 485.408 452.443 490.106 452.443 490.106L435.423 497.263L432.742 492.27L450.697 485.408Z" fill="black"/>
<path opacity="0.2" d="M485.487 491.372C485.561 491.372 486.053 496.107 486.053 496.107H467.409L466.081 490.671L485.487 491.372Z" fill="black"/>
<path d="M482.609 200.853C485.991 211.761 472.771 226.678 472.771 226.678L454.509 219.225C456.674 212.92 459.17 206.734 461.986 200.693C467.594 188.604 479.191 189.846 482.609 200.853Z" fill="#4CAF4F"/>
<path opacity="0.2" d="M482.609 200.853C485.991 211.761 472.771 226.678 472.771 226.678L454.509 219.225C456.674 212.92 459.17 206.734 461.986 200.693C467.594 188.604 479.191 189.846 482.609 200.853Z" fill="black"/>
<path d="M301.145 91.5632H293.287V92.8298H301.145V91.5632Z" fill="#4CAF4F"/>
<path d="M402.869 141.696L401.918 162.802L403.183 162.859L404.135 141.753L402.869 141.696Z" fill="#4CAF4F"/>
<path d="M400.424 97.2447H255.312L241.809 399.423H386.921L400.424 97.2447Z" fill="#4CAF4F"/>
<path opacity="0.56" d="M396.095 101.401H250.983L237.48 403.579H382.593L396.095 101.401Z" fill="#FAFAFA"/>
<path opacity="0.07" d="M391.767 105.546H246.654L233.139 407.724H378.251L391.767 105.546Z" fill="#4CAF4F"/>
<path d="M375.251 237.34H251.389L250.356 260.459H374.218L375.251 237.34Z" fill="white"/>
<path d="M319.506 220.467H252.139L251.684 230.81H319.051L319.506 220.467Z" fill="#4CAF4F"/>
<path d="M372.459 299.738H248.597L247.564 322.858H371.426L372.459 299.738Z" fill="white"/>
<path opacity="0.47" d="M349.746 354.081H266.454L265.211 381.788H348.504L349.746 354.081Z" fill="#4CAF4F"/>
<path d="M344.175 386.092H260.883C260.846 386.101 260.808 386.101 260.772 386.092C260.76 386.056 260.76 386.017 260.772 385.981L262.002 358.263C262.002 358.244 262.006 358.225 262.013 358.208C262.021 358.19 262.032 358.175 262.046 358.162C262.06 358.149 262.076 358.14 262.094 358.134C262.112 358.128 262.131 358.126 262.149 358.127H345.441C345.457 358.12 345.474 358.116 345.491 358.116C345.508 358.116 345.525 358.12 345.54 358.127C345.549 358.142 345.553 358.159 345.553 358.176C345.553 358.194 345.549 358.211 345.54 358.226L344.335 386.006C344.32 386.035 344.297 386.059 344.268 386.074C344.24 386.089 344.207 386.096 344.175 386.092ZM261.03 385.797H344.027L345.257 358.373H262.26L261.03 385.797Z" fill="white"/>
<path d="M304.958 282.866H249.348L248.892 293.22H304.49L304.958 282.866Z" fill="#4CAF4F"/>
<path d="M348.159 162.656C347.841 169.384 345.448 175.85 341.309 181.164C338.245 185.178 334.302 188.437 329.783 190.69C325.264 192.943 320.288 194.131 315.238 194.162C311.157 194.194 307.114 193.389 303.356 191.798C299.598 190.207 296.205 187.864 293.387 184.912C290.569 181.96 288.385 178.463 286.97 174.635C285.555 170.808 284.938 166.731 285.158 162.656C285.591 154.2 289.237 146.229 295.352 140.372C301.467 134.516 309.588 131.217 318.054 131.149C322.138 131.111 326.187 131.911 329.949 133.499C333.712 135.087 337.109 137.43 339.93 140.383C342.751 143.336 344.937 146.836 346.353 150.667C347.768 154.498 348.383 158.578 348.159 162.656Z" fill="white"/>
<path d="M351.123 137.741C351.043 139.53 350.407 141.249 349.303 142.66C348.486 143.726 347.437 144.592 346.235 145.19C345.033 145.789 343.71 146.106 342.367 146.116C341.066 146.123 339.783 145.813 338.629 145.21C337.476 144.608 336.488 143.732 335.751 142.66C334.775 141.211 334.292 139.486 334.374 137.741C334.492 135.496 335.463 133.381 337.088 131.827C338.713 130.273 340.869 129.397 343.117 129.378C344.202 129.369 345.277 129.581 346.276 130.002C347.276 130.424 348.178 131.045 348.928 131.829C349.678 132.612 350.26 133.541 350.637 134.558C351.015 135.574 351.18 136.658 351.123 137.741Z" fill="#4CAF4F"/>
<path d="M264.732 248.899C264.673 249.89 264.24 250.822 263.521 251.507C262.802 252.191 261.851 252.578 260.858 252.589C260.379 252.594 259.903 252.502 259.461 252.316C259.019 252.131 258.62 251.857 258.288 251.511C257.956 251.166 257.698 250.755 257.531 250.306C257.364 249.857 257.291 249.378 257.316 248.899C257.37 247.906 257.8 246.971 258.52 246.285C259.241 245.6 260.196 245.215 261.19 245.21C261.669 245.206 262.143 245.3 262.585 245.486C263.026 245.672 263.424 245.946 263.756 246.291C264.088 246.637 264.345 247.046 264.513 247.495C264.681 247.943 264.755 248.421 264.732 248.899Z" fill="#263238"/>
<path d="M281.309 248.899C281.253 249.891 280.821 250.825 280.102 251.51C279.382 252.195 278.429 252.581 277.435 252.589C276.957 252.593 276.483 252.499 276.042 252.313C275.602 252.127 275.204 251.852 274.873 251.507C274.543 251.161 274.286 250.752 274.12 250.303C273.953 249.855 273.881 249.377 273.906 248.899C273.959 247.908 274.388 246.975 275.106 246.29C275.823 245.604 276.775 245.218 277.767 245.21C278.247 245.204 278.722 245.297 279.164 245.482C279.606 245.668 280.005 245.942 280.337 246.287C280.669 246.633 280.927 247.043 281.094 247.493C281.261 247.942 281.334 248.421 281.309 248.899Z" fill="#263238"/>
<path d="M297.899 248.899C297.842 249.891 297.411 250.825 296.691 251.51C295.972 252.195 295.018 252.581 294.025 252.589C293.546 252.593 293.071 252.499 292.63 252.313C292.189 252.127 291.79 251.853 291.459 251.507C291.127 251.162 290.87 250.753 290.702 250.304C290.534 249.856 290.46 249.378 290.483 248.899C290.539 247.907 290.971 246.974 291.69 246.289C292.41 245.604 293.363 245.218 294.357 245.21C294.836 245.204 295.311 245.297 295.754 245.482C296.196 245.668 296.595 245.942 296.927 246.287C297.259 246.633 297.516 247.043 297.683 247.493C297.851 247.942 297.924 248.421 297.899 248.899Z" fill="#263238"/>
<path d="M261.94 311.298C261.881 312.289 261.449 313.22 260.73 313.905C260.011 314.59 259.059 314.976 258.067 314.987C257.588 314.991 257.113 314.897 256.672 314.711C256.231 314.525 255.832 314.251 255.501 313.906C255.169 313.56 254.911 313.151 254.744 312.702C254.576 312.254 254.501 311.776 254.525 311.298C254.581 310.306 255.013 309.372 255.732 308.687C256.452 308.002 257.405 307.616 258.399 307.608C258.877 307.604 259.352 307.698 259.793 307.884C260.234 308.07 260.633 308.344 260.965 308.69C261.296 309.035 261.554 309.445 261.722 309.893C261.889 310.341 261.964 310.819 261.94 311.298Z" fill="#263238"/>
<path d="M278.518 311.298C278.461 312.288 278.032 313.219 277.315 313.904C276.598 314.589 275.647 314.976 274.656 314.987C274.177 314.993 273.701 314.9 273.259 314.715C272.817 314.529 272.418 314.255 272.086 313.91C271.754 313.564 271.497 313.154 271.329 312.704C271.162 312.255 271.089 311.776 271.114 311.298C271.171 310.306 271.602 309.372 272.322 308.687C273.041 308.002 273.995 307.616 274.988 307.608C275.466 307.604 275.94 307.698 276.381 307.884C276.822 308.07 277.219 308.345 277.55 308.69C277.881 309.036 278.137 309.446 278.304 309.894C278.47 310.342 278.543 310.82 278.518 311.298Z" fill="#263238"/>
<path d="M295.144 311.298C295.088 312.29 294.656 313.223 293.936 313.908C293.217 314.594 292.264 314.979 291.27 314.987C290.792 314.989 290.318 314.894 289.878 314.708C289.437 314.521 289.039 314.247 288.708 313.902C288.377 313.557 288.119 313.148 287.951 312.7C287.782 312.253 287.707 311.776 287.728 311.298C287.787 310.307 288.22 309.375 288.939 308.69C289.658 308.006 290.609 307.619 291.602 307.609C292.081 307.603 292.557 307.695 292.999 307.881C293.441 308.066 293.84 308.34 294.172 308.686C294.504 309.032 294.762 309.442 294.929 309.891C295.096 310.34 295.169 310.819 295.144 311.298Z" fill="#263238"/>
<path d="M311.697 311.298C311.637 312.289 311.205 313.22 310.486 313.905C309.767 314.59 308.815 314.976 307.823 314.987C307.344 314.989 306.871 314.894 306.43 314.708C305.99 314.521 305.592 314.247 305.261 313.902C304.93 313.557 304.672 313.148 304.503 312.7C304.335 312.253 304.259 311.775 304.281 311.298C304.34 310.307 304.773 309.375 305.492 308.69C306.21 308.006 307.162 307.619 308.155 307.608C308.634 307.604 309.108 307.698 309.549 307.884C309.991 308.07 310.389 308.344 310.721 308.69C311.052 309.035 311.31 309.445 311.478 309.893C311.646 310.341 311.72 310.819 311.697 311.298Z" fill="#263238"/>
<path d="M328.348 311.298C328.289 312.289 327.856 313.22 327.137 313.905C326.418 314.59 325.467 314.976 324.474 314.987C323.995 314.993 323.519 314.9 323.077 314.715C322.635 314.529 322.236 314.255 321.904 313.91C321.572 313.564 321.314 313.154 321.147 312.704C320.98 312.255 320.907 311.776 320.932 311.298C320.988 310.306 321.42 309.372 322.14 308.687C322.859 308.002 323.812 307.616 324.806 307.608C325.285 307.604 325.759 307.698 326.201 307.884C326.642 308.07 327.04 308.344 327.372 308.69C327.704 309.035 327.961 309.445 328.129 309.893C328.297 310.341 328.371 310.819 328.348 311.298Z" fill="#263238"/>
<path d="M325.831 161.015C330.978 155.981 331.251 147.913 326.441 142.994C321.63 138.075 313.558 138.168 308.411 143.202C303.264 148.235 302.991 156.303 307.801 161.222C312.611 166.141 320.683 166.048 325.831 161.015Z" fill="#4CAF4F"/>
<path d="M341.309 181.164C338.245 185.178 334.302 188.437 329.783 190.69C325.264 192.943 320.288 194.131 315.238 194.163C310.342 194.204 305.51 193.04 301.169 190.773C296.828 188.506 293.112 185.206 290.348 181.164C296.325 175.212 305.781 171.326 316.259 171.326C326.737 171.326 335.862 175.212 341.309 181.164Z" fill="#4CAF4F"/>
<path opacity="0.1" d="M325.831 161.015C330.978 155.981 331.251 147.913 326.441 142.994C321.63 138.075 313.558 138.168 308.411 143.202C303.264 148.235 302.991 156.303 307.801 161.222C312.611 166.141 320.683 166.048 325.831 161.015Z" fill="white"/>
<path opacity="0.1" d="M341.309 181.164C338.245 185.178 334.302 188.437 329.783 190.69C325.264 192.943 320.288 194.131 315.238 194.163C310.342 194.204 305.51 193.04 301.169 190.773C296.828 188.506 293.112 185.206 290.348 181.164C296.325 175.212 305.781 171.326 316.259 171.326C326.737 171.326 335.862 175.212 341.309 181.164Z" fill="white"/>
<path d="M160.374 266.03C159.205 268.588 157.976 271.404 156.906 274.134C155.836 276.864 154.741 279.68 153.794 282.484C151.861 288.01 150.389 293.686 149.392 299.455L149.121 301.263C149.096 301.573 149.125 301.885 149.207 302.185C149.498 303.204 149.955 304.168 150.56 305.038C152.139 307.29 153.971 309.353 156.02 311.187C158.181 313.196 160.447 315.089 162.809 316.856C165.17 318.676 167.654 320.447 170.101 322.12L167.801 326.436C161.958 323.89 156.411 320.71 151.261 316.955C148.514 314.951 146.034 312.603 143.883 309.97C142.607 308.402 141.613 306.625 140.943 304.718C140.554 303.527 140.355 302.282 140.353 301.029C140.353 300.734 140.353 300.304 140.353 300.095V299.492L140.476 298.262C141.181 291.855 142.528 285.535 144.497 279.398C145.457 276.372 146.477 273.359 147.646 270.42C148.814 267.481 150.019 264.604 151.507 261.615L160.374 266.03Z" fill="#E58A7B"/>
<path d="M168.367 321.357L177.062 316.955L174.811 326.498C174.811 326.498 168.847 328.17 166.08 325.268L168.367 321.357Z" fill="#E58A7B"/>
<path d="M185.018 318.516L182.706 326.411L174.811 326.498L177.062 316.955L185.018 318.516Z" fill="#E58A7B"/>
<path d="M197.291 219.988C197.756 221.692 198.404 223.341 199.222 224.907C198.983 225.178 198.675 225.379 198.331 225.49C197.986 225.6 197.619 225.615 197.267 225.534L197.291 219.988Z" fill="#DF5753"/>
<path d="M197.033 220.061C197.542 220.061 197.955 219.428 197.955 218.647C197.955 217.866 197.542 217.233 197.033 217.233C196.524 217.233 196.111 217.866 196.111 218.647C196.111 219.428 196.524 220.061 197.033 220.061Z" fill="#263238"/>
<path d="M196.763 217.282L198.632 216.753C198.632 216.753 197.722 218.204 196.763 217.282Z" fill="#263238"/>
<path d="M173.274 229.014C174.393 234.732 175.512 245.222 171.503 249.047C171.503 249.047 173.077 254.851 183.715 254.851C195.41 254.851 189.298 249.047 189.298 249.047C182.915 247.522 183.075 242.787 184.194 238.336L173.274 229.014Z" fill="#E58A7B"/>
<path d="M170.163 215.979C170.753 225.534 170.802 229.592 175.623 234.499C182.891 241.877 194.5 239.074 196.775 229.58C198.829 220.971 197.525 206.804 188.166 203.004C186.112 202.158 183.876 201.85 181.669 202.109C179.463 202.368 177.359 203.186 175.556 204.484C173.754 205.783 172.313 207.521 171.369 209.532C170.425 211.543 170.01 213.762 170.163 215.979Z" fill="#E58A7B"/>
<path d="M171.11 205.23C166.314 206.977 159.919 205.673 162.427 220.467C165.084 236.134 161.001 241.287 161.001 241.287C161.001 241.287 179.189 245.161 197.759 241.053C197.759 241.053 192.089 231.142 193.676 223.837C195.705 214.613 194.106 211.207 194.106 211.207C194.106 211.207 177.849 202.771 171.11 205.23Z" fill="#263238"/>
<path d="M191.401 220.959C191.406 222.776 191.926 224.554 192.901 226.087C194.205 228.079 195.742 227.317 196.123 225.202C196.467 223.345 196.209 220.061 194.549 218.782C192.889 217.503 191.425 218.758 191.401 220.959Z" fill="#E58A7B"/>
<path d="M166.941 206.841C165.563 202.968 172.13 197.003 186.027 199.463C199.923 201.922 200.526 213.494 200.526 213.494L197.722 210.149L197.845 213.667L183.567 216.409L166.941 206.841Z" fill="#263238"/>
<path d="M168.121 249.699C168.039 249.137 168.18 248.566 168.513 248.106C168.846 247.647 169.345 247.336 169.904 247.239C174.233 246.526 184.071 245.075 189.015 245.764C192.704 246.28 193.663 248.42 193.823 250.178C193.848 250.486 193.807 250.796 193.703 251.087C193.598 251.377 193.432 251.642 193.217 251.864C193.001 252.085 192.741 252.258 192.453 252.37C192.165 252.482 191.857 252.532 191.548 252.515L170.175 251.556C169.671 251.53 169.191 251.332 168.817 250.993C168.443 250.655 168.197 250.198 168.121 249.699Z" fill="#4CAF4F"/>
<path opacity="0.6" d="M168.121 249.699C168.039 249.137 168.18 248.566 168.513 248.106C168.846 247.647 169.345 247.336 169.904 247.239C174.233 246.526 184.071 245.075 189.015 245.764C192.704 246.28 193.663 248.42 193.823 250.178C193.848 250.486 193.807 250.796 193.703 251.087C193.598 251.377 193.432 251.642 193.217 251.864C193.001 252.085 192.741 252.258 192.453 252.37C192.165 252.482 191.857 252.532 191.548 252.515L170.175 251.556C169.671 251.53 169.191 251.332 168.817 250.993C168.443 250.655 168.197 250.198 168.121 249.699Z" fill="black"/>
<path d="M180.48 464.539L188.412 470.048L201.682 452.057L193.75 446.56L180.48 464.539Z" fill="#E58A7B"/>
<path d="M161.985 464.182L170.359 468.954L182.104 449.929L173.729 445.158L161.985 464.182Z" fill="#E58A7B"/>
<path d="M201.669 452.057L194.832 461.329L186.9 455.832L193.737 446.56L201.669 452.057Z" fill="#CF6F64"/>
<path d="M173.717 445.158L182.104 449.941L176.053 459.743L167.666 454.959L173.717 445.158Z" fill="#CF6F64"/>
<path d="M187.17 309.76C187.17 309.76 218.136 348.781 212.319 386.104C207.634 416.246 180.456 457.062 180.456 457.062L167.679 450.716C176.685 432.67 184.371 413.994 190.675 394.836C192.62 388.888 193.187 382.576 192.335 376.376C191.483 370.177 189.233 364.252 185.756 359.049C170.064 336.139 144.928 349.777 161.837 309.76H187.17Z" fill="#4CAF4F"/>
<path opacity="0.6" d="M187.17 309.76C187.17 309.76 218.136 348.781 212.319 386.104C207.634 416.246 180.456 457.062 180.456 457.062L167.679 450.716C176.685 432.67 184.371 413.994 190.675 394.836C192.62 388.888 193.187 382.576 192.335 376.376C191.483 370.177 189.233 364.252 185.756 359.049C170.064 336.139 144.928 349.777 161.837 309.76H187.17Z" fill="black"/>
<path opacity="0.4" d="M202.358 334.823L197.857 330.347C197.857 330.703 206.576 384.53 209.023 399.656C210.467 395.238 211.573 390.716 212.331 386.129C215.209 367.818 209.195 349.113 202.358 334.823Z" fill="black"/>
<path d="M200.993 309.76C200.993 309.76 238.279 358.804 239.337 388.207C240.21 412.803 198.755 460.456 198.755 460.456L186.703 452.659C186.703 452.659 210.966 418.816 217.078 391.171C214.717 363.772 164.789 309.76 164.789 309.76H200.993Z" fill="#4CAF4F"/>
<path opacity="0.6" d="M200.993 309.76C200.993 309.76 238.279 358.804 239.337 388.207C240.21 412.803 198.755 460.456 198.755 460.456L186.703 452.659C186.703 452.659 210.966 418.816 217.078 391.171C214.717 363.772 164.789 309.76 164.789 309.76H200.993Z" fill="black"/>
<path d="M154.864 251.236C150.88 252.183 147.055 266.669 147.055 266.669L162.636 277.073C162.636 277.073 167.826 265.612 166.006 260.594C164.124 255.368 159.869 250.043 154.864 251.236Z" fill="#4CAF4F"/>
<path opacity="0.2" d="M157.914 260.57L156.832 273.199L162.624 277.086C164.224 273.485 165.408 269.714 166.154 265.845L157.914 260.57Z" fill="black"/>
<path d="M205.605 251.519C205.605 251.519 210.204 253.13 200.993 309.748H161.813C162.477 293.761 162.489 283.923 154.864 251.236C160.35 250.105 165.911 249.374 171.503 249.047C177.427 248.622 183.374 248.622 189.298 249.047C196.947 249.748 205.605 251.519 205.605 251.519Z" fill="#4CAF4F"/>
<path d="M209.589 260.57C210.474 263.029 211.409 265.673 212.393 268.219C213.377 270.765 214.311 273.384 215.307 275.967L218.32 283.689L219.083 285.62L219.476 286.579L219.661 287.059C219.661 287.145 219.661 287.145 219.661 287.133C219.436 286.816 219.142 286.555 218.8 286.37C218.313 286.084 217.765 285.92 217.201 285.891C216.733 285.876 216.267 285.964 215.836 286.149C215.271 286.407 215.271 286.518 215.283 286.506C215.385 286.424 215.476 286.329 215.553 286.223C216.234 285.329 216.823 284.369 217.312 283.357C217.89 282.226 218.443 281.021 218.997 279.803C220.079 277.344 221.075 274.798 222.071 272.228C223.067 269.658 224.014 267.063 224.937 264.444L227.74 256.598L232.475 257.828C231.54 263.435 230.335 268.895 228.884 274.454C228.183 277.221 227.359 279.963 226.425 282.73C225.957 284.12 225.441 285.497 224.85 286.911C224.235 288.446 223.478 289.92 222.588 291.314C222.261 291.783 221.899 292.227 221.505 292.642C220.877 293.32 220.115 293.861 219.267 294.229C218.515 294.552 217.7 294.703 216.882 294.671C215.965 294.637 215.072 294.371 214.287 293.897C213.36 293.318 212.591 292.52 212.049 291.572C211.864 291.253 211.704 290.933 211.594 290.699L211.36 290.232L210.893 289.273L209.958 287.366C208.728 284.809 207.498 282.226 206.429 279.631C205.359 277.036 204.227 274.405 203.17 271.761C202.112 269.117 201.165 266.473 200.267 263.62L209.589 260.57Z" fill="#E58A7B"/>
<path d="M205.605 251.519C210.315 252.638 215.615 266.559 215.615 266.559L201.608 278.475C201.608 278.475 192.545 263.3 194.377 258.295C196.283 253.08 199.456 250.055 205.605 251.519Z" fill="#4CAF4F"/>
<path d="M229.966 252.195L234.885 248.088L238.304 253.413L235.783 257.852C235.783 257.852 231.774 261.541 228.232 259.66C227.67 258.396 227.535 256.984 227.848 255.637C228.161 254.29 228.905 253.081 229.966 252.195Z" fill="#E58A7B"/>
<path d="M243.764 248.1L243.395 249.44L235.611 250.744L234.848 248.088L243.764 248.1Z" fill="#E58A7B"/>
<path d="M199.714 461.083L185.67 452.007L188.191 447.629L203.969 457.332L199.714 461.083Z" fill="#4CAF4F"/>
<path d="M175.856 468.314C174.624 468.164 173.44 467.744 172.388 467.084C172.345 467.069 172.307 467.041 172.281 467.004C172.254 466.966 172.24 466.921 172.24 466.875C172.24 466.829 172.254 466.785 172.281 466.747C172.307 466.71 172.345 466.681 172.388 466.666C172.77 466.543 176.078 465.523 177.037 466.31C177.145 466.399 177.227 466.516 177.274 466.648C177.322 466.78 177.333 466.922 177.308 467.06C177.29 467.281 177.217 467.495 177.094 467.68C176.972 467.865 176.804 468.015 176.607 468.117C176.376 468.243 176.119 468.311 175.856 468.314ZM173.089 466.961C174.627 467.749 175.856 468.031 176.447 467.736C176.575 467.665 176.683 467.562 176.761 467.437C176.838 467.312 176.883 467.17 176.889 467.023C176.889 466.826 176.889 466.74 176.779 466.691C176.262 466.273 174.418 466.593 173.065 466.961H173.089Z" fill="#263238"/>
<path d="M172.475 467.17C172.41 467.17 172.348 467.143 172.302 467.097C172.284 467.063 172.275 467.025 172.275 466.986C172.275 466.947 172.284 466.909 172.302 466.875C172.302 466.765 173.102 464.096 174.356 463.494C174.516 463.42 174.69 463.383 174.867 463.383C175.043 463.383 175.217 463.42 175.377 463.494C175.55 463.548 175.699 463.659 175.802 463.808C175.904 463.957 175.954 464.137 175.943 464.317C175.856 465.424 173.606 466.949 172.573 467.207L172.475 467.17ZM174.86 463.813C174.741 463.817 174.623 463.846 174.516 463.899C173.754 464.268 173.126 465.707 172.819 466.58C173.901 466.125 175.389 464.92 175.438 464.244C175.438 464.133 175.438 463.998 175.155 463.875C175.063 463.825 174.964 463.792 174.86 463.776V463.813Z" fill="#263238"/>
<path d="M193.405 473.627C192.016 473.627 190.085 471.844 189.027 470.749C189 470.712 188.986 470.666 188.986 470.62C188.986 470.574 189 470.529 189.027 470.491C189.052 470.451 189.086 470.419 189.127 470.397C189.168 470.376 189.215 470.366 189.261 470.368C189.753 470.368 194.02 471.007 194.623 472.213C194.687 472.321 194.72 472.444 194.72 472.569C194.72 472.695 194.687 472.818 194.623 472.926C194.532 473.114 194.396 473.275 194.226 473.396C194.056 473.516 193.858 473.591 193.651 473.615L193.405 473.627ZM189.839 470.921C191.388 472.422 192.754 473.258 193.528 473.16C193.664 473.142 193.793 473.091 193.905 473.012C194.016 472.932 194.107 472.827 194.168 472.705C194.195 472.662 194.21 472.613 194.21 472.563C194.21 472.513 194.195 472.464 194.168 472.422C193.848 471.758 191.573 471.192 189.839 470.921Z" fill="#263238"/>
<path d="M189.974 470.86C189.698 470.868 189.422 470.847 189.15 470.798C189.112 470.793 189.076 470.777 189.046 470.753C189.016 470.73 188.993 470.699 188.978 470.663C188.96 470.627 188.95 470.587 188.95 470.546C188.95 470.506 188.96 470.466 188.978 470.429C189.052 470.343 190.712 468.339 192.286 468.203C192.732 468.169 193.173 468.31 193.516 468.597C193.995 469.015 193.971 469.384 193.848 469.618C193.54 470.454 191.413 470.86 189.974 470.86ZM189.654 470.405C191.032 470.479 193.233 470.024 193.516 469.421C193.516 469.421 193.614 469.224 193.295 468.954C193.167 468.843 193.019 468.76 192.858 468.709C192.697 468.658 192.528 468.641 192.36 468.658C191.3 468.954 190.355 469.568 189.654 470.417V470.405Z" fill="#263238"/>
<path d="M172.807 465.842L162.378 462.891C162.199 462.837 162.005 462.85 161.835 462.93C161.665 463.009 161.53 463.149 161.456 463.321L157.939 471.229C157.856 471.431 157.817 471.649 157.825 471.868C157.833 472.086 157.886 472.301 157.983 472.497C158.079 472.693 158.216 472.867 158.384 473.007C158.553 473.146 158.749 473.249 158.96 473.307C162.649 474.266 164.42 474.537 169.007 475.853C171.835 476.64 175.869 478.103 179.767 479.21C183.666 480.317 184.969 476.517 183.456 475.705C176.619 472.09 176.078 469.556 174.209 466.851C173.874 466.361 173.378 466.004 172.807 465.842Z" fill="#4CAF4F"/>
<path d="M189.31 469.31L180.407 463.161C180.256 463.051 180.07 463.001 179.884 463.019C179.698 463.037 179.525 463.123 179.398 463.26L173.495 469.605C173.352 469.769 173.244 469.962 173.181 470.171C173.117 470.38 173.099 470.599 173.127 470.816C173.155 471.032 173.228 471.24 173.343 471.426C173.457 471.611 173.61 471.771 173.791 471.893C176.927 473.996 178.55 474.844 182.473 477.562C184.932 479.235 189.691 482.948 193.012 485.26C196.332 487.572 198.804 484.399 197.623 483.145C192.335 477.501 191.179 473.959 190.306 470.749C190.155 470.167 189.802 469.657 189.31 469.31Z" fill="#4CAF4F"/>
<path d="M182.091 457.873L166.043 449.892L167.703 445.539L184.846 453.951L182.091 457.873Z" fill="#4CAF4F"/>
<path d="M161.222 307.449L159.87 310.99C159.734 311.261 160.054 311.544 160.509 311.544H201.19C201.546 311.544 201.841 311.371 201.866 311.15L202.21 307.633C202.21 307.399 201.928 307.19 201.546 307.19H161.862C161.742 307.179 161.622 307.197 161.511 307.242C161.399 307.287 161.3 307.357 161.222 307.449Z" fill="#4CAF4F"/>
<path opacity="0.4" d="M161.222 307.449L159.87 310.99C159.734 311.261 160.054 311.544 160.509 311.544H201.19C201.546 311.544 201.841 311.371 201.866 311.15L202.21 307.633C202.21 307.399 201.928 307.19 201.546 307.19H161.862C161.742 307.179 161.622 307.197 161.511 307.242C161.399 307.287 161.3 307.357 161.222 307.449Z" fill="white"/>
<path d="M167.629 311.888H166.559C166.35 311.888 166.191 311.777 166.203 311.642L166.707 307.08C166.707 306.957 166.904 306.846 167.113 306.846H168.183C168.392 306.846 168.552 306.957 168.539 307.08L168.035 311.642C168.023 311.777 167.838 311.888 167.629 311.888Z" fill="#4CAF4F"/>
<path d="M192.717 311.888H191.659C191.45 311.888 191.29 311.777 191.302 311.642L191.794 307.08C191.794 306.957 192.003 306.846 192.212 306.846H193.27C193.479 306.846 193.651 306.957 193.627 307.08L193.135 311.642C193.073 311.777 192.938 311.888 192.717 311.888Z" fill="#4CAF4F"/>
<g style="mix-blend-mode:multiply">
<path d="M166.695 520.149C184.89 520.149 199.64 519.081 199.64 517.763C199.64 516.445 184.89 515.377 166.695 515.377C148.499 515.377 133.749 516.445 133.749 517.763C133.749 519.081 148.499 520.149 166.695 520.149Z" fill="#F5F5F5"/>
</g>
<path d="M186.765 514.394C180.935 512.696 174.467 510.52 170.556 508.245C170.446 508.171 170.323 508.134 170.212 508.073V481.682H182.005C182.901 481.629 183.742 481.236 184.357 480.583C184.972 479.931 185.315 479.068 185.315 478.171C185.315 477.274 184.972 476.411 184.357 475.758C183.742 475.106 182.901 474.713 182.005 474.66H170.273V354.364H163.19V474.66H151.47C150.992 474.631 150.512 474.701 150.062 474.865C149.611 475.029 149.199 475.283 148.85 475.611C148.501 475.94 148.223 476.337 148.033 476.777C147.843 477.217 147.745 477.691 147.745 478.171C147.745 478.65 147.843 479.124 148.033 479.565C148.223 480.005 148.501 480.401 148.85 480.73C149.199 481.059 149.611 481.313 150.062 481.477C150.512 481.64 150.992 481.71 151.47 481.682H163.19V508.036C163.079 508.036 162.969 508.134 162.858 508.208C158.886 510.52 152.466 512.696 146.637 514.357C146.244 514.476 145.905 514.732 145.684 515.079C145.463 515.425 145.373 515.84 145.431 516.247C145.489 516.655 145.691 517.028 146 517.299C146.309 517.57 146.706 517.722 147.117 517.726H186.285C186.678 517.699 187.05 517.539 187.339 517.271C187.628 517.003 187.816 516.644 187.872 516.254C187.928 515.864 187.849 515.466 187.647 515.128C187.446 514.789 187.134 514.53 186.765 514.394Z" fill="#E0E0E0"/>
<path d="M188.572 342.116H144.842C141.324 342.116 138.472 344.968 138.472 348.486V361.484C138.472 365.003 141.324 367.855 144.842 367.855H188.572C192.09 367.855 194.942 365.003 194.942 361.484V348.486C194.942 344.968 192.09 342.116 188.572 342.116Z" fill="#4CAF4F"/>
<path d="M144.436 367.867V370.105C144.436 371.95 146.441 373.45 148.9 373.45H184.563C187.023 373.45 189.027 371.95 189.027 370.105V367.867H144.436Z" fill="#4CAF4F"/>
<path opacity="0.3" d="M144.436 367.867V370.105C144.436 371.95 146.441 373.45 148.9 373.45H184.563C187.023 373.45 189.027 371.95 189.027 370.105V367.867H144.436Z" fill="white"/>
</svg>
