<svg width="49" height="28" viewBox="0 0 49 28" fill="none" xmlns="http://www.w3.org/2000/svg">
<path d="M17.2804 0C14.4374 0 11.7108 1.12938 9.70051 3.1397L3.1397 9.70051C1.12938 11.7108 0 14.4374 0 17.2804C0 23.2007 4.79933 28 10.7196 28C13.5626 28 16.2892 26.8706 18.2995 24.8603L22.8376 20.3221C22.8376 20.322 22.8377 20.3222 22.8376 20.3221L36.0603 7.09949C37.0204 6.13938 38.3226 5.6 39.6804 5.6C41.9536 5.6 43.8809 7.08158 44.549 9.1318L48.7221 4.95876C46.8183 1.97712 43.4803 0 39.6804 0C36.8374 0 34.1108 1.12938 32.1005 3.1397L14.3397 20.9005C13.3796 21.8606 12.0774 22.4 10.7196 22.4C7.89212 22.4 5.6 20.1079 5.6 17.2804C5.6 15.9226 6.13938 14.6204 7.09949 13.6603L13.6603 7.09949C14.6204 6.13938 15.9226 5.6 17.2804 5.6C19.5537 5.6 21.4809 7.08165 22.149 9.13193L26.3222 4.95887C24.4184 1.97717 21.0804 0 17.2804 0Z" fill="#394149"/>
</svg>
