<svg width="56" height="39" viewBox="0 0 56 39" fill="none" xmlns="http://www.w3.org/2000/svg">
<path fill-rule="evenodd" clip-rule="evenodd" d="M13.9088 5.73108L0 19.5C2.78201 22.2541 5.96003 24.5752 9.42497 26.391C10.3827 28.906 11.8839 31.2645 13.9286 33.2886C21.6212 40.9038 34.0933 40.9038 41.7857 33.2886C43.8305 31.2645 45.3317 28.906 46.2894 26.3909C49.7543 24.5752 52.9324 22.2541 55.7143 19.5L41.8168 5.74228C41.8065 5.73198 41.7962 5.72169 41.7857 5.71141C34.0933 -1.9038 21.6212 -1.9038 13.9286 5.71141C13.922 5.71797 13.9154 5.72452 13.9088 5.73108ZM40.4549 28.8752C36.4017 30.2293 32.1468 30.9228 27.8572 30.9228C23.5676 30.9228 19.3128 30.2293 15.2596 28.8752C15.6988 29.452 16.1836 30.0055 16.7143 30.5309C22.8684 36.6231 32.846 36.6231 39 30.5309C39.5307 30.0055 40.0157 29.452 40.4549 28.8752ZM17 8.19335C18.045 8.87684 19.1563 9.46171 20.319 9.93854C22.7089 10.9185 25.2704 11.4229 27.8572 11.4229C30.444 11.4229 33.0054 10.9185 35.3953 9.93854C36.5581 9.46171 37.6693 8.87682 38.7145 8.19332C32.6372 2.46888 23.0772 2.46889 17 8.19335Z" fill="#3B4158"/>
</svg>
