<svg width="66" height="44" viewBox="0 0 66 44" fill="none" xmlns="http://www.w3.org/2000/svg">
<path d="M64.2438 42.6114L64.2439 42.6115C64.5099 42.427 64.7366 42.1915 64.9108 41.9187L65.5054 42.2983L64.9108 41.9187C65.085 41.6459 65.2032 41.3411 65.2586 41.0222C65.314 40.7032 65.3055 40.3765 65.2334 40.0609L65.9212 39.9039L65.2334 40.0609C65.1614 39.7453 65.0274 39.4471 64.8391 39.1838L64.836 39.1794C62.1867 35.4136 58.577 32.4263 54.3822 30.528L53.3592 30.0651L54.2203 29.3444C56.7737 27.2071 58.6064 24.3348 59.4688 21.1186C60.3313 17.9024 60.1815 14.4985 59.04 11.3704C57.8985 8.2423 55.8207 5.54203 53.0894 3.63721C50.3582 1.7324 47.1063 0.715606 43.7764 0.725276L43.7732 0.725285C42.2913 0.722816 40.8164 0.927432 39.3912 1.33319L39.3785 1.3368L39.3785 1.33668C39.0619 1.42045 38.7652 1.56636 38.5055 1.76592C38.2459 1.96548 38.0285 2.21469 37.8661 2.49905C37.7037 2.78341 37.5995 3.09724 37.5596 3.42225C37.5196 3.74728 37.5447 4.077 37.6334 4.39222C37.7221 4.70745 37.8727 5.00187 38.0762 5.25837L37.5237 5.69691L38.0762 5.25837C38.2798 5.51486 38.5324 5.7283 38.8193 5.88624L38.479 6.50418L38.8193 5.88624C39.1061 6.04419 39.4215 6.14349 39.7471 6.17837C40.0727 6.21325 40.402 6.183 40.7158 6.0894L40.7239 6.08698L40.7239 6.08703C41.7164 5.80391 42.7437 5.66123 43.7757 5.66318M64.2438 42.6114L43.7744 6.36859M64.2438 42.6114L64.2356 42.6173C63.8238 42.9116 63.33 43.0692 62.8238 43.0677C62.4279 43.0653 62.0383 42.9688 61.6871 42.786C61.336 42.6033 61.0335 42.3397 60.8043 42.0171M64.2438 42.6114L60.2282 42.424M43.7757 5.66318L43.7744 6.36859M43.7757 5.66318C43.7753 5.66318 43.7748 5.66317 43.7744 5.66317V6.36859M43.7757 5.66318C46.7686 5.66353 49.6389 6.85261 51.7552 8.96895C53.8719 11.0856 55.061 13.9564 55.061 16.9498C55.061 19.9432 53.8719 22.814 51.7552 24.9306C49.6386 27.0473 46.7678 28.2364 43.7744 28.2364C43.1196 28.2364 42.4916 28.4965 42.0286 28.9596C41.5656 29.4226 41.3054 30.0506 41.3054 30.7054C41.3054 31.3602 41.5656 31.9882 42.0286 32.4512C42.4916 32.9142 43.1196 33.1743 43.7744 33.1743H43.7752C47.1142 33.178 50.4037 33.983 53.367 35.5219C56.3301 37.0606 58.8807 39.2881 60.8043 42.0171M43.7744 6.36859C46.5807 6.36859 49.2721 7.48339 51.2564 9.46775C53.2408 11.4521 54.3556 14.1435 54.3556 16.9498C54.3556 19.7561 53.2408 22.4475 51.2564 24.4318C49.2721 26.4162 46.5807 27.531 43.7744 27.531C42.9325 27.531 42.1251 27.8654 41.5298 28.4608C40.9345 29.0561 40.6 29.8635 40.6 30.7054C40.6 31.5473 40.9345 32.3547 41.5298 32.95C42.1251 33.5453 42.9325 33.8797 43.7744 33.8797C47.0006 33.8833 50.1788 34.6611 53.0419 36.1479C55.9051 37.6347 58.3695 39.7871 60.2282 42.424M60.8043 42.0171C60.8041 42.0167 60.8038 42.0163 60.8036 42.016L60.2282 42.424M60.8043 42.0171C60.8045 42.0173 60.8046 42.0175 60.8047 42.0176L60.2282 42.424M32.6597 29.3455L31.8028 30.0663L32.823 30.528C37.0178 32.4263 40.6275 35.4136 43.2768 39.1794L43.2869 39.1938L43.2977 39.2076C43.5035 39.4712 43.6536 39.774 43.7388 40.0974C43.8241 40.4208 43.8427 40.7582 43.7937 41.0891C43.7446 41.4199 43.6288 41.7374 43.4533 42.0221C43.2778 42.3068 43.0463 42.553 42.7728 42.7455C42.4993 42.9381 42.1896 43.0731 41.8623 43.1423C41.5351 43.2115 41.1972 43.2135 40.8692 43.1481C40.5411 43.0828 40.2298 42.9515 39.9541 42.7622C39.6783 42.5729 39.4439 42.3295 39.2651 42.0469L39.256 42.0326L39.2463 42.0187C37.3265 39.2844 34.7767 37.0526 31.8123 35.5118C28.8479 33.971 25.5561 33.1667 22.2152 33.1667C18.8743 33.1667 15.5825 33.971 12.6181 35.5118C9.65367 37.0526 7.10382 39.2844 5.18407 42.0187L5.18249 42.021C4.95682 42.3451 4.65593 42.6096 4.3056 42.7919C3.95527 42.9742 3.56595 43.0689 3.17103 43.0677L3.1667 43.0677C2.66021 43.0694 2.166 42.9118 1.75394 42.6173L1.75055 42.6149C1.21645 42.2379 0.853685 41.6644 0.741832 41.0203C0.630011 40.3763 0.778075 39.7144 1.15355 39.1794C3.80284 35.4136 7.41255 32.4263 11.6074 30.528L12.6275 30.0663L11.7706 29.3455C9.22405 27.2032 7.39782 24.3296 6.53954 21.1144C5.68126 17.8991 5.83245 14.4977 6.9726 11.3712C8.11276 8.2448 10.1867 5.54458 12.9133 3.63666C15.64 1.72874 18.8873 0.705414 22.2152 0.705414C25.543 0.705414 28.7904 1.72874 31.517 3.63666C34.2436 5.54458 36.3176 8.2448 37.4577 11.3712C38.5979 14.4977 38.7491 17.8991 37.8908 21.1144C37.0325 24.3296 35.2063 27.2032 32.6597 29.3455ZM12.8307 10.6793C11.5905 12.5354 10.9286 14.7175 10.9286 16.9498C10.9286 19.9432 12.1177 22.814 14.2343 24.9306C16.351 27.0473 19.2218 28.2364 22.2152 28.2364C24.4475 28.2364 26.6296 27.5745 28.4857 26.3343C30.3418 25.0941 31.7884 23.3314 32.6427 21.269C33.4969 19.2066 33.7204 16.9373 33.2849 14.7479C32.8494 12.5585 31.7745 10.5474 30.196 8.96895C28.6176 7.39049 26.6065 6.31554 24.4171 5.88004C22.2277 5.44455 19.9583 5.66806 17.896 6.52232C15.8336 7.37657 14.0709 8.82321 12.8307 10.6793Z" fill="#4CAF4F" stroke="#4CAF4F" stroke-width="0.696069"/>
</svg>
