<svg width="67" height="67" viewBox="0 0 67 67" fill="none" xmlns="http://www.w3.org/2000/svg">
<path d="M55.8334 58.6249V53.0415C55.8334 50.08 54.6569 47.2397 52.5627 45.1455C50.4686 43.0514 47.6283 41.8749 44.6667 41.8749H41.875C41.1346 41.8749 40.4246 41.5808 39.901 41.0572C39.3775 40.5337 39.0834 39.8236 39.0834 39.0832V25.1249C39.0834 23.6441 38.4951 22.224 37.4481 21.1769C36.401 20.1298 34.9808 19.5416 33.5001 19.5416C32.0193 19.5416 30.5991 20.1298 29.552 21.1769C28.505 22.224 27.9167 23.6441 27.9167 25.1249V50.2499L21.2167 41.3166C20.6967 40.6231 20.0223 40.0603 19.247 39.6727C18.4717 39.285 17.6169 39.0832 16.7501 39.0832H15.5385C13.1237 39.0832 11.1667 41.0402 11.1667 43.455C11.1667 44.2478 11.3817 45.0267 11.7893 45.7051L19.5417 58.6249M33.5001 11.1666V8.37494V11.1666ZM50.25 27.9166H53.0417H50.25ZM13.9584 27.9166H16.7501H13.9584ZM20.4993 14.9158L18.5256 12.9421L20.4993 14.9158ZM46.5008 14.9158L48.4745 12.9421L46.5008 14.9158Z" fill="#4CAF4F"/>
<path d="M55.8334 58.6249V53.0415C55.8334 50.08 54.6569 47.2397 52.5627 45.1455C50.4686 43.0514 47.6283 41.8749 44.6667 41.8749H41.875C41.1346 41.8749 40.4246 41.5808 39.901 41.0572C39.3775 40.5337 39.0834 39.8236 39.0834 39.0832V25.1249C39.0834 23.6441 38.4951 22.224 37.4481 21.1769C36.401 20.1298 34.9808 19.5416 33.5001 19.5416V19.5416C32.0193 19.5416 30.5991 20.1298 29.552 21.1769C28.505 22.224 27.9167 23.6441 27.9167 25.1249V50.2499L21.2167 41.3166C20.6967 40.6231 20.0223 40.0603 19.247 39.6727C18.4717 39.285 17.6169 39.0832 16.7501 39.0832H15.5385C13.1237 39.0832 11.1667 41.0402 11.1667 43.455C11.1667 44.2478 11.3817 45.0267 11.7893 45.7051L19.5417 58.6249M33.5001 11.1666V8.37494M50.25 27.9166H53.0417M13.9584 27.9166H16.7501M20.4993 14.9158L18.5256 12.9421M46.5008 14.9158L48.4745 12.9421" stroke="#4CAF4F" stroke-width="1.39214" stroke-linecap="round" stroke-linejoin="round"/>
</svg>
