<svg width="77" height="42" viewBox="0 0 77 42" fill="none" xmlns="http://www.w3.org/2000/svg">
<g clip-path="url(#clip0_211_2518)">
<path d="M76.994 14.9375C77.002 14.8791 77.002 14.8201 76.994 14.7617C77.0016 14.7142 77.0016 14.6657 76.994 14.618L76.4236 10.5123C76.3413 10.0211 76.1212 9.56198 75.7881 9.18633L75.6903 9.07449L75.5111 8.89875L65.6361 0.559545L65.9131 0.83115C65.6865 0.565313 65.402 0.352679 65.0805 0.208911C64.759 0.0651424 64.4087 -0.00610754 64.0555 0.000417289H61.0571C60.5695 -0.00905324 60.0931 0.14292 59.7045 0.431762C59.2965 0.14466 58.8053 -0.00653603 58.3031 0.000417289H55.3047C54.9115 -0.00583762 54.5236 0.089843 54.1802 0.2778C53.8368 0.465756 53.5502 0.739315 53.3494 1.07077C53.0396 1.54418 52.9233 2.11457 53.0234 2.66832L53.3982 5.25634C53.1499 5.11835 52.8689 5.04675 52.5834 5.04868H38.0642C37.5433 5.05189 37.0343 5.20158 36.5976 5.48C36.1753 5.73916 35.8362 6.11026 35.6199 6.55035L34.4955 5.60781C34.0529 5.20638 33.4688 4.9888 32.866 5.00075H10.0849C9.56217 5.01009 9.05101 5.15326 8.60211 5.41611C7.98797 5.76851 7.5379 6.34151 7.34733 7.01365L0.112163 30.7373C-0.0230232 31.1282 -0.0363219 31.5498 0.0739707 31.9481C0.184263 32.3464 0.413152 32.7036 0.731396 32.9739C0.814321 33.0428 0.901392 33.1068 0.992129 33.1655C0.992129 33.1655 0.845447 33.0697 0.76397 32.9899L10.639 41.345C11.0568 41.7221 11.6029 41.9328 12.1707 41.9361H35.131C35.6554 41.9227 36.1669 41.7739 36.6139 41.5047C36.8668 41.3693 37.0929 41.1908 37.282 40.9775L37.3635 40.8657L37.4939 40.706L37.5916 40.5302L38.6672 41.4409C39.0789 41.8029 39.6132 42.0021 40.1663 42H63.1754C63.6992 41.9829 64.2098 41.8344 64.6583 41.5687C64.9055 41.4249 65.1304 41.2474 65.3265 41.0415L65.4079 40.9296L65.5382 40.7699C65.6075 40.6688 65.6676 40.5619 65.7175 40.4503C65.7707 40.3535 65.8144 40.2519 65.8478 40.1469L72.4475 18.4841V18.2924C72.4556 18.218 72.4556 18.1431 72.4475 18.0687V17.925C72.4554 17.8773 72.4554 17.8288 72.4475 17.7811C72.4549 17.6801 72.4549 17.5787 72.4475 17.4776H74.566C74.7502 17.4942 74.9357 17.4942 75.1199 17.4776H75.2667C75.3859 17.4427 75.5008 17.3944 75.6089 17.3338H75.7719L76.0651 17.1102L76.1955 17.0143L76.4236 16.7267V16.631L76.5866 16.3593C76.5775 16.3065 76.5775 16.2524 76.5866 16.1996C76.5779 16.1737 76.5779 16.1456 76.5866 16.1197C76.6212 16.026 76.6485 15.9299 76.6681 15.8321C76.6605 15.8006 76.6605 15.7677 76.6681 15.7362C76.6601 15.6887 76.6601 15.6401 76.6681 15.5925C76.6681 15.5925 76.994 14.9694 76.994 14.9375Z" fill="black"/>
<path d="M33.5341 6.82202C33.6206 6.89872 33.681 6.99956 33.7072 7.11096C33.7335 7.22237 33.7242 7.33897 33.6808 7.44506L26.462 31.1527C26.3711 31.4115 26.1851 31.6279 25.9405 31.7598C25.7415 31.8903 25.5111 31.9674 25.2723 31.9835H2.32842C2.13247 31.9742 1.94684 31.8946 1.80695 31.7598C1.72374 31.6843 1.66534 31.5862 1.63921 31.4782C1.61309 31.3701 1.62044 31.2568 1.6603 31.1527L8.89547 7.44506C8.97883 7.18296 9.15896 6.96078 9.40062 6.82202C9.60293 6.70087 9.83219 6.62961 10.0687 6.61433H33.0126C33.2071 6.61617 33.3935 6.69043 33.5341 6.82202ZM21.557 26.376L25.8753 12.2217H13.7841L9.48208 26.376H21.557ZM55.4351 7.06164C55.5134 7.15083 55.6113 7.22156 55.7213 7.26858C55.8314 7.3156 55.9507 7.3377 56.0707 7.33323H59.0528C59.1663 7.33432 59.2782 7.30702 59.3781 7.25391C59.4779 7.2008 59.5621 7.12363 59.6231 7.02969C59.676 6.95632 59.7135 6.87325 59.733 6.78543C59.7526 6.69762 59.754 6.60685 59.7371 6.51849L59.1505 2.30095C59.0947 2.10576 58.9944 1.92552 58.8573 1.77376C58.7789 1.68457 58.6811 1.61384 58.5711 1.56682C58.461 1.51981 58.3416 1.49771 58.2217 1.50218H55.2396C55.1261 1.50109 55.0141 1.52839 54.9143 1.5815C54.8145 1.63461 54.7302 1.71178 54.6693 1.80572C54.5552 2.02937 54.5063 2.17315 54.5552 2.30095L55.1582 6.51849C55.1891 6.72385 55.2862 6.91414 55.4351 7.06164ZM64.9028 2.269C64.8469 2.0738 64.7466 1.89355 64.6095 1.74181C64.5345 1.65295 64.4396 1.58224 64.3322 1.53514C64.2248 1.48804 64.1078 1.46583 63.9903 1.47022H60.9919C60.8802 1.46711 60.7697 1.49367 60.6722 1.54711C60.5747 1.60054 60.4937 1.67887 60.4379 1.77376C60.3295 1.91549 60.2825 2.09352 60.3075 2.269L60.9104 6.48653C60.9482 6.68972 61.0443 6.87814 61.1875 7.02969C61.2671 7.11714 61.3652 7.18668 61.4749 7.23355C61.5847 7.28042 61.7033 7.30352 61.8229 7.30126H64.8213C64.9328 7.30271 65.0425 7.27544 65.1397 7.22217C65.237 7.16889 65.3183 7.09152 65.3754 6.99775C65.4321 6.92628 65.4717 6.84324 65.4915 6.75479C65.5112 6.66634 65.5105 6.57469 65.4894 6.48653L64.9028 2.269ZM52.8116 8.6592L52.5182 6.58238H38.0643C37.8373 6.59465 37.6178 6.66637 37.4287 6.79006C37.3087 6.85423 37.2042 6.94316 37.1226 7.05072C37.0411 7.1583 36.9843 7.28192 36.9562 7.41311L35.7503 11.375C35.7022 11.474 35.6857 11.5851 35.7031 11.6935C35.7207 11.8018 35.7712 11.9024 35.8481 11.9821C35.9855 12.1087 36.1648 12.1826 36.3533 12.1898H53.9197L49.6014 26.3441H32.0838C31.858 26.3492 31.638 26.4155 31.4484 26.5357C31.2179 26.6793 31.0496 26.9011 30.9758 27.1588L29.7536 31.1208C29.7137 31.2224 29.7032 31.3329 29.7233 31.44C29.7436 31.5472 29.7934 31.6467 29.8676 31.7278C30.0008 31.8629 30.1815 31.9429 30.3728 31.9514H53.3819C53.6199 31.9314 53.8493 31.8546 54.05 31.7278C54.2906 31.5953 54.4711 31.3785 54.5552 31.1208L61.1711 9.45797H53.7241C53.606 9.46025 53.4887 9.43875 53.3794 9.39479C53.2701 9.35082 53.1711 9.28531 53.0887 9.20235C52.9539 9.05748 52.8586 8.88167 52.8116 8.69115V8.6592Z" fill="white"/>
</g>
<defs>
<clipPath id="clip0_211_2518">
<rect width="38.2838" height="20.8821" fill="white" transform="scale(2.01129)"/>
</clipPath>
</defs>
</svg>
