<svg width="66" height="41" viewBox="0 0 66 41" fill="none" xmlns="http://www.w3.org/2000/svg">
<g clip-path="url(#clip0_211_2522)">
<path d="M61.7824 5.00584C61.7824 5.05332 61.7824 5.11268 61.7701 5.14829C61.7082 5.61125 61.7082 6.07421 61.7453 6.54905C61.7701 6.66776 61.7948 6.78647 61.8938 6.88143C62.0545 7.05949 62.3019 7.02388 62.4009 6.81021C62.4504 6.70337 62.4504 6.59653 62.4256 6.48969C62.3019 6.0386 62.2772 5.56377 62.2648 5.1008C62.2648 5.07706 62.2648 5.04145 62.2648 5.00584C62.4009 4.99397 62.5246 4.98209 62.6358 4.98209C62.7225 4.97023 62.7967 4.95835 62.8585 4.92274C63.044 4.82778 63.044 4.62598 62.8461 4.53101C62.7719 4.49539 62.673 4.48352 62.5864 4.48352C62.2772 4.49539 61.968 4.49539 61.6587 4.49539C61.5475 4.49539 61.4361 4.50727 61.3248 4.51913C61.2629 4.53101 61.1887 4.53101 61.1393 4.56662C61.0527 4.60223 61.0033 4.66158 61.0033 4.74467C61.0156 4.82778 61.0527 4.87526 61.1393 4.91087C61.1887 4.94649 61.2506 4.95835 61.3124 4.95835C61.4608 4.97023 61.6217 4.99397 61.7824 5.00584ZM65.1837 5.5519C65.1837 5.56377 65.1961 5.57564 65.1961 5.57564C65.2456 5.89615 65.2951 6.2048 65.3321 6.51343C65.3446 6.62027 65.3569 6.71524 65.4311 6.79833C65.5919 7.00013 65.8393 6.97639 65.9505 6.76273C66 6.65588 66.0124 6.54905 65.9877 6.43034C65.9135 6.07421 65.8763 5.71809 65.8021 5.37383C65.7526 5.16016 65.6909 4.95835 65.629 4.76842C65.5919 4.64971 65.5053 4.56661 65.3569 4.55475C65.2085 4.53101 65.0972 4.60223 65.0353 4.70907C64.9611 4.80403 64.8992 4.899 64.8497 5.00584C64.7632 5.19577 64.689 5.38571 64.5901 5.56377C64.5776 5.61125 64.5653 5.64687 64.5406 5.68247C64.5282 5.65873 64.5159 5.64687 64.5159 5.64687C64.355 5.35009 64.2066 5.05332 64.0459 4.76842C64.0211 4.74467 64.0087 4.72093 63.9964 4.69719C63.9222 4.59036 63.8356 4.53101 63.6996 4.53101C63.5759 4.54287 63.4769 4.6141 63.4151 4.72093C63.3903 4.76842 63.3903 4.80403 63.3779 4.85152C63.3284 5.23138 63.2666 5.61125 63.2172 5.99112C63.1924 6.2048 63.18 6.41846 63.18 6.63214C63.1677 6.67962 63.18 6.73898 63.2047 6.78647C63.2295 6.88143 63.3037 6.94079 63.4027 6.95265C63.5264 6.96453 63.6129 6.92891 63.6501 6.83395C63.6871 6.76273 63.6996 6.70337 63.7119 6.64402C63.7614 6.43034 63.7985 6.22854 63.8356 6.02673C63.8603 5.90802 63.8727 5.81305 63.9098 5.68247C63.9345 5.72996 63.9592 5.76557 63.984 5.80118C64.0953 5.94364 64.2066 6.08609 64.3427 6.2048C64.4787 6.29976 64.5901 6.28789 64.7013 6.18105C64.7261 6.15731 64.7385 6.14544 64.7632 6.12169C64.8745 5.9555 65.0106 5.78931 65.1219 5.62312C65.1467 5.59938 65.159 5.57564 65.1837 5.5519Z" fill="#3A3B7B"/>
<path d="M36.6855 5.23894C36.5995 5.46454 36.5831 5.62707 36.6228 5.76216C36.6666 5.94586 36.7804 6.006 36.9348 5.95928C38.3876 5.61449 41.5732 6.59315 42.7527 6.86591C43.0308 6.92319 43.2571 6.57856 43.0673 6.26958C42.7903 5.97036 39.6061 4.68926 38.3911 4.61941C37.9149 4.59358 37.0634 4.47637 36.6855 5.23894Z" fill="#3A3B7B"/>
<path d="M49.1355 1.09188C49.2903 1.17765 49.3769 1.25947 49.4196 1.35089C49.4832 1.4708 49.4497 1.55376 49.3428 1.5961C48.3825 2.04592 47.1046 3.98252 46.5888 4.65043C46.4637 4.80408 46.1753 4.71479 46.1318 4.46212C46.1407 4.17643 47.2735 2.07479 47.9057 1.50238C48.1541 1.27889 48.5645 0.840378 49.1355 1.09188Z" fill="#3A3B7B"/>
<path d="M41.4879 0.138641C41.6739 0.00408982 41.8672 -0.043061 41.9659 0.0443804C43.4148 1.23364 44.1832 3.11695 44.6589 4.84107C44.6769 4.88124 44.678 4.93888 44.6636 4.99901C44.6577 5.0504 44.6186 5.1047 44.5564 5.14671C44.4901 5.19309 44.4329 5.20721 44.4061 5.16724C43.771 4.33827 40.1442 1.11288 41.4879 0.138641Z" fill="#3A3B7B"/>
<path d="M10.8061 20.7573C11.1534 20.5092 11.5309 20.3026 11.9304 20.1423C12.3483 20.0276 12.7938 20.0466 13.1996 20.1966C13.6052 20.3465 13.949 20.6191 14.1789 20.9732C14.3845 21.3264 14.465 21.7341 14.4082 22.1351C14.3514 22.5359 14.1605 22.9083 13.8641 23.196C13.6343 23.4293 13.3734 23.6324 13.0884 23.8003C11.818 24.588 10.5363 25.3325 9.2546 26.1202C8.99235 26.3174 8.71414 26.4943 8.42263 26.649C7.97923 26.8612 7.4725 26.9181 6.99005 26.8097C6.50761 26.7014 6.0798 26.4346 5.78059 26.0555C5.55692 25.7871 5.36815 25.4937 5.21845 25.1815C4.00424 22.7321 2.74506 20.2934 1.57581 17.8007C1.03615 16.7217 0.59769 15.4808 0.170467 14.283C-0.0143698 13.935 -0.0504642 13.5316 0.0698693 13.1584C0.190203 12.7853 0.45747 12.4719 0.814819 12.2849C1.17217 12.098 1.5914 12.0522 1.98337 12.1574C2.37533 12.2625 2.70911 12.5103 2.91369 12.8479C3.54253 13.65 4.09918 14.5019 4.57762 15.3945C5.79183 17.5526 6.94984 19.7106 8.11908 21.804C8.18716 21.9197 8.26223 22.0313 8.34393 22.1385C9.22399 21.7834 10.0517 21.319 10.8061 20.7573Z" fill="#3A3B7B"/>
<path d="M23.3602 20.0044C20.5833 23.1228 15.9288 22.3351 13.5903 18.3211C11.9264 15.4724 11.6341 10.7677 15.2543 7.80033C16.0273 7.17908 16.9517 6.75588 17.9412 6.5702C19.1545 6.40326 20.3917 6.60869 21.476 7.15714C22.5603 7.7056 23.4362 8.56898 23.9786 9.62393C25.9573 13.0769 25.6763 17.4794 23.3602 20.0044ZM22.236 12.7316C21.9409 11.8831 21.3491 11.1587 20.5608 10.6814C20.1147 10.3762 19.5727 10.2278 19.026 10.2613C18.4792 10.2947 17.9612 10.5078 17.559 10.8648C15.9513 12.2352 15.614 15.4832 16.7832 17.4147C16.9323 17.7297 17.1511 18.0095 17.4246 18.2348C17.6982 18.4601 18.0197 18.6253 18.3667 18.7188C18.7136 18.8123 19.0777 18.832 19.4334 18.7763C19.7891 18.7206 20.1278 18.5911 20.426 18.3966C21.2974 17.7481 21.9368 16.8551 22.2551 15.8418C22.5735 14.8285 22.555 13.7451 22.2023 12.7424L22.236 12.7316Z" fill="#3A3B7B"/>
<path d="M34.693 14.0913C34.4087 14.15 34.115 14.1535 33.8292 14.1016C33.5435 14.0497 33.2714 13.9435 33.0291 13.7892C32.817 13.6728 32.6345 13.5128 32.4946 13.3205C32.3548 13.1283 32.261 12.9087 32.2202 12.6776C32.1793 12.4464 32.1924 12.2095 32.2583 11.9838C32.3243 11.758 32.4417 11.5491 32.6019 11.3721C32.881 11.0163 33.2772 10.7616 33.7261 10.6492C34.8984 10.3226 36.1052 10.1235 37.3238 10.0557C37.5916 10.0258 37.8628 10.0476 38.1217 10.1197C38.3806 10.1918 38.6218 10.3128 38.8313 10.4757C39.0407 10.6385 39.2141 10.8399 39.3414 11.068C39.4686 11.296 39.5472 11.5462 39.5723 11.8038C39.9236 13.069 39.9621 14.3955 39.6847 15.6776C38.6729 19.8211 35.1877 21.2454 31.2752 19.9182C30.1769 19.5633 29.214 18.9021 28.5095 18.0191C27.5698 16.9556 26.9036 15.6953 26.5645 14.3395C26.2897 13.1322 26.3198 11.8794 26.6523 10.6855C26.9848 9.49168 27.61 8.39145 28.4757 7.47675C29.2973 6.48257 30.3637 5.70015 31.5788 5.19995C32.3466 4.79377 33.245 4.67829 34.0972 4.87623C34.2904 4.92758 34.4659 5.02763 34.6054 5.16601C34.7448 5.30439 34.8431 5.47605 34.8902 5.6632C34.9372 5.85035 34.9312 6.04616 34.8729 6.23034C34.8144 6.41451 34.7058 6.58034 34.5581 6.71062C34.2773 6.95454 33.9723 7.1714 33.6474 7.35805C32.6479 7.96897 31.7781 8.75618 31.0841 9.67799C30.6291 10.2745 30.3158 10.9595 30.1663 11.6846C30.0167 12.4098 30.0345 13.1576 30.2184 13.8756C30.4734 14.8544 31.0392 15.733 31.8373 16.3897C34.3107 18.5478 37.5261 16.4652 36.964 13.5194C36.1434 13.7137 35.4238 13.9187 34.693 14.0913Z" fill="#3A3B7B"/>
<path d="M49.8033 20.1773C46.1495 22.3355 41.9897 20.1773 41.079 15.6454C40.4157 12.4082 41.6748 7.87618 46.082 6.1497C47.0197 5.79027 48.0368 5.66407 49.0389 5.78282C50.2428 5.99435 51.3473 6.56321 52.1964 7.40921C53.0455 8.2552 53.5967 9.33563 53.772 10.4983C54.514 14.3505 52.8276 18.4617 49.8033 20.1773ZM51.0738 12.9153C51.0727 12.0189 50.7423 11.1515 50.1407 10.4659C49.8191 10.0418 49.3541 9.73796 48.8252 9.60607C48.2962 9.47428 47.736 9.52259 47.24 9.74296C45.2613 10.563 43.8672 13.5412 44.3731 15.7317C44.4118 16.0755 44.5281 16.407 44.7141 16.7031C44.9002 16.9991 45.1514 17.2526 45.4501 17.4459C45.7488 17.6391 46.088 17.7673 46.4437 17.8217C46.7996 17.8759 47.1634 17.855 47.5098 17.7603C48.5557 17.4096 49.4613 16.7542 50.1002 15.8856C50.7392 15.017 51.0796 13.9786 51.0738 12.9153Z" fill="#3A3B7B"/>
<path d="M57.4672 21.0837C57.4121 21.4786 57.1958 21.8364 56.8658 22.0782C56.5358 22.32 56.1192 22.4261 55.7078 22.3732C55.2963 22.3202 54.9236 22.1125 54.6717 21.7958C54.4196 21.4792 54.3091 21.0794 54.3643 20.6844C54.4194 20.2895 54.6358 19.9318 54.9657 19.69C55.2957 19.4481 55.7123 19.3421 56.1237 19.395C56.5352 19.4479 56.9079 19.6555 57.1599 19.9722C57.4119 20.289 57.5225 20.6888 57.4672 21.0837ZM56.4891 6.52727C56.7029 6.21384 57.0166 5.97515 57.3834 5.84681C57.7501 5.71847 58.1502 5.70734 58.5241 5.8151C58.9041 5.90637 59.2399 6.12018 59.4753 6.42072C59.7107 6.72128 59.8313 7.09032 59.817 7.46605C59.7674 8.06873 59.6735 8.6673 59.536 9.25725C59.1649 11.2535 58.8051 13.2497 58.4117 15.2244C58.2318 16.0122 57.9957 16.7675 57.7371 17.566C57.6471 17.8156 57.4968 18.0411 57.2986 18.2242C57.1754 18.3619 57.018 18.4675 56.841 18.5313C56.6639 18.5951 56.473 18.615 56.2858 18.5892C56.0987 18.5634 55.9212 18.4927 55.7701 18.3837C55.6189 18.2745 55.4989 18.1306 55.4211 17.9652C55.2874 17.6685 55.2148 17.3497 55.2075 17.0265C55.2075 15.6884 55.2075 14.3396 55.2974 12.9908C55.4503 11.0658 55.7508 9.15432 56.1968 7.27182C56.2493 7.01961 56.3482 6.77843 56.4891 6.55965V6.52727Z" fill="#3A3B7B"/>
<path fill-rule="evenodd" clip-rule="evenodd" d="M6.05609 29.7547C5.92334 30.0391 5.88694 30.3562 5.95181 30.6613C5.99496 31.0636 6.08975 31.4592 6.234 31.8393C6.41411 32.3046 6.61564 32.7648 6.86414 33.332C6.92129 33.4625 6.98101 33.5987 7.0435 33.7421C7.37861 34.5104 7.79909 35.4924 8.35995 36.9136C8.5187 37.3173 8.65967 37.7244 8.80162 38.1342C8.85897 38.2998 8.91652 38.4659 8.97543 38.6324C9.18659 39.2244 9.54993 39.7562 10.0315 40.1777C10.2361 40.4093 10.5073 40.5782 10.8115 40.6626C11.1216 40.7486 11.4514 40.7432 11.7582 40.6469C12.065 40.5506 12.3345 40.3679 12.5316 40.1225C12.7249 39.882 12.8398 39.5921 12.8622 39.2893C12.9876 38.6993 12.9448 38.0876 12.7381 37.5189C12.4101 36.5746 12.0364 35.6289 11.6056 34.7039L11.6036 34.6998C10.8947 33.2526 10.1742 31.8155 9.41957 30.3778L9.41393 30.3677C9.19301 29.9931 8.90592 29.6582 8.56555 29.3782C8.34458 29.1282 8.03978 28.9596 7.70318 28.9014C7.35941 28.8421 7.00486 28.9019 6.70282 29.0703C6.4171 29.2269 6.1906 29.4665 6.05609 29.7547Z" fill="#3A3B7B"/>
<path fill-rule="evenodd" clip-rule="evenodd" d="M16.8826 26.1913C15.7711 25.915 14.6104 25.8747 13.4812 26.0733C12.6066 26.156 11.7464 26.3496 11.1491 26.7332C10.8453 26.9284 10.5997 27.179 10.4631 27.4976C10.3257 27.8179 10.3082 28.1842 10.4208 28.5924C10.6263 29.34 10.8932 30.0669 11.1592 30.7915L11.2023 30.9089L11.2033 30.9115C12.0042 33.0165 12.8127 35.1144 13.6286 37.2051C13.7237 37.5346 13.8582 37.8524 14.0295 38.1522L14.0327 38.1578C14.2589 38.5302 14.549 38.8633 14.8908 39.1431C15.0617 39.2969 15.2731 39.4033 15.5023 39.4509C15.7338 39.4989 15.9745 39.485 16.1982 39.4106C16.4221 39.3362 16.6203 39.2044 16.7713 39.0292C16.9199 38.857 17.0172 38.6495 17.0529 38.4287C17.2004 37.8287 17.1532 37.1998 16.9174 36.6264C16.8439 36.4334 16.7862 36.2362 16.7254 36.0286C16.7051 35.9593 16.6846 35.8889 16.6629 35.8172C18.5304 35.1166 20.5175 34.1745 21.2162 31.9828C21.4898 31.2254 21.5127 30.4053 21.2815 29.6349C21.0501 28.8636 20.5754 28.18 19.9227 27.6782C19.0344 26.9757 17.9968 26.4682 16.8826 26.1913ZM13.8018 28.8795C13.8385 28.8693 13.8756 28.8599 13.9127 28.8511C15.1286 28.6676 16.3725 28.9121 17.4155 29.5392C17.8751 29.846 18.0634 30.1869 18.0957 30.5149C18.1291 30.8526 18.0012 31.2186 17.7441 31.5704C17.2585 32.2349 16.3722 32.7668 15.5716 32.8659C14.988 31.5759 14.3953 30.2337 13.8018 28.8795Z" fill="#3A3B7B"/>
<path d="M24.2924 23.8299C25.616 23.2432 27.2555 23.1419 28.5384 23.5544C28.8616 23.6447 29.1419 23.8401 29.3315 24.1071C29.5199 24.3725 29.6068 24.6922 29.5778 25.0119C29.5759 25.2194 29.5228 25.4236 29.4229 25.6078C29.3213 25.7953 29.1741 25.9565 28.9938 26.0779C28.8136 26.1993 28.6055 26.2773 28.3872 26.3052C28.1688 26.3331 27.9468 26.3102 27.7397 26.2382L27.7239 26.2328L27.7091 26.2253C27.6031 26.1721 27.4906 26.132 27.3741 26.1059L27.3668 26.1043C26.4643 25.8742 25.6129 26.2555 25.302 26.7239C25.1537 26.9472 25.1353 27.1727 25.2588 27.3778C25.3911 27.5974 25.7155 27.8439 26.372 28.0195C26.5526 28.0671 26.7377 28.113 26.9254 28.1597C27.4445 28.2887 27.984 28.4227 28.5057 28.6084L28.5077 28.6092C30.9145 29.4881 31.8106 31.3083 31.5038 33.0204C31.2003 34.7134 29.7271 36.2543 27.5117 36.6177C26.7055 36.7892 25.8666 36.7558 25.0779 36.5208C24.2872 36.2851 23.5745 35.855 23.0106 35.273L22.9959 35.2578C22.8178 35.0386 22.6981 34.781 22.645 34.5077C22.5962 34.261 22.6219 34.0062 22.719 33.773C22.8156 33.5413 22.9789 33.3407 23.1896 33.1946C23.4122 33.0289 23.6806 32.9295 23.9614 32.9087C24.2414 32.8881 24.5215 32.9465 24.7673 33.0766C25.0128 33.1905 25.2412 33.3357 25.4462 33.5084L25.45 33.5115C25.8126 33.8298 26.2514 33.9128 26.6721 33.8359C27.0989 33.758 27.5003 33.5156 27.7584 33.194C28.0149 32.8744 28.1178 32.4948 27.9956 32.1262C27.8727 31.755 27.503 31.339 26.6907 30.9913C26.4784 30.9048 26.2582 30.835 26.0292 30.7671C25.9675 30.7487 25.9047 30.7305 25.8411 30.712C25.6718 30.6627 25.4975 30.6119 25.3267 30.5559C25.209 30.5174 25.0923 30.4809 24.9767 30.4447C24.6608 30.3459 24.3527 30.2497 24.0563 30.1206C23.4111 29.9097 22.8537 29.5049 22.467 28.966C22.0787 28.4249 21.8834 27.7779 21.91 27.1215C21.912 25.5219 22.9617 24.4198 24.2924 23.8299Z" fill="#3A3B7B"/>
<path d="M41.0728 23.6596C40.8161 23.5393 40.5323 23.4822 40.247 23.4934C39.9616 23.5047 39.6837 23.5839 39.4382 23.7242C39.1943 23.8634 38.9901 24.0583 38.8438 24.2916C38.7096 24.4881 38.6167 24.7078 38.5704 24.9386C38.5241 25.1691 38.5253 25.406 38.5736 25.636C38.6214 25.9316 38.6744 26.2191 38.7268 26.5026C38.8134 26.9718 38.8977 27.4304 38.9533 27.8979L38.9554 27.9098C39.082 28.6431 39.1483 29.3847 39.1542 30.1279L39.1548 30.1385C39.1981 30.9411 38.9132 31.7281 38.3611 32.3325L38.3523 32.3432C38.1727 32.5641 37.9326 32.7327 37.6587 32.8302C37.3849 32.9277 37.0883 32.9501 36.8019 32.8949C36.5156 32.8397 36.2509 32.7092 36.0374 32.5179C35.824 32.3266 35.67 32.0814 35.5932 31.811C35.4291 31.2412 35.3342 30.655 35.31 30.0643L35.5902 25.7825C35.5944 25.7266 35.5991 25.6693 35.6039 25.6113C35.6146 25.4813 35.6255 25.3488 35.63 25.2253C35.6366 25.0435 35.631 24.8565 35.5868 24.6796C35.5417 24.4987 35.4558 24.3267 35.3034 24.1802C35.1526 24.0351 34.9489 23.9281 34.6926 23.8553C34.2292 23.7266 33.8374 23.7306 33.5109 23.8636C33.1842 23.9966 32.9603 24.2436 32.8019 24.5288C32.6447 24.8117 32.5438 25.1465 32.4674 25.4819C32.4107 25.7308 32.3652 25.9921 32.3219 26.2408C32.3069 26.3265 32.2923 26.4106 32.2775 26.4923L32.2771 26.4947C32.0456 27.8586 31.9766 29.2434 32.0717 30.6223C32.0894 31.3674 32.2513 32.1029 32.5492 32.7912C32.8854 33.6794 33.4942 34.4489 34.2953 34.9982C35.0982 35.5486 36.0562 35.8519 37.0426 35.8679C38.029 35.8839 38.9973 35.6119 39.8191 35.0879C40.6395 34.5647 41.2754 33.8149 41.6425 32.9376C42.1561 31.82 42.3973 30.6046 42.3475 29.384C42.3173 28.4929 42.2668 27.5949 42.2166 26.7015C42.1919 26.2633 42.1672 25.826 42.1452 25.3913C42.1341 24.9555 41.9843 24.5334 41.716 24.1816C41.55 23.9592 41.3289 23.7798 41.0728 23.6596Z" fill="#3A3B7B"/>
<path d="M50.1564 30.3735C50.1304 30.4053 50.103 30.4381 50.0743 30.4723C49.8655 29.3165 49.6721 28.161 49.4783 27.0038C49.4088 26.5886 49.339 26.1717 49.2687 25.7559L49.2608 25.7096L49.2351 25.6695C49.1868 25.5941 49.182 25.5201 49.182 25.3624V25.3442L49.179 25.3261C49.1266 25.0004 48.9731 24.6973 48.7386 24.4565C48.5048 24.2163 48.2011 24.0492 47.8671 23.9766C47.5336 23.8977 47.1831 23.9151 46.8598 24.0267C46.5373 24.138 46.2563 24.3381 46.0517 24.6019C45.8816 24.8043 45.7421 25.0288 45.6377 25.2687C45.4005 25.7856 45.1613 26.3037 44.9215 26.8232L44.9173 26.8321C44.3185 28.1291 43.7157 29.4347 43.1303 30.7507L43.1285 30.7549C42.7692 31.6082 42.4726 32.5072 42.177 33.4035C42.118 33.5824 42.059 33.7612 41.9995 33.9396C41.8927 34.2224 41.8461 34.5229 41.8621 34.8232C41.8427 35.0921 41.9097 35.3603 42.0543 35.5916C42.2018 35.8276 42.4227 36.0133 42.6859 36.1226C42.9648 36.2399 43.2766 36.2648 43.572 36.1934C43.8667 36.122 44.1284 35.9587 44.316 35.7292C44.5555 35.4465 44.7615 35.1381 44.9295 34.8114C45.4253 33.8379 45.8992 32.8526 46.3709 31.8715C46.5535 31.492 46.7308 31.1522 46.9326 30.782C46.9465 30.8277 46.9606 30.8722 46.9752 30.9168C47.1867 31.8104 47.5437 32.6663 48.0329 33.4532C48.1255 33.6199 48.2545 33.7656 48.411 33.8803C48.5694 33.9963 48.7522 34.0778 48.9467 34.1191C49.1412 34.1605 49.3428 34.1607 49.5374 34.1197C49.7317 34.0788 49.9151 33.9973 50.0736 33.8818L50.3873 33.6564L52.8221 31.688L52.6781 32.5687C52.4805 33.7792 52.2843 34.9796 52.076 36.1803C51.9396 36.7125 51.9398 37.2684 52.0765 37.8004C52.1358 38.0998 52.2866 38.3754 52.5099 38.5922C52.735 38.8107 53.0234 38.9591 53.3375 39.0184C53.6517 39.0775 53.9772 39.0447 54.2716 38.9241C54.5618 38.8054 54.8087 38.6068 54.9812 38.3536C55.3827 37.8756 55.6325 37.2969 55.7012 36.6863C55.8045 35.8241 55.9212 34.9501 56.0381 34.0764C56.1726 33.0693 56.3072 32.0625 56.4208 31.0751L56.4211 31.072C56.5305 29.9911 56.5834 28.9057 56.5797 27.8197C56.6037 27.4765 56.5147 27.1346 56.325 26.8424C56.1346 26.5492 55.8527 26.3213 55.5195 26.1908C55.1729 26.0396 54.7849 25.9992 54.4126 26.0756C54.0427 26.1515 53.7079 26.3387 53.4567 26.6097C53.0076 27.0084 52.5863 27.4349 52.1955 27.8867L52.1929 27.8898C51.7662 28.4 51.3425 28.9202 50.9215 29.4372C50.6656 29.7514 50.4103 30.0648 50.1564 30.3735Z" fill="#3A3B7B"/>
</g>
<defs>
<clipPath id="clip0_211_2522">
<rect width="32.7153" height="20.186" fill="white" transform="scale(2.01741)"/>
</clipPath>
</defs>
</svg>
