<svg width="58" height="38" viewBox="0 0 58 38" fill="none" xmlns="http://www.w3.org/2000/svg">
<g clip-path="url(#clip0_211_2538)">
<path d="M54.0975 1.1875C54.0975 1.84334 54.6357 2.375 55.2997 2.375H56.5019C57.1658 2.375 57.704 1.84334 57.704 1.1875C57.704 0.531664 57.1658 0 56.5019 0H55.2997C54.6357 0 54.0975 0.531664 54.0975 1.1875Z" fill="#212326"/>
<path d="M19.2346 38.0001H25.0745L23.3744 36.3207C22.9235 35.8753 22.312 35.6251 21.6743 35.6251H19.2346C9.93949 35.6251 2.40433 28.1818 2.40433 19.0001C2.40433 9.81828 9.93949 2.37502 19.2346 2.37501H38.4692C47.7644 2.37501 55.2995 9.81828 55.2995 19.0001C55.2995 28.1818 47.7644 35.6251 38.4692 35.6251H31.274C30.3174 35.6251 29.4001 35.2498 28.7237 34.5817L26.732 32.6142C25.6047 31.5007 24.0758 30.8751 22.4816 30.8751H19.2346C12.5952 30.8751 7.21298 25.5585 7.21298 19.0001C7.21298 12.4416 12.5952 7.12502 19.2346 7.12502H38.4692C45.1087 7.12502 50.4909 12.4416 50.4909 19.0001C50.4909 25.5585 45.1087 30.8751 38.4692 30.8751H33.8492C32.8926 30.8751 31.9753 30.4997 31.299 29.8317L29.3071 27.8641C28.1799 26.7506 26.651 26.1251 25.0568 26.1251H19.2346C15.251 26.1251 12.0216 22.9351 12.0216 19.0001C12.0216 15.065 15.251 11.875 19.2346 11.875H38.4692C42.4528 11.875 45.6822 15.065 45.6822 19.0001C45.6822 22.8871 42.5311 26.0472 38.6147 26.1236L38.6139 26.1251H36.8546C35.8981 26.1251 34.9808 25.7497 34.3044 25.0817L32.3125 23.1141C31.3876 22.2004 30.1923 21.6153 28.9123 21.4347L28.8519 21.3751H19.2346C17.9068 21.3751 16.8303 20.3117 16.8303 19.0001C16.8303 17.6884 17.9068 16.625 19.2346 16.625H38.4692C39.7971 16.625 40.8736 17.6884 40.8736 19.0001C40.8736 20.3117 39.7971 21.3751 38.4692 21.3751H33.6606L35.3607 23.0545C35.8116 23.4998 36.4232 23.7501 37.0608 23.7501H38.4692C41.125 23.7501 43.2779 21.6234 43.2779 19.0001C43.2779 16.3767 41.125 14.25 38.4692 14.25H19.2346C16.5789 14.25 14.426 16.3767 14.426 19.0001C14.426 21.6234 16.5789 23.7501 19.2346 23.7501H28.0623C29.0188 23.7501 29.9361 24.1254 30.6125 24.7935L32.6043 26.761C33.7316 27.8745 35.2604 28.5001 36.8546 28.5001H39.0703V28.4818C44.1018 28.1754 48.0866 24.0473 48.0866 19.0001C48.0866 13.7534 43.7807 9.50003 38.4692 9.50003H19.2346C13.9232 9.50003 9.61731 13.7534 9.61731 19.0001C9.61731 24.2468 13.9232 28.5001 19.2346 28.5001H25.0568C26.0134 28.5001 26.9307 28.8754 27.6071 29.5435L29.5989 31.511C30.7262 32.6245 32.255 33.2501 33.8492 33.2501H38.4692C46.4365 33.2501 52.8952 26.8702 52.8952 19.0001C52.8952 11.1299 46.4365 4.75001 38.4692 4.75001H19.2346C11.2674 4.75001 4.80866 11.1299 4.80866 19.0001C4.80866 26.8702 11.2674 33.2501 19.2346 33.2501H22.4816C23.4382 33.2501 24.3555 33.6254 25.0318 34.2935L27.0237 36.261C28.1509 37.3745 29.6798 38.0001 31.274 38.0001H38.4692C49.0922 38.0001 57.7039 29.4935 57.7039 19.0001C57.7039 8.50661 49.0922 -9.17365e-07 38.4692 0L19.2346 3.92602e-06C8.61163 4.84339e-06 -9.28691e-07 8.50662 0 19.0001C9.28691e-07 29.4935 8.61164 38.0001 19.2346 38.0001Z" fill="#212326"/>
</g>
<defs>
<clipPath id="clip0_211_2538">
<rect width="28.5388" height="18.7939" fill="white" transform="scale(2.02194)"/>
</clipPath>
</defs>
</svg>
