<svg width="73" height="28" viewBox="0 0 73 28" fill="none" xmlns="http://www.w3.org/2000/svg">
<g clip-path="url(#clip0_211_2542)">
<path d="M17.2804 0C14.4374 0 11.7108 1.12938 9.70051 3.1397L3.1397 9.70051C1.12938 11.7108 0 14.4374 0 17.2804C0 23.2007 4.79933 28 10.7196 28C13.5626 28 16.2892 26.8706 18.2995 24.8603L22.8376 20.3221C22.8376 20.322 22.8377 20.3222 22.8376 20.3221L36.0603 7.09949C37.0204 6.13938 38.3226 5.6 39.6804 5.6C41.9536 5.6 43.8809 7.08158 44.549 9.1318L48.7221 4.95876C46.8183 1.97712 43.4803 0 39.6804 0C36.8374 0 34.1108 1.12938 32.1005 3.1397L14.3397 20.9005C13.3796 21.8606 12.0774 22.4 10.7196 22.4C7.89212 22.4 5.6 20.1079 5.6 17.2804C5.6 15.9226 6.13938 14.6204 7.09949 13.6603L13.6603 7.09949C14.6204 6.13938 15.9226 5.6 17.2804 5.6C19.5537 5.6 21.4809 7.08165 22.149 9.13193L26.3222 4.95887C24.4184 1.97717 21.0804 0 17.2804 0Z" fill="#394149"/>
<path d="M36.7397 20.9005C35.7796 21.8606 34.4774 22.4 33.1196 22.4C30.8467 22.4 28.9196 20.9188 28.2513 18.8689L24.0783 23.0419C25.9821 26.0231 29.32 28 33.1196 28C35.9626 28 38.6892 26.8706 40.6995 24.8603L58.4603 7.09949C59.4204 6.13938 60.7226 5.6 62.0804 5.6C64.9079 5.6 67.2 7.89212 67.2 10.7196C67.2 12.0774 66.6606 13.3796 65.7005 14.3397L59.1397 20.9005C58.1796 21.8606 56.8774 22.4 55.5196 22.4C53.2465 22.4 51.3193 20.9185 50.6511 18.8685L46.4781 23.0415C48.3819 26.023 51.7198 28 55.5196 28C58.3626 28 61.0892 26.8706 63.0995 24.8603L69.6603 18.2995C71.6706 16.2892 72.8 13.5626 72.8 10.7196C72.8 4.79933 68.0007 0 62.0804 0C59.2374 0 56.5108 1.12938 54.5005 3.1397L36.7397 20.9005Z" fill="#394149"/>
</g>
<defs>
<clipPath id="clip0_211_2542">
<rect width="36.1956" height="13.9214" fill="white" transform="scale(2.01129)"/>
</clipPath>
</defs>
</svg>
