<svg width="56" height="39" viewBox="0 0 56 39" fill="none" xmlns="http://www.w3.org/2000/svg">
<g clip-path="url(#clip0_211_2515)">
<path fill-rule="evenodd" clip-rule="evenodd" d="M13.9087 5.73106L0 19.5C2.782 22.254 5.96001 24.5751 9.42494 26.391C10.3827 28.9059 11.8839 31.2644 13.9285 33.2885C21.6211 40.9037 34.0932 40.9037 41.7856 33.2885C43.8303 31.2644 45.3315 28.9059 46.2893 26.3908C49.7541 24.5751 52.9322 22.254 55.7142 19.5L41.8167 5.74226C41.8064 5.73197 41.7961 5.72167 41.7856 5.71139C34.0932 -1.9038 21.6211 -1.9038 13.9285 5.71139C13.922 5.71795 13.9153 5.7245 13.9087 5.73106ZM40.4547 28.8751C36.4015 30.2292 32.1467 30.9227 27.8571 30.9227C23.5675 30.9227 19.3128 30.2292 15.2596 28.8751C15.6987 29.4519 16.1836 30.0054 16.7142 30.5308C22.8683 36.623 32.8459 36.623 38.9999 30.5308C39.5306 30.0054 40.0156 29.4519 40.4547 28.8751ZM16.9999 8.19332C18.045 8.87681 19.1562 9.46168 20.319 9.93851C22.7088 10.9185 25.2703 11.4228 27.8571 11.4228C30.4439 11.4228 33.0053 10.9185 35.3952 9.93851C36.558 9.46168 37.6692 8.87679 38.7144 8.19329C32.6371 2.46887 23.0771 2.46889 16.9999 8.19332Z" fill="#3B4158"/>
</g>
<defs>
<clipPath id="clip0_211_2515">
<rect width="27.8428" height="19.4899" fill="white" transform="scale(2.00103)"/>
</clipPath>
</defs>
</svg>
