<svg width="156" height="29" viewBox="0 0 156 29" fill="none" xmlns="http://www.w3.org/2000/svg">
<path d="M23.8325 0V28.4933H18.6291L6.2329 10.5598H6.02421V28.4933H0V0H5.28684L17.5857 17.9196H17.8361V0H23.8325Z" fill="#263238"/>
<path d="M38.4374 28.9107C36.2392 28.9107 34.347 28.4654 32.761 27.575C31.1842 26.6753 29.9692 25.4046 29.1159 23.7629C28.2625 22.112 27.8359 20.1595 27.8359 17.9057C27.8359 15.7075 28.2625 13.7782 29.1159 12.118C29.9692 10.4577 31.1703 9.16385 32.7193 8.23633C34.2775 7.30882 36.1047 6.84506 38.2009 6.84506C39.6107 6.84506 40.9231 7.0723 42.1382 7.52679C43.3625 7.97199 44.4291 8.64444 45.3381 9.54413C46.2563 10.4438 46.9705 11.5754 47.4807 12.9388C47.9908 14.293 48.2459 15.8791 48.2459 17.697V19.3248H30.2011V15.6518H42.6669C42.6669 14.7985 42.4814 14.0426 42.1104 13.384C41.7393 12.7255 41.2246 12.2107 40.566 11.8397C39.9168 11.4595 39.1609 11.2693 38.2983 11.2693C37.3986 11.2693 36.6009 11.478 35.9053 11.8954C35.2189 12.3035 34.681 12.8554 34.2914 13.551C33.9018 14.2374 33.7024 15.0026 33.6931 15.8466V19.3387C33.6931 20.3961 33.8879 21.3097 34.2775 22.0795C34.6763 22.8493 35.2375 23.4429 35.9609 23.8603C36.6844 24.2777 37.5423 24.4864 38.5348 24.4864C39.1933 24.4864 39.7962 24.3936 40.3434 24.2081C40.8907 24.0226 41.3591 23.7444 41.7486 23.3734C42.1382 23.0024 42.435 22.5479 42.639 22.0099L48.1206 22.3717C47.8424 23.6887 47.272 24.8389 46.4094 25.822C45.5561 26.7959 44.4523 27.5565 43.0982 28.1037C41.7533 28.6417 40.1997 28.9107 38.4374 28.9107Z" fill="#263238"/>
<path d="M56.6839 7.12332L60.6073 14.5945L64.6281 7.12332H70.708L64.5168 17.8083L70.8749 28.4933H64.8229L60.6073 21.1056L56.4613 28.4933H50.3397L56.6839 17.8083L50.5623 7.12332H56.6839Z" fill="#263238"/>
<path d="M83.1181 28.9107C80.9292 28.9107 79.0463 28.4469 77.4696 27.5194C75.902 26.5826 74.6963 25.2841 73.8522 23.6238C73.0175 21.9636 72.6001 20.0529 72.6001 17.8918C72.6001 15.7028 73.0221 13.7829 73.8662 12.1319C74.7195 10.4716 75.9299 9.17776 77.4974 8.25025C79.0649 7.31346 80.9292 6.84506 83.0903 6.84506C84.9546 6.84506 86.587 7.18361 87.9876 7.86069C89.3881 8.53778 90.4965 9.48848 91.3127 10.7128C92.1289 11.9371 92.5788 13.3748 92.6622 15.0257H87.0693C86.9116 13.9591 86.4943 13.1012 85.8172 12.4519C85.1494 11.7934 84.2729 11.4641 83.1877 11.4641C82.2694 11.4641 81.4671 11.7145 80.7808 12.2154C80.1037 12.707 79.575 13.4258 79.1947 14.3718C78.8144 15.3179 78.6243 16.4634 78.6243 17.8083C78.6243 19.1717 78.8098 20.3311 79.1808 21.2865C79.5611 22.2418 80.0944 22.9699 80.7808 23.4708C81.4671 23.9716 82.2694 24.2221 83.1877 24.2221C83.8648 24.2221 84.4723 24.0829 85.0102 23.8047C85.5575 23.5264 86.0073 23.123 86.3598 22.5943C86.7215 22.0563 86.958 21.4117 87.0693 20.6604H92.6622C92.5695 22.2928 92.1243 23.7305 91.3266 24.9733C90.5382 26.2069 89.4484 27.1716 88.0571 27.8672C86.6659 28.5628 85.0195 28.9107 83.1181 28.9107Z" fill="#263238"/>
<path d="M106.196 28.9107C103.998 28.9107 102.106 28.4654 100.519 27.575C98.9427 26.6753 97.7276 25.4046 96.8743 23.7629C96.021 22.112 95.5943 20.1595 95.5943 17.9057C95.5943 15.7075 96.021 13.7782 96.8743 12.118C97.7276 10.4577 98.9288 9.16385 100.478 8.23633C102.036 7.30882 103.863 6.84506 105.959 6.84506C107.369 6.84506 108.682 7.0723 109.897 7.52679C111.121 7.97199 112.188 8.64444 113.097 9.54413C114.015 10.4438 114.729 11.5754 115.239 12.9388C115.749 14.293 116.004 15.8791 116.004 17.697V19.3248H97.9595V15.6518H110.425C110.425 14.7985 110.24 14.0426 109.869 13.384C109.498 12.7255 108.983 12.2107 108.324 11.8397C107.675 11.4595 106.919 11.2693 106.057 11.2693C105.157 11.2693 104.359 11.478 103.664 11.8954C102.977 12.3035 102.439 12.8554 102.05 13.551C101.66 14.2374 101.461 15.0026 101.452 15.8466V19.3387C101.452 20.3961 101.646 21.3097 102.036 22.0795C102.435 22.8493 102.996 23.4429 103.719 23.8603C104.443 24.2777 105.301 24.4864 106.293 24.4864C106.952 24.4864 107.555 24.3936 108.102 24.2081C108.649 24.0226 109.118 23.7444 109.507 23.3734C109.897 23.0024 110.193 22.5479 110.397 22.0099L115.879 22.3717C115.601 23.6887 115.03 24.8389 114.168 25.822C113.315 26.7959 112.211 27.5565 110.857 28.1037C109.512 28.6417 107.958 28.9107 106.196 28.9107Z" fill="#263238"/>
<path d="M125.799 16.1388V28.4933H119.872V7.12332H125.521V10.8937H125.771C126.244 9.6508 127.037 8.66763 128.15 7.94417C129.263 7.21143 130.613 6.84506 132.199 6.84506C133.683 6.84506 134.977 7.16969 136.08 7.81895C137.184 8.46821 138.042 9.39573 138.654 10.6015C139.266 11.798 139.572 13.2264 139.572 14.8866V28.4933H133.646V15.944C133.655 14.6362 133.321 13.6159 132.644 12.8832C131.967 12.1412 131.035 11.7702 129.847 11.7702C129.05 11.7702 128.345 11.9418 127.733 12.2849C127.13 12.6281 126.657 13.129 126.314 13.7875C125.98 14.4368 125.808 15.2205 125.799 16.1388Z" fill="#263238"/>
<path d="M155.61 7.12332V11.5754H142.741V7.12332H155.61ZM145.663 2.00343H151.59V21.9265C151.59 22.4737 151.673 22.9004 151.84 23.2064C152.007 23.5032 152.239 23.7119 152.536 23.8325C152.842 23.9531 153.194 24.0134 153.593 24.0134C153.871 24.0134 154.15 23.9902 154.428 23.9438C154.706 23.8882 154.919 23.8464 155.068 23.8186L156 28.2289C155.703 28.3217 155.286 28.4283 154.748 28.5489C154.21 28.6788 153.556 28.7576 152.786 28.7854C151.358 28.8411 150.106 28.6509 149.03 28.215C147.963 27.7791 147.133 27.102 146.539 26.1838C145.946 25.2655 145.654 24.1061 145.663 22.7056V2.00343Z" fill="#263238"/>
</svg>
