<svg width="67" height="67" viewBox="0 0 67 67" fill="none" xmlns="http://www.w3.org/2000/svg">
<mask id="path-1-inside-1_211_2338" fill="white">
<path d="M39.5183 33.0041C39.1822 33.0041 38.8701 32.9117 38.5929 32.7631V32.767C38.5929 33.2958 38.3874 33.7924 38.0145 34.1644C37.6416 34.5373 37.1453 34.7428 36.6171 34.7428C36.2761 34.7428 35.9601 34.6481 35.6799 34.4955C35.6516 34.9793 35.4582 35.4314 35.1133 35.7768C34.7404 36.1497 34.2441 36.3552 33.7156 36.3552C32.6655 36.3552 31.8128 35.5298 31.7514 34.4952C31.4264 34.6708 31.0591 34.7629 30.6802 34.7385C29.6473 34.6708 28.8383 33.7783 28.8383 32.7062V23.8194L27.8264 25.5725C27.441 26.2431 26.7195 26.6594 25.9427 26.6594C25.5642 26.6594 25.1903 26.5601 24.8591 26.3703C24.4468 26.1312 24.1518 25.7475 24.0291 25.2883C23.9058 24.8289 23.9696 24.3485 24.208 23.9367C24.2083 23.9367 27.5189 18.2038 27.7209 17.8516C27.7449 17.7987 27.8133 17.6451 27.8715 17.5142C27.9271 17.3892 27.9748 17.261 28.0205 17.1321C29.0188 14.3135 31.4909 12.5627 34.4723 12.5627C38.3439 12.5627 41.4936 15.9781 41.4936 20.1764L41.494 31.028C41.494 31.5562 41.2888 32.0524 40.9162 32.4257C40.5433 32.7986 40.047 33.0042 39.5182 33.0042L39.5183 33.0041ZM34.4723 13.6125C31.9105 13.6125 29.8687 15.0595 29.01 17.4832C28.9551 17.6371 28.8979 17.791 28.8311 17.941C28.6374 18.3754 28.6374 18.3754 28.5828 18.4378L28.5756 18.4316C28.3053 18.9417 27.5022 20.3324 25.117 24.4622C25.019 24.6315 24.9931 24.8282 25.0431 25.0163C25.0937 25.2044 25.215 25.3629 25.3831 25.4599C25.9047 25.7595 26.619 25.5661 26.9162 25.0482L28.9088 21.5984C29.0278 21.3929 29.2685 21.292 29.4994 21.3544C29.7289 21.4159 29.8884 21.6241 29.8884 21.8615V32.7065C29.8884 33.2182 30.2745 33.6598 30.7491 33.691C31.0227 33.7055 31.2778 33.6138 31.4696 33.4224C31.6439 33.2481 31.7399 33.0159 31.7399 32.7676V25.6749C31.7399 25.3848 31.975 25.1497 32.2651 25.1497C32.5551 25.1497 32.7903 25.3845 32.7903 25.6749L32.7899 34.3798C32.7899 34.8902 33.2053 35.3055 33.7156 35.3055C33.9636 35.3055 34.1964 35.2095 34.3711 35.0352C34.5454 34.8606 34.6414 34.6278 34.6414 34.3798V25.6749C34.6414 25.3848 34.8762 25.1497 35.1666 25.1497C35.4566 25.1497 35.6917 25.3845 35.6917 25.6749L35.6914 32.686V32.7676C35.6914 33.2777 36.1068 33.693 36.6175 33.693C36.8651 33.693 37.0973 33.5966 37.2729 33.4217C37.4472 33.2477 37.5432 33.0155 37.5432 32.7673V25.6745C37.5432 25.3845 37.778 25.1493 38.0684 25.1493C38.3584 25.1493 38.5936 25.3841 38.5936 25.6745L38.5929 31.0283C38.5929 31.539 39.0082 31.9543 39.5183 31.9543C39.7666 31.9543 39.9987 31.858 40.173 31.684C40.348 31.5091 40.4437 31.2762 40.4437 31.0283L40.444 20.1766C40.444 16.5576 37.7652 13.6126 34.4723 13.6126L34.4723 13.6125Z"/>
</mask>
<path d="M39.5183 33.0041C39.1822 33.0041 38.8701 32.9117 38.5929 32.7631V32.767C38.5929 33.2958 38.3874 33.7924 38.0145 34.1644C37.6416 34.5373 37.1453 34.7428 36.6171 34.7428C36.2761 34.7428 35.9601 34.6481 35.6799 34.4955C35.6516 34.9793 35.4582 35.4314 35.1133 35.7768C34.7404 36.1497 34.2441 36.3552 33.7156 36.3552C32.6655 36.3552 31.8128 35.5298 31.7514 34.4952C31.4264 34.6708 31.0591 34.7629 30.6802 34.7385C29.6473 34.6708 28.8383 33.7783 28.8383 32.7062V23.8194L27.8264 25.5725C27.441 26.2431 26.7195 26.6594 25.9427 26.6594C25.5642 26.6594 25.1903 26.5601 24.8591 26.3703C24.4468 26.1312 24.1518 25.7475 24.0291 25.2883C23.9058 24.8289 23.9696 24.3485 24.208 23.9367C24.2083 23.9367 27.5189 18.2038 27.7209 17.8516C27.7449 17.7987 27.8133 17.6451 27.8715 17.5142C27.9271 17.3892 27.9748 17.261 28.0205 17.1321C29.0188 14.3135 31.4909 12.5627 34.4723 12.5627C38.3439 12.5627 41.4936 15.9781 41.4936 20.1764L41.494 31.028C41.494 31.5562 41.2888 32.0524 40.9162 32.4257C40.5433 32.7986 40.047 33.0042 39.5182 33.0042L39.5183 33.0041ZM34.4723 13.6125C31.9105 13.6125 29.8687 15.0595 29.01 17.4832C28.9551 17.6371 28.8979 17.791 28.8311 17.941C28.6374 18.3754 28.6374 18.3754 28.5828 18.4378L28.5756 18.4316C28.3053 18.9417 27.5022 20.3324 25.117 24.4622C25.019 24.6315 24.9931 24.8282 25.0431 25.0163C25.0937 25.2044 25.215 25.3629 25.3831 25.4599C25.9047 25.7595 26.619 25.5661 26.9162 25.0482L28.9088 21.5984C29.0278 21.3929 29.2685 21.292 29.4994 21.3544C29.7289 21.4159 29.8884 21.6241 29.8884 21.8615V32.7065C29.8884 33.2182 30.2745 33.6598 30.7491 33.691C31.0227 33.7055 31.2778 33.6138 31.4696 33.4224C31.6439 33.2481 31.7399 33.0159 31.7399 32.7676V25.6749C31.7399 25.3848 31.975 25.1497 32.2651 25.1497C32.5551 25.1497 32.7903 25.3845 32.7903 25.6749L32.7899 34.3798C32.7899 34.8902 33.2053 35.3055 33.7156 35.3055C33.9636 35.3055 34.1964 35.2095 34.3711 35.0352C34.5454 34.8606 34.6414 34.6278 34.6414 34.3798V25.6749C34.6414 25.3848 34.8762 25.1497 35.1666 25.1497C35.4566 25.1497 35.6917 25.3845 35.6917 25.6749L35.6914 32.686V32.7676C35.6914 33.2777 36.1068 33.693 36.6175 33.693C36.8651 33.693 37.0973 33.5966 37.2729 33.4217C37.4472 33.2477 37.5432 33.0155 37.5432 32.7673V25.6745C37.5432 25.3845 37.778 25.1493 38.0684 25.1493C38.3584 25.1493 38.5936 25.3841 38.5936 25.6745L38.5929 31.0283C38.5929 31.539 39.0082 31.9543 39.5183 31.9543C39.7666 31.9543 39.9987 31.858 40.173 31.684C40.348 31.5091 40.4437 31.2762 40.4437 31.0283L40.444 20.1766C40.444 16.5576 37.7652 13.6126 34.4723 13.6126L34.4723 13.6125Z" fill="#4CAF4F"/>
<path d="M39.5183 33.0041V31.143H46.0937L40.4937 34.5892L39.5183 33.0041ZM38.5929 32.7631H36.7318V29.6534L39.4724 31.1229L38.5929 32.7631ZM38.0145 34.1644L36.6985 32.8484L36.7002 32.8466L38.0145 34.1644ZM35.6799 34.4955L33.822 34.3869L33.9932 31.4578L36.57 32.861L35.6799 34.4955ZM35.1133 35.7768L36.43 37.0921L36.4293 37.0928L35.1133 35.7768ZM31.7514 34.4952L30.8665 32.8579L33.436 31.4691L33.6092 34.3848L31.7514 34.4952ZM30.6802 34.7385L30.5609 36.5958L30.5585 36.5957L30.6802 34.7385ZM28.8383 23.8194L27.2265 22.889L30.6994 16.8723V23.8194H28.8383ZM27.8264 25.5725L26.2128 24.6451L26.2145 24.6421L27.8264 25.5725ZM24.8591 26.3703L23.9338 27.9851L23.9257 27.9804L24.8591 26.3703ZM24.0291 25.2883L25.8266 24.8059L25.8271 24.8079L24.0291 25.2883ZM24.208 23.9367L22.5974 23.0041L23.1351 22.0756H24.208V23.9367ZM27.7209 17.8516L29.4159 18.6202L29.3793 18.7007L29.3353 18.7775L27.7209 17.8516ZM27.8715 17.5142L26.171 16.758L26.171 16.7579L27.8715 17.5142ZM28.0205 17.1321L29.7748 17.7535L29.7746 17.754L28.0205 17.1321ZM41.4936 20.1764L39.6325 20.1764V20.1764H41.4936ZM41.494 31.028L43.3551 31.028V31.028H41.494ZM40.9162 32.4257L42.2334 33.7405L42.2322 33.7417L40.9162 32.4257ZM39.5182 33.0042V34.8653H32.9429L38.5428 31.4191L39.5182 33.0042ZM34.4723 13.6125V11.7514H36.9397L36.2618 14.1238L34.4723 13.6125ZM29.01 17.4832L30.7643 18.1047L30.7629 18.1087L29.01 17.4832ZM28.8311 17.941L30.5314 18.6979L30.5309 18.6988L28.8311 17.941ZM28.5828 18.4378L29.9844 19.6624L28.7668 21.0559L27.3664 19.8464L28.5828 18.4378ZM28.5756 18.4316L26.9312 17.5601L28.0247 15.4967L29.7921 17.0231L28.5756 18.4316ZM25.117 24.4622L26.7287 25.393L26.7279 25.3943L25.117 24.4622ZM25.0431 25.0163L23.2459 25.5001L23.2444 25.4943L25.0431 25.0163ZM25.3831 25.4599L24.4561 27.0737L24.4526 27.0717L25.3831 25.4599ZM26.9162 25.0482L25.3021 24.1218L25.3046 24.1173L26.9162 25.0482ZM28.9088 21.5984L27.2972 20.6676L27.2983 20.6656L28.9088 21.5984ZM29.4994 21.3544L29.0178 23.1522L29.0131 23.1509L29.4994 21.3544ZM30.7491 33.691L30.6508 35.5497L30.6268 35.5481L30.7491 33.691ZM31.4696 33.4224L32.7856 34.7384L32.7844 34.7395L31.4696 33.4224ZM32.7903 25.6749H34.6514V25.675L32.7903 25.6749ZM32.7899 34.3798H30.9288V34.3797L32.7899 34.3798ZM34.3711 35.0352L35.6883 36.35L35.6858 36.3525L34.3711 35.0352ZM35.6917 25.6749H37.5529V25.675L35.6917 25.6749ZM35.6914 32.686H33.8303V32.686L35.6914 32.686ZM37.2729 33.4217L38.5876 34.7389L38.5864 34.7401L37.2729 33.4217ZM38.5936 25.6745H40.4547V25.6747L38.5936 25.6745ZM38.5929 31.0283H36.7318V31.0281L38.5929 31.0283ZM40.173 31.684L41.489 33L41.4878 33.0013L40.173 31.684ZM40.4437 31.0283H38.5826V31.0282L40.4437 31.0283ZM40.444 20.1766H42.3051V20.1767L40.444 20.1766ZM34.4723 13.6126V15.4737H32.005L32.6828 13.1013L34.4723 13.6126ZM39.5183 34.8652C38.833 34.8652 38.2212 34.6755 37.7135 34.4033L39.4724 31.1229C39.4965 31.1358 39.5117 31.1407 39.5178 31.1423C39.523 31.1437 39.5223 31.143 39.5183 31.143V34.8652ZM40.454 32.7631V32.767H36.7318V32.7631H40.454ZM40.454 32.767C40.454 33.7879 40.0534 34.7593 39.3287 35.4821L36.7002 32.8466C36.7135 32.8334 36.7201 32.822 36.724 32.8127C36.7278 32.8034 36.7318 32.789 36.7318 32.767H40.454ZM39.3305 35.4804C38.6082 36.2026 37.6385 36.6039 36.6171 36.6039V32.8817C36.6385 32.8817 36.6526 32.8778 36.6621 32.8739C36.6716 32.8699 36.6839 32.8629 36.6985 32.8484L39.3305 35.4804ZM36.6171 36.6039C35.9229 36.6039 35.3034 36.4097 34.7898 36.13L36.57 32.861C36.5942 32.8742 36.6096 32.8793 36.6157 32.8809C36.6209 32.8823 36.6205 32.8817 36.6171 32.8817V36.6039ZM37.5378 34.6041C37.4843 35.5202 37.1127 36.4087 36.43 37.0921L33.7966 34.4614C33.8035 34.4545 33.8075 34.4484 33.8109 34.4407C33.8145 34.4324 33.8203 34.4153 33.822 34.3869L37.5378 34.6041ZM36.4293 37.0928C35.7069 37.8151 34.7371 38.2163 33.7156 38.2163V34.4941C33.7373 34.4941 33.7514 34.4902 33.761 34.4862C33.7705 34.4823 33.7827 34.4753 33.7973 34.4608L36.4293 37.0928ZM33.7156 38.2163C31.6609 38.2163 30.0122 36.6037 29.8935 34.6055L33.6092 34.3848C33.6111 34.4165 33.624 34.4443 33.6469 34.4661C33.6581 34.4768 33.6694 34.4836 33.6793 34.4876C33.688 34.4912 33.699 34.4941 33.7156 34.4941V38.2163ZM32.6363 36.1325C32.0351 36.4574 31.3223 36.6447 30.5609 36.5958L30.7996 32.8813C30.7996 32.8813 30.8036 32.8816 30.8134 32.8794C30.8239 32.8769 30.8421 32.8711 30.8665 32.8579L32.6363 36.1325ZM30.5585 36.5957C28.492 36.4601 26.9772 34.7028 26.9772 32.7062H30.6994C30.6994 32.7691 30.7223 32.8176 30.7509 32.8492C30.7788 32.88 30.7978 32.8811 30.802 32.8814L30.5585 36.5957ZM26.9772 32.7062V23.8194H30.6994V32.7062H26.9772ZM30.4502 24.7498L29.4383 26.5029L26.2145 24.6421L27.2265 22.889L30.4502 24.7498ZM29.4399 26.5C28.7208 27.7511 27.3822 28.5205 25.9427 28.5205V24.7983C26.0568 24.7983 26.1612 24.735 26.2128 24.6451L29.4399 26.5ZM25.9427 28.5205C25.2389 28.5205 24.5461 28.3359 23.9339 27.9851L25.7844 24.7555C25.8345 24.7842 25.8895 24.7983 25.9427 24.7983V28.5205ZM23.9257 27.9804C23.0901 27.496 22.4819 26.7077 22.2311 25.7687L25.8271 24.8079C25.8255 24.8016 25.8208 24.7903 25.8119 24.7787C25.803 24.7671 25.7947 24.7615 25.7926 24.7602L23.9257 27.9804ZM22.2316 25.7708C21.9798 24.8326 22.1116 23.8431 22.5974 23.0041L25.8186 24.8693C25.8213 24.8647 25.8259 24.8541 25.8279 24.8391C25.8299 24.824 25.8282 24.8119 25.8266 24.8059L22.2316 25.7708ZM24.208 22.0756C23.2951 22.3149 22.6117 22.9798 22.6066 22.9884C22.6049 22.9913 22.6024 22.9956 22.6016 22.997C22.6011 22.9978 22.6003 22.9991 22.6001 22.9996C22.5999 22.9999 22.5996 23.0005 22.5995 23.0006C22.5992 23.001 22.5993 23.0009 22.6 22.9997C22.6013 22.9975 22.6034 22.9938 22.6065 22.9885C22.6126 22.9779 22.6218 22.962 22.6339 22.9411C22.6581 22.8991 22.6937 22.8375 22.7392 22.7588C22.8301 22.6014 22.9602 22.3762 23.117 22.1047C23.4305 21.5618 23.8506 20.8342 24.2771 20.0956C25.1314 18.616 26.0072 17.0987 26.1064 16.9257L29.3353 18.7775C29.2326 18.9567 28.3521 20.4819 27.5006 21.9568C27.0741 22.6955 26.6539 23.4232 26.3403 23.9662C26.1835 24.2377 26.0533 24.4631 25.9623 24.6206C25.9168 24.6994 25.8811 24.7612 25.8567 24.8034C25.8445 24.8245 25.8351 24.8409 25.8286 24.852C25.8254 24.8575 25.8228 24.8621 25.8209 24.8654C25.82 24.867 25.8188 24.8689 25.8178 24.8708C25.8174 24.8714 25.8162 24.8735 25.8147 24.8759C25.8138 24.8775 25.8112 24.8819 25.8095 24.8849C25.8043 24.8936 25.121 25.5585 24.208 25.7978V22.0756ZM26.0259 17.0831C26.0464 17.0379 26.1113 16.8922 26.171 16.758L29.572 18.2705C29.5153 18.398 29.4434 18.5594 29.4159 18.6202L26.0259 17.0831ZM26.171 16.7579C26.1968 16.6998 26.2255 16.6254 26.2663 16.5102L29.7746 17.754C29.7241 17.8965 29.6573 18.0787 29.572 18.2705L26.171 16.7579ZM26.2662 16.5107C27.5267 12.952 30.6994 10.7016 34.4723 10.7016V14.4238C32.2824 14.4238 30.511 15.675 29.7748 17.7535L26.2662 16.5107ZM34.4723 10.7016C39.5108 10.7016 43.3548 15.095 43.3548 20.1764H39.6325C39.6325 16.8612 37.177 14.4238 34.4723 14.4238V10.7016ZM43.3548 20.1763L43.3551 31.028L39.6329 31.0281L39.6325 20.1764L43.3548 20.1763ZM43.3551 31.028C43.3551 32.0486 42.9547 33.0179 42.2334 33.7405L39.599 31.1109C39.6137 31.0962 39.6208 31.0837 39.6249 31.0739C39.6289 31.0641 39.6329 31.0497 39.6329 31.028H43.3551ZM42.2322 33.7417C41.5097 34.4642 40.5399 34.8653 39.5182 34.8653V31.1431C39.5401 31.1431 39.5544 31.1391 39.5639 31.1352C39.5734 31.1312 39.5857 31.1242 39.6002 31.1097L42.2322 33.7417ZM38.5428 31.4191L38.5429 31.4191L40.4937 34.5892L40.4937 34.5892L38.5428 31.4191ZM34.4723 15.4736C32.7028 15.4736 31.361 16.4202 30.7643 18.1047L27.2558 16.8617C28.3763 13.6988 31.1182 11.7514 34.4723 11.7514V15.4736ZM30.7629 18.1087C30.7041 18.2733 30.6278 18.4812 30.5314 18.6979L27.1309 17.184C27.168 17.1008 27.2061 17.0009 27.2572 16.8577L30.7629 18.1087ZM30.5309 18.6988C30.4457 18.89 30.3743 19.0514 30.3197 19.1608C30.2858 19.2286 30.2308 19.3332 30.1512 19.4491C30.0706 19.5664 29.9908 19.655 29.9844 19.6624L27.1813 17.2133C27.1857 17.2083 27.1843 17.2099 27.1821 17.2125C27.1792 17.2158 27.172 17.2242 27.1625 17.2358C27.1527 17.2478 27.1403 17.2633 27.1263 17.2817C27.1123 17.3002 27.0979 17.32 27.0836 17.3408C27.0545 17.3832 27.032 17.4204 27.0161 17.4485C27.0012 17.4747 26.992 17.4929 26.99 17.497C26.9879 17.5012 26.9892 17.4987 26.9955 17.4852C27.0016 17.4721 27.0103 17.4532 27.0228 17.4257C27.0351 17.3984 27.0499 17.3655 27.0681 17.3248C27.0862 17.2842 27.107 17.2376 27.1313 17.1831L30.5309 18.6988ZM27.3664 19.8464L27.3592 19.8401L29.7921 17.0231L29.7993 17.0293L27.3664 19.8464ZM30.2201 19.3031C29.9288 19.8527 29.0972 21.292 26.7287 25.393L23.5054 23.5314C25.9072 19.3728 26.6818 18.0306 26.9312 17.5601L30.2201 19.3031ZM26.7279 25.3943C26.8768 25.1369 26.9183 24.8265 26.8417 24.5383L23.2444 25.4943C23.0678 24.8299 23.1613 24.1261 23.5062 23.53L26.7279 25.3943ZM26.8402 24.5324C26.7636 24.248 26.5754 23.9992 26.3136 23.8481L24.4526 27.0717C23.8547 26.7266 23.4238 26.1608 23.2459 25.5001L26.8402 24.5324ZM26.3101 23.8461C26.0982 23.7244 25.8922 23.7252 25.7499 23.7635C25.6082 23.8017 25.4265 23.905 25.3021 24.1218L28.5304 25.9746C27.7193 27.3878 25.8656 27.8833 24.4561 27.0737L26.3101 23.8461ZM25.3046 24.1173L27.2972 20.6676L30.5204 22.5293L28.5278 25.979L25.3046 24.1173ZM27.2983 20.6656C27.8359 19.7376 28.9331 19.2731 29.9856 19.558L29.0131 23.1509C29.604 23.3108 30.2198 23.0483 30.5192 22.5313L27.2983 20.6656ZM29.981 19.5567C31.0251 19.8364 31.7495 20.7826 31.7495 21.8615H28.0273C28.0273 22.4656 28.4327 22.9954 29.0178 23.1522L29.981 19.5567ZM31.7495 21.8615V32.7065H28.0273V21.8615H31.7495ZM31.7495 32.7065C31.7495 32.4944 31.671 32.3016 31.542 32.1541C31.4132 32.0068 31.186 31.8547 30.8713 31.834L30.6268 35.5481C29.0601 35.445 28.0273 34.0803 28.0273 32.7065H31.7495ZM30.8473 31.8325C30.6275 31.8209 30.3589 31.9014 30.1547 32.1052L32.7844 34.7395C32.1968 35.3261 31.4179 35.5901 30.6508 35.5496L30.8473 31.8325ZM30.1536 32.1064C29.977 32.283 29.8788 32.525 29.8788 32.7676H33.601C33.601 33.5068 33.3108 34.2132 32.7856 34.7384L30.1536 32.1064ZM29.8788 32.7676V25.6749H33.601V32.7676H29.8788ZM29.8788 25.6749C29.8788 24.357 30.9472 23.2886 32.2651 23.2886V27.0108C33.0029 27.0108 33.601 26.4127 33.601 25.6749H29.8788ZM32.2651 23.2886C33.5822 23.2886 34.6514 24.3559 34.6514 25.6749H30.9291C30.9291 26.4131 31.528 27.0108 32.2651 27.0108V23.2886ZM34.6514 25.675L34.651 34.3799L30.9288 34.3797L30.9291 25.6748L34.6514 25.675ZM34.651 34.3798C34.651 33.8623 34.2331 33.4444 33.7156 33.4444V37.1666C32.1774 37.1666 30.9288 35.9181 30.9288 34.3798H34.651ZM33.7156 33.4444C33.4734 33.4444 33.2326 33.542 33.0563 33.7179L35.6858 36.3525C35.1603 36.877 34.4538 37.1666 33.7156 37.1666V33.4444ZM33.0538 33.7204C32.8779 33.8967 32.7803 34.1376 32.7803 34.3798H36.5025C36.5025 35.1179 36.2128 35.8244 35.6883 36.35L33.0538 33.7204ZM32.7803 34.3798V25.6749H36.5025V34.3798H32.7803ZM32.7803 25.6749C32.7803 24.3577 33.8475 23.2886 35.1666 23.2886V27.0108C35.9048 27.0108 36.5025 26.4119 36.5025 25.6749H32.7803ZM35.1666 23.2886C36.4837 23.2886 37.5529 24.3559 37.5529 25.6749H33.8306C33.8306 26.4131 34.4295 27.0108 35.1666 27.0108V23.2886ZM37.5529 25.675L37.5525 32.6861L33.8303 32.686L33.8306 25.6748L37.5529 25.675ZM37.5525 32.686V32.7676H33.8303V32.686H37.5525ZM37.5525 32.7676C37.5525 32.2489 37.1337 31.8319 36.6175 31.8319V35.5541C35.0798 35.5541 33.8303 34.3064 33.8303 32.7676H37.5525ZM36.6175 31.8319C36.3702 31.8319 36.1308 31.9324 35.9593 32.1032L38.5864 34.7401C38.0638 35.2608 37.36 35.5541 36.6175 35.5541V31.8319ZM35.9581 32.1044C35.7801 32.2821 35.6821 32.5249 35.6821 32.7673H39.4043C39.4043 33.5061 39.1143 34.2133 38.5876 34.7389L35.9581 32.1044ZM35.6821 32.7673V25.6745H39.4043V32.7673H35.6821ZM35.6821 25.6745C35.6821 24.3573 36.7494 23.2882 38.0684 23.2882V27.0104C38.8066 27.0104 39.4043 26.4116 39.4043 25.6745H35.6821ZM38.0684 23.2882C39.3855 23.2882 40.4547 24.3555 40.4547 25.6745H36.7325C36.7325 26.4128 37.3313 27.0104 38.0684 27.0104V23.2882ZM40.4547 25.6747L40.454 31.0285L36.7318 31.0281L36.7325 25.6743L40.4547 25.6747ZM40.454 31.0283C40.454 30.512 40.037 30.0932 39.5183 30.0932V33.8155C37.9795 33.8155 36.7318 32.566 36.7318 31.0283H40.454ZM39.5183 30.0932C39.2742 30.0932 39.0333 30.1921 38.8583 30.3668L41.4878 33.0013C40.9642 33.5239 40.259 33.8155 39.5183 33.8155V30.0932ZM38.857 30.368C38.6798 30.5452 38.5826 30.7871 38.5826 31.0283H42.3048C42.3048 31.7654 42.0162 32.4729 41.489 33L38.857 30.368ZM38.5826 31.0282L38.5829 20.1765L42.3051 20.1767L42.3048 31.0283L38.5826 31.0282ZM38.5829 20.1766C38.5829 17.4158 36.5755 15.4737 34.4723 15.4737V11.7515C38.9548 11.7515 42.3051 15.6993 42.3051 20.1766H38.5829ZM32.6828 13.1013L32.6828 13.1012L36.2618 14.1238L36.2618 14.1239L32.6828 13.1013Z" fill="#4CAF4F" mask="url(#path-1-inside-1_211_2338)"/>
<path d="M22.5081 42.9801C22.2589 43.1301 21.9366 43.0492 21.7876 42.8002C21.6383 42.5516 21.7192 42.229 21.9675 42.0797M22.5081 42.9801L27.0454 36.8749C27.4837 36.6115 28.0618 36.7154 28.3322 37.1064M22.5081 42.9801L28.59 39.3315H28.5903L28.591 39.3311M22.5081 42.9801L30.9252 40.0898C31.1376 39.9622 31.2876 39.7603 31.3474 39.5205M21.9675 42.0797L28.0497 38.4311C28.2621 38.3035 28.4124 38.1012 28.4722 37.8621M21.9675 42.0797L22.0291 42.1824L22.2376 42.53L22.2381 42.5307L22.332 42.6874L22.4462 42.8777L22.4464 42.8776L22.4466 42.8775L22.447 42.8772M21.9675 42.0797L22.0292 42.1823M28.4722 37.8621C28.538 37.5997 28.488 37.3314 28.3322 37.1064M28.4722 37.8621L28.6224 37.8997L28.608 37.5912C28.5982 37.3788 28.536 37.1903 28.4309 37.0388L28.4306 37.0384L28.3322 37.1064M28.4722 37.8621L28.6224 37.8998L28.6372 38.2182L28.3327 38.4009H28.3323L28.1113 38.5335L28.1112 38.5335L28.1112 38.5336L22.0294 42.1822M28.3322 37.1064L28.4305 37.0382L23.94 45.3653C24.131 45.2504 24.1941 45.002 24.0784 44.8092C23.9635 44.618 23.7144 44.5552 23.5224 44.6702L29.6043 41.0217C29.744 40.9378 29.8905 40.8745 30.04 40.8309L30.9833 40.1868L30.9834 40.1867L31.0353 40.1513C31.2566 40.0002 31.4031 39.7908 31.4632 39.5498L31.4633 39.5495L31.3474 39.5205M22.0294 42.1822C22.2208 42.0677 22.4699 42.1298 22.5854 42.3212C22.5856 42.3216 22.5859 42.322 22.5861 42.3224C22.7009 42.515 22.6376 42.7626 22.447 42.8772M22.0294 42.1822C22.0293 42.1822 22.0293 42.1822 22.0292 42.1823M22.0294 42.1822L22.0292 42.1823M22.447 42.8772L28.5284 39.229L28.5285 39.229L28.5288 39.2288C28.529 39.2287 28.5292 39.2286 28.5294 39.2285L28.59 39.3295L28.5903 39.33L28.591 39.3311M22.447 42.8772L22.2385 42.5304L22.2381 42.5297L22.1676 42.4124L22.0292 42.1823M28.591 39.3311V39.1898C28.7083 39.1129 28.8157 39.0239 28.9116 38.9244L29.9127 38.4019L29.9127 38.4019L29.9682 38.3729C30.1291 38.2889 30.2914 38.2497 30.4455 38.2497C30.5289 38.2497 30.6149 38.26 30.7024 38.2817C30.7025 38.2817 30.7025 38.2817 30.7026 38.2817C30.7029 38.2818 30.7032 38.2819 30.7035 38.282L30.8994 37.4951M28.591 39.3311L29.9728 38.5021C30.1846 38.3751 30.4325 38.338 30.6736 38.3978C30.9133 38.4577 31.1156 38.6077 31.2428 38.8198C31.3701 39.0322 31.4073 39.2811 31.3474 39.5205M30.8994 37.4951C30.8994 37.4951 30.8993 37.4951 30.8993 37.4951M30.8994 37.4951C31.3789 37.6149 31.7867 37.9176 32.0406 38.3408L32.1431 38.2793M30.8994 37.4951L30.9283 37.379M30.8993 37.4951L30.7027 38.2818C30.975 38.3498 31.2006 38.517 31.345 38.7579C31.3451 38.758 31.3452 38.7582 31.3453 38.7583C31.3453 38.7583 31.3453 38.7583 31.3453 38.7584C31.4902 39.0005 31.5311 39.2781 31.4633 39.5492L31.4633 39.5495L31.3474 39.5205M30.8993 37.4951C30.8992 37.495 30.8991 37.495 30.899 37.495L30.8978 37.4947C30.754 37.459 30.6083 37.4407 30.4634 37.4395M30.8993 37.4951L30.9283 37.379M30.0217 41.7169L30.5463 41.4022L31.0873 41.7213C31.2493 41.8169 31.3717 41.9365 31.4545 42.0749L31.4548 42.0753C31.4549 42.0755 31.455 42.0756 31.4551 42.0758L31.353 42.1372M30.0217 41.7169L31.5735 42.8672C31.6411 42.5951 31.5999 42.3177 31.4551 42.0759L31.353 42.1372M30.0217 41.7169L30.0833 41.8195M30.0217 41.7169L30.0217 41.7169L30.0833 41.8195M31.353 42.1372C31.0902 41.6995 30.5203 41.5571 30.0833 41.8195M31.353 42.1372C31.4806 42.3493 31.5178 42.5986 31.4579 42.8383L30.0833 41.8195M32.2397 41.5751C32.2442 41.5823 32.2486 41.5896 32.2529 41.5969L32.2397 41.5751ZM32.2397 41.5751C32.2083 41.5996 32.1764 41.6236 32.1439 41.6468C32.1461 41.6504 32.1483 41.6539 32.1504 41.6575L32.2397 41.5751ZM32.0948 40.1558C32.1619 40.0273 32.2143 39.8901 32.2502 39.7462L32.0948 40.1558ZM32.0948 40.1558C32.1283 40.1766 32.1614 40.1981 32.1942 40.2202C32.2688 40.0813 32.3268 39.9323 32.3661 39.775C32.494 39.2636 32.4147 38.7325 32.1431 38.2793M32.0948 40.1558L32.2502 39.746C32.3701 39.2665 32.2945 38.7646 32.0411 38.3415L32.0408 38.341C32.0407 38.3409 32.0407 38.3409 32.0407 38.3408L32.1431 38.2793M32.1431 38.2793C31.8718 37.8269 31.4403 37.5069 30.9283 37.379M30.9283 37.379L30.4529 37.3191M30.4529 37.3191C30.4572 37.3593 30.4607 37.3994 30.4634 37.4395M30.4529 37.3191C30.4504 37.3191 30.448 37.3191 30.4455 37.3191C30.1308 37.3191 29.8217 37.3997 29.5376 37.548M30.4529 37.3191L29.5376 37.548M30.4634 37.4395C30.4649 37.4613 30.4661 37.483 30.4671 37.5048L30.4455 37.5058L29.8678 37.5327M30.4634 37.4395C30.4574 37.4394 30.4515 37.4394 30.4455 37.4394C30.2492 37.4396 30.0544 37.471 29.8678 37.5327M29.8678 37.5327L29.5376 37.548M29.8678 37.5327C29.7731 37.564 29.6804 37.6031 29.5908 37.6499C29.5582 37.6669 29.5261 37.6849 29.4944 37.7039L29.4941 37.7041L29.4279 37.7438M29.5376 37.548L29.0072 37.9962L29.0074 37.9961L29.3749 38.0881C29.3749 38.0882 29.3749 38.0883 29.3749 38.0884C29.4036 37.9739 29.4211 37.8586 29.4279 37.7438M29.5376 37.548L29.3955 37.2758M29.5376 37.548C29.5228 37.2309 29.4393 36.9188 29.2789 36.6401C29.2424 36.6563 29.2062 36.6732 29.1705 36.6909M29.4279 37.7438C29.4317 37.68 29.4321 37.6164 29.4292 37.553C29.425 37.4597 29.4137 37.3671 29.3955 37.2758M29.4279 37.7438L29.3955 37.2758M29.3955 37.2758L29.107 36.7231C29.128 36.7121 29.1492 36.7014 29.1705 36.6909M29.3955 37.2758L29.0972 36.5767C29.1231 36.614 29.1475 36.6521 29.1705 36.6909M29.3955 37.2758C29.3546 37.0712 29.2789 36.8737 29.1705 36.6909M31.56 40.9198L31.7191 40.6501C31.6502 40.7146 31.5761 40.774 31.4973 40.8279C31.467 40.8486 31.436 40.8685 31.4043 40.8875L31.4039 40.8878L31.3366 40.9281L31.56 40.9198ZM16.6991 36.5891L16.5933 36.5334C16.5739 36.5684 16.5255 36.6557 16.4539 36.7845C16.4362 36.8164 16.4171 36.8509 16.3966 36.8877C16.4331 36.9059 16.4699 36.9219 16.5067 36.9357C16.5696 36.8224 16.6338 36.7069 16.6991 36.5891ZM25.0151 47.1583C25.015 47.1584 25.0149 47.1584 25.0148 47.1585L25.0151 47.1583Z" fill="#4CAF4F" stroke="#4CAF4F" stroke-width="0.928093"/>
<path d="M48.4807 38.2658L48.4805 38.2659L48.4807 38.2658ZM48.4807 38.2658C48.2857 37.9165 48.2936 37.4864 48.5001 37.1421L48.4807 38.2658ZM36.967 37.4391C36.8216 37.4403 36.6754 37.4587 36.5312 37.4949L36.967 37.4391ZM36.967 37.4391C36.9697 37.3991 36.9732 37.3591 36.9775 37.319L36.967 37.4391ZM47.6431 38.9184L47.5641 38.7761L47.6431 38.9184ZM45.4009 42.1821C45.4007 42.182 45.4005 42.1818 45.4003 42.1817L45.4006 42.1819L45.4009 42.1821ZM42.4153 47.1592C42.4151 47.159 42.4148 47.1589 42.4146 47.1588L42.4153 47.1592ZM42.4143 47.1586L42.4146 47.1587L42.4143 47.1586Z" fill="#4CAF4F" stroke="#4CAF4F" stroke-width="0.928093"/>
</svg>
