<svg width="67" height="67" viewBox="0 0 67 67" fill="none" xmlns="http://www.w3.org/2000/svg">
<path d="M7.67693 23.0313V23.7293H8.37484H58.6248H59.3227V23.0313V19.8907C59.3227 18.3174 58.6977 16.8085 57.5852 15.696C56.4726 14.5834 54.9637 13.9584 53.3904 13.9584H13.6092C12.0359 13.9584 10.527 14.5834 9.41445 15.696C8.30193 16.8085 7.67693 18.3174 7.67693 19.8907V23.0313ZM59.3227 27.2188V26.5209H58.6248H8.37484H7.67693V27.2188V47.1094C7.67693 48.6828 8.30193 50.1917 9.41445 51.3042C10.527 52.4167 12.0359 53.0417 13.6092 53.0417H53.3904C54.9637 53.0417 56.4726 52.4167 57.5852 51.3042C58.6977 50.1917 59.3227 48.6828 59.3227 47.1094V27.2188ZM4.88526 19.8907C4.88526 17.577 5.80439 15.358 7.44045 13.722C9.07651 12.0859 11.2955 11.1668 13.6092 11.1668H53.3904C55.7041 11.1668 57.9231 12.0859 59.5592 13.722C61.1952 15.358 62.1144 17.577 62.1144 19.8907V47.1094C62.1144 49.4232 61.1952 51.6421 59.5592 53.2782C57.9231 54.9143 55.7041 55.8334 53.3904 55.8334H13.6092C11.2955 55.8334 9.07651 54.9143 7.44045 53.2782C5.80439 51.6421 4.88526 49.4232 4.88526 47.1094V19.8907ZM43.9685 40.4792H50.2498C50.62 40.4792 50.975 40.6263 51.2368 40.8881C51.4986 41.1498 51.6456 41.5049 51.6456 41.8751C51.6456 42.2453 51.4986 42.6003 51.2368 42.8621C50.975 43.1238 50.62 43.2709 50.2498 43.2709H43.9685C43.5983 43.2709 43.2433 43.1238 42.9815 42.8621C42.7198 42.6003 42.5727 42.2453 42.5727 41.8751C42.5727 41.5049 42.7198 41.1498 42.9815 40.8881C43.2433 40.6263 43.5983 40.4792 43.9685 40.4792Z" fill="#4CAF4F" stroke="#4CAF4F" stroke-width="0.696069"/>
</svg>
