<svg width="477" height="439" viewBox="0 0 477 439" fill="none" xmlns="http://www.w3.org/2000/svg">
<path d="M238.432 439C370.114 439 476.863 432.768 476.863 425.079C476.863 417.391 370.114 411.159 238.432 411.159C106.749 411.159 0 417.391 0 425.079C0 432.768 106.749 439 238.432 439Z" fill="#F5F5F5"/>
<path d="M360.482 114.192L348.283 109.274C348.283 109.274 332.186 138.627 327.575 140.115C321.303 142.132 308.317 147.739 300.619 148.723C299.574 149.953 297.864 153.777 298.024 155.167C308.366 158.622 331.092 154.036 335.961 150.42C347.041 142.218 360.482 114.192 360.482 114.192Z" fill="#E58A7B"/>
<path d="M364.233 107.515C366.508 115.914 354.186 132.81 354.186 132.81L338.039 123.76C338.039 123.76 341.065 116.812 344.754 109.741C350.669 98.3166 361.638 97.9354 364.233 107.515Z" fill="#4CAF4F"/>
<path opacity="0.2" d="M364.233 107.515C366.508 115.914 354.186 132.81 354.186 132.81L338.039 123.76C338.039 123.76 341.065 116.812 344.754 109.741C350.669 98.3166 361.638 97.9354 364.233 107.515Z" fill="black"/>
<path opacity="0.2" d="M344.446 127.375L350.804 130.941L351.923 111.426C348.222 114.266 345.615 122.825 344.446 127.375Z" fill="black"/>
<path d="M353.608 101.194C353.608 101.194 341.04 129.158 348.369 181.225H397.89C398.677 173.625 396.07 136.537 405.502 100.727C400.07 99.6652 394.573 98.9628 389.049 98.6241C382.041 98.218 375.016 98.218 368.008 98.6241C363.15 99.1173 358.336 99.9765 353.608 101.194Z" fill="#4CAF4F"/>
<path opacity="0.2" d="M353.608 101.194C353.608 101.194 341.04 129.158 348.369 181.225H397.89C398.677 173.625 396.07 136.537 405.502 100.727C400.07 99.6652 394.573 98.9628 389.049 98.6241C382.041 98.218 375.016 98.218 368.008 98.6241C363.15 99.1173 358.336 99.9765 353.608 101.194Z" fill="black"/>
<g style="mix-blend-mode:multiply">
<path d="M342.122 426.186C342.048 427.514 360.826 428.584 384.056 428.584C407.285 428.584 426.199 427.514 426.272 426.186C426.346 424.858 407.581 423.801 384.339 423.801C361.097 423.801 342.208 424.871 342.122 426.186Z" fill="#E8ECF1"/>
</g>
<path d="M375.178 391.29L366.395 394.69L373.961 414.235L382.744 410.835L375.178 391.29Z" fill="#E58A7B"/>
<path d="M414.344 416.73H405.084L401.69 395.296H410.95L414.344 416.73Z" fill="#E58A7B"/>
<path d="M404.445 415.66H414.848C415.029 415.66 415.203 415.725 415.34 415.842C415.478 415.959 415.569 416.121 415.598 416.299L416.939 424.526C416.967 424.733 416.95 424.943 416.89 425.142C416.83 425.342 416.728 425.526 416.59 425.682C416.452 425.838 416.283 425.963 416.092 426.048C415.902 426.133 415.696 426.176 415.488 426.174C411.86 426.113 410.114 425.891 405.539 425.891C402.723 425.891 396.931 426.186 393.021 426.186C389.11 426.186 388.852 422.35 390.463 421.993C397.694 420.431 400.497 418.304 402.908 416.238C403.333 415.865 403.879 415.659 404.445 415.66Z" fill="#263238"/>
<path d="M373.702 412.487L383.539 409.61C383.715 409.56 383.902 409.572 384.07 409.644C384.238 409.715 384.376 409.842 384.462 410.003L388.151 417.381C388.237 417.569 388.28 417.772 388.279 417.978C388.278 418.184 388.232 418.387 388.144 418.573C388.056 418.76 387.929 418.924 387.771 419.056C387.613 419.188 387.428 419.284 387.229 419.337C383.65 420.321 381.252 420.923 376.776 422.227C373.689 423.124 370.541 424.588 367.491 425.559C365.376 426.235 360.408 426.26 357.838 426.26C354.038 426.26 353.19 422.251 354.825 422.067C358.945 421.612 359.498 421.821 361.773 420.677C365.496 419.05 368.869 416.72 371.709 413.815C372.245 413.205 372.932 412.747 373.702 412.487Z" fill="#263238"/>
<path d="M302.168 148.674L291.986 144.407L287.793 155.696C291.966 156.331 296.212 156.331 300.385 155.696L302.168 148.674Z" fill="#E58A7B"/>
<path d="M284.411 144.112L284.141 151.613L287.793 155.671L291.986 144.382L284.411 144.112Z" fill="#E58A7B"/>
<path d="M376.383 392.95L367.572 396.351L371.474 406.458L380.285 403.057L376.383 392.95Z" fill="#CF6F64"/>
<path d="M410.95 395.296H401.69L403.449 406.351H412.708L410.95 395.296Z" fill="#CF6F64"/>
<path opacity="0.2" d="M346.795 167.144C346.979 169.37 347.189 171.645 347.459 173.982L384.277 162.029C390.027 160.325 395.024 156.711 398.444 151.785C398.591 148.502 398.776 145.046 399.058 141.443C399.181 139.697 399.329 137.902 399.489 136.082C399.649 134.262 399.87 132.245 400.104 130.302L346.795 167.144Z" fill="black"/>
<path d="M358.822 126.809L357.592 126.662C358.318 120.513 362.904 115.668 367.737 115.791V117.021C363.507 116.935 359.474 121.3 358.822 126.809Z" fill="white"/>
<path d="M365.376 138.16H365.167V136.93C369.397 137.09 373.369 132.675 374.021 127.178L375.251 127.326C374.599 133.339 370.16 138.16 365.376 138.16Z" fill="white"/>
<path d="M388.36 74.9272C386.626 81.703 384.585 94.111 389.049 98.624C389.049 98.624 385.925 105.498 373.345 105.498C361.847 105.498 368.008 98.624 368.008 98.624C375.657 96.8286 375.792 91.2457 374.784 85.9579L388.36 74.9272Z" fill="#E58A7B"/>
<path d="M382.826 79.4281L374.796 85.9579C375.045 87.1731 375.189 88.4073 375.226 89.6471C377.575 91.9836 382.285 86.0686 382.765 83.0435C383.008 81.8525 383.029 80.6267 382.826 79.4281Z" fill="#CF6F64"/>
<path d="M360.986 74.8411C361.545 75.8096 362.298 76.6524 363.197 77.3168C364.096 77.9812 365.123 78.4529 366.213 78.7025C369.164 79.3542 370.64 76.6365 369.828 73.9065C369.102 71.4471 366.68 68.1391 363.679 68.7048C363.037 68.8372 362.435 69.1217 361.925 69.5344C361.415 69.9471 361.011 70.4761 360.747 71.077C360.483 71.6779 360.367 72.3332 360.409 72.9881C360.451 73.643 360.649 74.2784 360.986 74.8411Z" fill="#CF6F64"/>
<path d="M365.868 53.1611C361.269 55.264 359.646 73.5377 365.426 76.2431C371.205 78.9485 374.575 49.1645 365.868 53.1611Z" fill="#263238"/>
<path d="M389.762 64.7328C388.655 73.9066 388.532 79.3051 383.613 84.0026C382.089 85.5615 380.163 86.6688 378.05 87.2023C375.936 87.7359 373.715 87.6748 371.634 87.026C369.552 86.3771 367.691 85.1657 366.255 83.5254C364.818 81.8851 363.863 79.8799 363.495 77.731C362.007 69.4918 364.06 55.8788 373.259 52.2265C375.191 51.374 377.317 51.054 379.415 51.2996C381.513 51.5452 383.507 52.3475 385.191 53.6233C386.874 54.8991 388.186 56.602 388.989 58.5554C389.793 60.5088 390.06 62.6416 389.762 64.7328Z" fill="#E58A7B"/>
<path d="M374.648 57.9078C381.461 56.1739 386.466 54.9934 384.671 60.6624C382.297 68.2375 379.444 75.5667 383.269 75.8987C385.605 76.1078 395.935 71.73 394.619 67.2906C393.476 63.4293 398.308 62.3717 399.169 60.4165C402.354 53.3332 393.242 54.2678 394.865 49.9638C396.488 45.6598 387.487 38.7241 382.568 42.1796C374.562 47.7626 360.826 47.6765 368.045 38.4905C373.222 31.936 363.987 33.2764 363.987 33.2764C363.987 33.2764 369.57 36.5844 360.175 41.7C350.238 47.16 359.351 61.8307 374.648 57.9078Z" fill="#263238"/>
<path d="M393.377 74.8411C392.032 76.7872 390.012 78.1636 387.708 78.7025C384.671 79.3542 383.503 76.6365 384.646 73.9065C385.667 71.4471 388.471 68.1391 391.373 68.7048C394.275 69.2705 394.939 72.4309 393.377 74.8411Z" fill="#E58A7B"/>
<path d="M348.369 181.225C348.369 181.225 340.056 255.623 339.404 283.858C338.74 313.224 367.577 404.851 367.577 404.851L382.334 398.702C382.334 398.702 365.118 314.982 367.577 286.145C370.184 254.701 380.957 181.274 380.957 181.274L348.369 181.225Z" fill="#4CAF4F"/>
<path opacity="0.2" d="M369.029 201.651C362.4 215.399 366.864 242.588 370.455 258.698C371.82 247.323 373.443 234.976 374.981 223.552C374.833 205.991 373.468 192.428 369.029 201.651Z" fill="black"/>
<path d="M381.682 393.832C381.756 393.832 383.429 398.53 383.429 398.53L366.409 405.687L363.728 400.694L381.682 393.832Z" fill="#4CAF4F"/>
<path d="M365.942 181.225C365.942 181.225 372.3 251.983 376.505 278.484C381.129 307.518 399.255 404.211 399.255 404.211H416.213C416.213 404.211 406.056 309.867 404.137 281.116C402.047 249.93 397.89 181.225 397.89 181.225H365.942Z" fill="#4CAF4F"/>
<path d="M416.471 399.796C416.545 399.796 417.037 404.531 417.037 404.531H398.394L397.066 399.095L416.471 399.796Z" fill="#4CAF4F"/>
<path opacity="0.2" d="M409.979 394.189C409.94 394.189 409.903 394.176 409.873 394.151C409.844 394.126 409.825 394.092 409.819 394.054C409.72 393.193 400.559 307.973 398.837 282.148C396.968 254.135 393.205 191.997 393.168 191.37C393.166 191.35 393.169 191.329 393.176 191.31C393.182 191.29 393.193 191.273 393.207 191.258C393.221 191.243 393.237 191.231 393.256 191.223C393.275 191.214 393.295 191.21 393.316 191.21C393.356 191.21 393.395 191.225 393.425 191.253C393.454 191.28 393.472 191.318 393.476 191.358C393.476 191.985 397.275 254.074 399.145 282.136C400.866 307.96 410.028 393.119 410.114 394.041C410.117 394.062 410.116 394.082 410.111 394.102C410.106 394.122 410.097 394.141 410.084 394.157C410.072 394.174 410.056 394.187 410.037 394.197C410.019 394.206 409.999 394.212 409.979 394.213V394.189Z" fill="black"/>
<path d="M375.694 67.2907C375.694 68.0408 375.227 68.6434 374.735 68.6434C374.243 68.6434 373.886 68.0408 373.935 67.2907C373.985 66.5406 374.403 65.938 374.894 65.938C375.386 65.938 375.743 66.5529 375.694 67.2907Z" fill="#263238"/>
<path d="M367.258 67.2907C367.258 68.0408 366.778 68.6434 366.299 68.6434C365.819 68.6434 365.45 68.0408 365.487 67.2907C365.524 66.5406 365.966 65.938 366.458 65.938C366.95 65.938 367.307 66.5529 367.258 67.2907Z" fill="#263238"/>
<path d="M369.914 67.6718C368.888 69.9624 367.564 72.1082 365.979 74.0541C367.209 75.2838 369.508 74.7182 369.508 74.7182L369.914 67.6718Z" fill="#DF5753"/>
<path d="M370.135 77.854C370.107 77.8541 370.079 77.8483 370.052 77.837C370.026 77.8258 370.003 77.8092 369.983 77.7885C369.963 77.7678 369.948 77.7432 369.938 77.7164C369.929 77.6896 369.925 77.6611 369.926 77.6327C369.929 77.5729 369.955 77.5165 369.999 77.4753C370.042 77.4342 370.1 77.4112 370.16 77.4113C371.1 77.4178 372.03 77.2136 372.882 76.8135C373.733 76.4134 374.484 75.8277 375.079 75.0994C375.121 75.0622 375.176 75.0418 375.233 75.0418C375.289 75.0418 375.344 75.0622 375.386 75.0994C375.426 75.1407 375.448 75.1958 375.448 75.2531C375.448 75.3105 375.426 75.3656 375.386 75.4069C374.749 76.1809 373.947 76.8024 373.038 77.2259C372.13 77.6494 371.138 77.864 370.135 77.854Z" fill="#263238"/>
<path d="M377.194 65.028C377.135 65.0582 377.07 65.074 377.003 65.074C376.937 65.074 376.872 65.0582 376.813 65.028C376.353 64.7306 375.829 64.5456 375.285 64.4879C374.74 64.4303 374.189 64.5015 373.677 64.696C373.627 64.721 373.573 64.7357 373.517 64.7393C373.461 64.7429 373.405 64.7353 373.353 64.7169C373.3 64.6986 373.251 64.6699 373.21 64.6325C373.169 64.5951 373.135 64.5498 373.111 64.4992C373.066 64.3898 373.065 64.2669 373.108 64.1566C373.152 64.0464 373.237 63.9575 373.345 63.909C373.988 63.6464 374.685 63.5428 375.376 63.607C376.068 63.6713 376.733 63.9014 377.317 64.2779C377.364 64.3099 377.404 64.351 377.436 64.3988C377.467 64.4465 377.488 64.5 377.498 64.556C377.509 64.6121 377.508 64.6696 377.496 64.7253C377.483 64.781 377.46 64.8337 377.428 64.8804C377.365 64.951 377.284 65.0022 377.194 65.028Z" fill="#263238"/>
<path d="M363.999 62.5685C363.933 62.5526 363.874 62.5185 363.827 62.4701C363.786 62.43 363.753 62.3822 363.731 62.3294C363.709 62.2766 363.698 62.2199 363.698 62.1627C363.698 62.1054 363.709 62.0487 363.731 61.9959C363.753 61.9431 363.786 61.8953 363.827 61.8552C364.298 61.3266 364.885 60.9139 365.542 60.6495C366.199 60.385 366.908 60.2758 367.614 60.3304C367.671 60.3391 367.725 60.3593 367.774 60.3899C367.822 60.4204 367.864 60.4605 367.896 60.5078C367.928 60.5551 367.95 60.6084 367.961 60.6647C367.972 60.7209 367.971 60.7787 367.959 60.8346C367.932 60.9484 367.865 61.0487 367.77 61.1167C367.675 61.1846 367.558 61.2155 367.442 61.2035C366.883 61.1683 366.324 61.2607 365.806 61.4738C365.289 61.6868 364.826 62.0149 364.454 62.4332C364.398 62.4954 364.326 62.541 364.246 62.5649C364.165 62.5887 364.08 62.59 363.999 62.5685Z" fill="#263238"/>
<path d="M410.261 112.827L397.472 109.421C397.472 109.421 384.929 140.299 380.49 142.304C374.464 145.058 359.203 154.601 352.71 159.114C352.354 160.651 352.636 164.722 353.448 165.841C364.516 163.824 385.704 155.671 390.131 151.527C400.227 142.07 410.261 112.827 410.261 112.827Z" fill="#E58A7B"/>
<path d="M401.333 417.283C400.709 417.333 400.088 417.163 399.575 416.804C399.417 416.661 399.298 416.479 399.231 416.276C399.164 416.073 399.152 415.857 399.194 415.648C399.202 415.517 399.244 415.391 399.318 415.283C399.392 415.174 399.493 415.088 399.612 415.033C400.645 414.504 403.535 416.336 403.867 416.545C403.903 416.568 403.931 416.602 403.947 416.642C403.962 416.681 403.965 416.725 403.953 416.767C403.942 416.81 403.921 416.849 403.891 416.881C403.861 416.914 403.823 416.938 403.781 416.951C402.979 417.148 402.159 417.259 401.333 417.283ZM400.104 415.365C400.011 415.344 399.914 415.344 399.821 415.365C399.774 415.389 399.735 415.426 399.708 415.472C399.682 415.518 399.67 415.57 399.673 415.623C399.641 415.766 399.646 415.915 399.689 416.056C399.732 416.196 399.812 416.322 399.919 416.422C400.399 416.853 401.604 416.902 403.19 416.594C402.246 415.972 401.182 415.554 400.067 415.365H400.104Z" fill="#4CAF4F"/>
<path d="M403.719 416.951C403.687 416.961 403.653 416.961 403.621 416.951C402.699 416.435 400.965 414.405 401.223 413.373C401.261 413.209 401.354 413.063 401.486 412.958C401.617 412.853 401.78 412.796 401.948 412.795C402.113 412.772 402.281 412.786 402.44 412.835C402.6 412.884 402.746 412.967 402.871 413.077C403.891 413.95 403.953 416.631 403.953 416.767C403.959 416.807 403.951 416.848 403.931 416.884C403.911 416.919 403.88 416.947 403.842 416.963C403.801 416.972 403.758 416.967 403.719 416.951ZM402.071 413.2H401.985C401.702 413.2 401.666 413.36 401.653 413.422C401.506 414.024 402.6 415.561 403.51 416.287C403.506 415.248 403.184 414.235 402.588 413.385C402.445 413.26 402.261 413.194 402.071 413.2Z" fill="#4CAF4F"/>
<path d="M368.684 415.746C367.932 416.008 367.113 416.008 366.36 415.746C366.189 415.653 366.044 415.519 365.939 415.356C365.834 415.193 365.771 415.005 365.758 414.811C365.742 414.69 365.758 414.566 365.803 414.452C365.848 414.338 365.921 414.238 366.016 414.16C367 413.274 371.021 414.16 371.476 414.332C371.519 414.343 371.557 414.368 371.584 414.404C371.611 414.44 371.625 414.484 371.623 414.529C371.625 414.575 371.613 414.62 371.589 414.66C371.565 414.699 371.53 414.73 371.488 414.75C370.583 415.159 369.645 415.492 368.684 415.746ZM366.68 414.283C366.539 414.311 366.408 414.374 366.299 414.467C366.26 414.496 366.229 414.536 366.212 414.582C366.195 414.628 366.191 414.677 366.2 414.725C366.208 414.854 366.249 414.979 366.317 415.089C366.386 415.198 366.481 415.289 366.594 415.352C367.246 415.697 368.758 415.426 370.713 414.602C369.396 414.27 368.033 414.162 366.68 414.283Z" fill="#4CAF4F"/>
<path d="M371.451 414.75H371.353C370.123 414.529 367.664 413.114 367.59 412.057C367.59 411.811 367.7 411.467 368.291 411.27C368.49 411.199 368.702 411.169 368.913 411.181C369.124 411.194 369.331 411.249 369.52 411.344C370.849 411.995 371.549 414.356 371.586 414.467C371.595 414.504 371.594 414.543 371.583 414.58C371.572 414.616 371.552 414.649 371.525 414.676C371.507 414.706 371.481 414.731 371.451 414.75ZM368.537 411.639H368.414C368.032 411.774 368.032 411.934 368.032 411.983C368.032 412.622 369.816 413.791 371.058 414.184C370.772 413.197 370.166 412.332 369.336 411.725C369.089 411.599 368.805 411.569 368.537 411.639Z" fill="#4CAF4F"/>
<path d="M353.755 158.389L340.929 164.291L339.441 167.981L344.176 171.166C344.176 171.166 353.03 170.206 355.551 164.513L353.755 158.389Z" fill="#E58A7B"/>
<path d="M354.297 166.05C354.01 163.586 353.196 161.212 351.911 159.09L353.94 157.565C355.466 160.01 356.44 162.759 356.793 165.62L354.297 166.05Z" fill="#263238"/>
<path d="M356.485 160.135C356.756 160.562 356.89 161.061 356.867 161.566C356.844 162.071 356.666 162.556 356.357 162.957C356.049 163.357 355.624 163.652 355.142 163.803C354.659 163.953 354.142 163.951 353.661 163.797C353.18 163.643 352.757 163.345 352.452 162.943C352.146 162.54 351.971 162.053 351.952 161.548C351.933 161.043 352.07 160.545 352.344 160.12C352.618 159.696 353.017 159.366 353.485 159.176C354.01 158.908 354.62 158.859 355.182 159.038C355.744 159.218 356.213 159.612 356.485 160.135Z" fill="#263238"/>
<path d="M332.26 169.063L333.969 170.784L345.479 165.866L340.929 164.291L332.26 169.063Z" fill="#E58A7B"/>
<path opacity="0.2" d="M381.682 393.832C381.756 393.832 383.429 398.53 383.429 398.53L366.409 405.687L363.728 400.694L381.682 393.832Z" fill="black"/>
<path opacity="0.2" d="M416.471 399.796C416.545 399.796 417.037 404.531 417.037 404.531H398.394L397.066 399.095L416.471 399.796Z" fill="black"/>
<path d="M413.594 109.286C416.976 120.194 403.756 135.11 403.756 135.11L385.495 127.658C387.659 121.353 390.155 115.167 392.971 109.126C398.579 97.0378 410.175 98.2798 413.594 109.286Z" fill="#4CAF4F"/>
<path opacity="0.2" d="M413.594 109.286C416.976 120.194 403.756 135.11 403.756 135.11L385.495 127.658C387.659 121.353 390.155 115.167 392.971 109.126C398.579 97.0378 410.175 98.2798 413.594 109.286Z" fill="black"/>
<path d="M232.136 0H224.278V1.26662H232.136V0Z" fill="#4CAF4F"/>
<path d="M333.856 50.1316L332.905 71.2369L334.171 71.2939L335.122 50.1886L333.856 50.1316Z" fill="#4CAF4F"/>
<path d="M331.411 5.6813H186.304L172.801 307.85H317.909L331.411 5.6813Z" fill="#4CAF4F"/>
<path opacity="0.56" d="M327.083 9.83773H181.975L168.473 312.006H313.58L327.083 9.83773Z" fill="#FAFAFA"/>
<path opacity="0.07" d="M322.754 13.9819H177.646L164.132 316.15H309.239L322.754 13.9819Z" fill="#4CAF4F"/>
<path d="M306.239 145.772H182.381L181.348 168.891H305.206L306.239 145.772Z" fill="white"/>
<path d="M250.495 128.9H183.131L182.676 139.242H250.04L250.495 128.9Z" fill="#4CAF4F"/>
<path d="M303.447 208.168H179.589L178.556 231.287H302.414L303.447 208.168Z" fill="white"/>
<path opacity="0.47" d="M280.734 262.51H197.445L196.203 290.215H279.492L280.734 262.51Z" fill="#4CAF4F"/>
<path d="M275.164 294.519H191.875C191.838 294.529 191.8 294.529 191.764 294.519C191.752 294.484 191.752 294.445 191.764 294.409L192.994 266.691C192.993 266.672 192.997 266.653 193.005 266.636C193.012 266.619 193.024 266.603 193.037 266.59C193.051 266.578 193.068 266.568 193.086 266.562C193.103 266.556 193.122 266.554 193.141 266.555H276.43C276.446 266.548 276.463 266.544 276.48 266.544C276.497 266.544 276.514 266.548 276.529 266.555C276.538 266.57 276.542 266.587 276.542 266.605C276.542 266.622 276.538 266.639 276.529 266.654L275.324 294.433C275.309 294.462 275.286 294.486 275.257 294.501C275.229 294.517 275.196 294.523 275.164 294.519ZM192.022 294.224H275.016L276.246 266.801H193.252L192.022 294.224Z" fill="white"/>
<path d="M235.948 191.296H180.34L179.885 201.65H235.481L235.948 191.296Z" fill="#4CAF4F"/>
<path d="M279.148 71.0904C278.83 77.8187 276.437 84.2837 272.298 89.5978C269.235 93.6118 265.292 96.8704 260.772 99.1236C256.253 101.377 251.278 102.565 246.228 102.596C242.148 102.627 238.104 101.822 234.346 100.232C230.588 98.6407 227.196 96.2973 224.378 93.3457C221.56 90.3942 219.376 86.8969 217.961 83.0694C216.546 79.2419 215.929 75.1652 216.149 71.0904C216.582 62.6348 220.228 54.6639 226.343 48.8076C232.457 42.9513 240.578 39.6522 249.044 39.5848C253.128 39.5467 257.176 40.3465 260.939 41.9346C264.701 43.5227 268.098 45.8655 270.919 48.8182C273.74 51.7709 275.926 55.2707 277.342 59.1015C278.757 62.9323 279.372 67.0127 279.148 71.0904Z" fill="white"/>
<path d="M282.112 46.1762C282.032 47.9652 281.395 49.6847 280.292 51.0951C279.475 52.1612 278.426 53.0267 277.224 53.6256C276.022 54.2244 274.699 54.5408 273.356 54.5506C272.055 54.5585 270.772 54.2477 269.619 53.6453C268.465 53.043 267.477 52.1674 266.74 51.0951C265.764 49.646 265.282 47.9212 265.363 46.1762C265.482 43.9312 266.453 41.8161 268.077 40.2622C269.702 38.7084 271.858 37.8328 274.106 37.814C275.191 37.8041 276.266 38.0164 277.265 38.4378C278.265 38.8592 279.167 39.4807 279.917 40.2641C280.667 41.0476 281.249 41.9763 281.626 42.993C282.004 44.0098 282.169 45.0931 282.112 46.1762Z" fill="#4CAF4F"/>
<path d="M195.723 157.331C195.664 158.322 195.232 159.254 194.513 159.938C193.794 160.623 192.842 161.01 191.85 161.02C191.37 161.026 190.895 160.933 190.453 160.748C190.011 160.563 189.612 160.289 189.28 159.943C188.948 159.597 188.69 159.187 188.523 158.738C188.356 158.289 188.283 157.81 188.308 157.331C188.361 156.338 188.792 155.403 189.512 154.717C190.232 154.031 191.187 153.647 192.182 153.642C192.66 153.638 193.135 153.732 193.576 153.918C194.017 154.104 194.416 154.378 194.748 154.723C195.079 155.069 195.337 155.478 195.505 155.927C195.672 156.375 195.747 156.853 195.723 157.331Z" fill="#263238"/>
<path d="M212.3 157.331C212.244 158.323 211.812 159.256 211.093 159.942C210.373 160.627 209.42 161.013 208.426 161.02C207.948 161.024 207.474 160.93 207.034 160.744C206.593 160.558 206.195 160.284 205.865 159.938C205.534 159.593 205.278 159.183 205.111 158.735C204.945 158.286 204.872 157.809 204.897 157.331C204.95 156.34 205.379 155.407 206.097 154.721C206.814 154.036 207.766 153.65 208.758 153.642C209.238 153.636 209.713 153.729 210.155 153.914C210.597 154.1 210.997 154.374 211.328 154.719C211.66 155.065 211.918 155.475 212.085 155.925C212.252 156.374 212.325 156.852 212.3 157.331Z" fill="#263238"/>
<path d="M228.889 157.331C228.833 158.323 228.401 159.256 227.682 159.942C226.962 160.627 226.009 161.013 225.015 161.02C224.537 161.024 224.062 160.93 223.621 160.744C223.18 160.559 222.781 160.284 222.449 159.939C222.118 159.594 221.86 159.184 221.693 158.736C221.525 158.287 221.45 157.809 221.474 157.331C221.53 156.339 221.962 155.406 222.681 154.721C223.401 154.035 224.354 153.65 225.347 153.642C225.827 153.636 226.302 153.729 226.744 153.914C227.186 154.1 227.586 154.374 227.917 154.719C228.249 155.065 228.507 155.475 228.674 155.925C228.841 156.374 228.914 156.852 228.889 157.331Z" fill="#263238"/>
<path d="M192.932 219.727C192.873 220.718 192.44 221.65 191.722 222.335C191.003 223.019 190.051 223.406 189.058 223.417C188.58 223.421 188.105 223.327 187.664 223.141C187.223 222.955 186.824 222.681 186.492 222.335C186.161 221.99 185.903 221.58 185.736 221.132C185.568 220.684 185.493 220.206 185.517 219.727C185.573 218.735 186.005 217.802 186.724 217.117C187.444 216.432 188.397 216.046 189.39 216.038C189.869 216.034 190.344 216.128 190.785 216.314C191.226 216.5 191.625 216.774 191.956 217.119C192.288 217.465 192.546 217.874 192.713 218.323C192.881 218.771 192.955 219.249 192.932 219.727Z" fill="#263238"/>
<path d="M209.509 219.727C209.453 220.717 209.023 221.649 208.306 222.334C207.589 223.019 206.639 223.406 205.647 223.417C205.168 223.422 204.693 223.33 204.251 223.144C203.809 222.959 203.409 222.685 203.077 222.339C202.745 221.993 202.488 221.583 202.321 221.134C202.154 220.685 202.08 220.206 202.106 219.727C202.162 218.735 202.594 217.802 203.313 217.117C204.033 216.432 204.986 216.046 205.979 216.038C206.458 216.034 206.932 216.128 207.372 216.314C207.813 216.5 208.211 216.775 208.541 217.12C208.872 217.466 209.128 217.875 209.295 218.324C209.461 218.772 209.534 219.25 209.509 219.727Z" fill="#263238"/>
<path d="M226.134 219.728C226.078 220.72 225.647 221.653 224.927 222.338C224.208 223.023 223.254 223.409 222.261 223.417C221.783 223.419 221.309 223.324 220.868 223.137C220.428 222.951 220.03 222.677 219.699 222.332C219.368 221.987 219.11 221.578 218.942 221.13C218.773 220.683 218.698 220.205 218.719 219.728C218.778 218.737 219.211 217.805 219.93 217.12C220.649 216.436 221.6 216.049 222.593 216.038C223.072 216.033 223.547 216.125 223.99 216.311C224.432 216.496 224.831 216.77 225.163 217.116C225.495 217.461 225.752 217.872 225.919 218.321C226.087 218.77 226.16 219.249 226.134 219.728Z" fill="#263238"/>
<path d="M242.687 219.727C242.628 220.718 242.195 221.65 241.476 222.335C240.757 223.019 239.806 223.406 238.813 223.417C238.335 223.419 237.861 223.324 237.421 223.137C236.98 222.951 236.582 222.677 236.251 222.331C235.92 221.986 235.662 221.578 235.494 221.13C235.325 220.682 235.25 220.205 235.271 219.727C235.33 218.736 235.763 217.805 236.482 217.12C237.201 216.436 238.152 216.049 239.145 216.038C239.624 216.034 240.098 216.128 240.54 216.314C240.981 216.5 241.379 216.774 241.711 217.119C242.043 217.465 242.3 217.874 242.468 218.323C242.636 218.771 242.71 219.249 242.687 219.727Z" fill="#263238"/>
<path d="M259.337 219.727C259.278 220.718 258.846 221.65 258.127 222.335C257.408 223.019 256.456 223.406 255.464 223.417C254.984 223.422 254.509 223.33 254.067 223.144C253.625 222.959 253.226 222.685 252.894 222.339C252.562 221.993 252.304 221.583 252.137 221.134C251.97 220.685 251.897 220.206 251.922 219.727C251.978 218.735 252.41 217.802 253.129 217.117C253.849 216.432 254.802 216.046 255.796 216.038C256.274 216.034 256.749 216.128 257.19 216.314C257.631 216.5 258.03 216.774 258.362 217.119C258.693 217.465 258.951 217.874 259.119 218.323C259.286 218.771 259.361 219.249 259.337 219.727Z" fill="#263238"/>
<path d="M256.82 69.4496C261.967 64.4162 262.241 56.3484 257.43 51.4295C252.62 46.5107 244.548 46.6035 239.401 51.6368C234.254 56.6702 233.981 64.738 238.791 69.6569C243.601 74.5757 251.673 74.4829 256.82 69.4496Z" fill="#4CAF4F"/>
<path d="M272.299 89.5978C269.235 93.6118 265.292 96.8705 260.773 99.1237C256.253 101.377 251.278 102.565 246.228 102.596C241.332 102.638 236.5 101.474 232.159 99.2068C227.819 96.94 224.103 93.64 221.339 89.5978C227.315 83.6459 236.772 79.76 247.249 79.76C257.726 79.76 266.851 83.6459 272.299 89.5978Z" fill="#4CAF4F"/>
<path opacity="0.1" d="M256.82 69.4496C261.967 64.4162 262.241 56.3484 257.43 51.4295C252.62 46.5107 244.548 46.6035 239.401 51.6368C234.254 56.6702 233.981 64.738 238.791 69.6569C243.601 74.5757 251.673 74.4829 256.82 69.4496Z" fill="white"/>
<path opacity="0.1" d="M272.299 89.5978C269.235 93.6118 265.292 96.8705 260.773 99.1237C256.253 101.377 251.278 102.565 246.228 102.596C241.332 102.638 236.5 101.474 232.159 99.2068C227.819 96.94 224.103 93.64 221.339 89.5978C227.315 83.6459 236.772 79.76 247.249 79.76C257.726 79.76 266.851 83.6459 272.299 89.5978Z" fill="white"/>
<path d="M91.3687 174.461C90.2004 177.019 88.9707 179.835 87.9008 182.565C86.831 185.295 85.7365 188.111 84.7896 190.915C82.8563 196.441 81.3838 202.117 80.3872 207.885L80.1167 209.693C80.0909 210.003 80.12 210.315 80.2028 210.615C80.493 211.634 80.9501 212.598 81.5555 213.468C83.1347 215.719 84.9666 217.782 87.0154 219.617C89.1756 221.626 91.4415 223.518 93.8035 225.286C96.1646 227.106 98.6487 228.877 101.096 230.549L98.7962 234.865C92.9528 232.319 87.4064 229.14 82.2564 225.384C79.5089 223.38 77.0292 221.033 74.878 218.399C73.6029 216.832 72.6086 215.055 71.939 213.148C71.5497 211.957 71.3505 210.712 71.3487 209.459C71.3487 209.164 71.3487 208.734 71.3487 208.525V207.922L71.4717 206.692C72.1767 200.285 73.5239 193.966 75.4929 187.828C76.4521 184.803 77.4728 181.79 78.641 178.851C79.8092 175.912 81.0144 173.035 82.5023 170.047L91.3687 174.461Z" fill="#E58A7B"/>
<path d="M99.3619 229.787L108.056 225.384L105.806 234.927C105.806 234.927 99.8415 236.599 97.0746 233.697L99.3619 229.787Z" fill="#E58A7B"/>
<path d="M116.013 226.946L113.701 234.841L105.806 234.927L108.056 225.384L116.013 226.946Z" fill="#E58A7B"/>
<path d="M128.285 128.42C128.75 130.124 129.397 131.774 130.216 133.339C129.977 133.61 129.669 133.812 129.324 133.922C128.98 134.033 128.613 134.048 128.26 133.966L128.285 128.42Z" fill="#DF5753"/>
<path d="M128.027 128.494C128.536 128.494 128.949 127.861 128.949 127.08C128.949 126.299 128.536 125.666 128.027 125.666C127.517 125.666 127.105 126.299 127.105 127.08C127.105 127.861 127.517 128.494 128.027 128.494Z" fill="#263238"/>
<path d="M127.756 125.715L129.626 125.186C129.626 125.186 128.716 126.637 127.756 125.715Z" fill="#263238"/>
<path d="M104.268 137.446C105.388 143.165 106.507 153.654 102.498 157.479C102.498 157.479 104.072 163.283 114.709 163.283C126.404 163.283 120.292 157.479 120.292 157.479C113.91 155.954 114.069 151.219 115.188 146.768L104.268 137.446Z" fill="#E58A7B"/>
<path d="M101.157 124.411C101.748 133.966 101.797 138.024 106.617 142.931C113.885 150.309 125.494 147.506 127.769 138.012C129.822 129.404 128.519 115.238 119.161 111.438C117.106 110.591 114.87 110.283 112.664 110.542C110.457 110.801 108.353 111.619 106.551 112.918C104.748 114.217 103.307 115.954 102.363 117.965C101.42 119.976 101.004 122.195 101.157 124.411Z" fill="#E58A7B"/>
<path d="M102.104 113.664C97.3083 115.41 90.9138 114.106 93.4224 128.9C96.0786 144.567 91.9959 149.719 91.9959 149.719C91.9959 149.719 110.184 153.593 128.752 149.485C128.752 149.485 123.083 139.574 124.67 132.269C126.699 123.046 125.1 119.64 125.1 119.64C125.1 119.64 108.843 111.204 102.104 113.664Z" fill="#263238"/>
<path d="M122.395 129.392C122.4 131.209 122.92 132.987 123.895 134.52C125.198 136.512 126.736 135.749 127.117 133.634C127.461 131.777 127.203 128.494 125.543 127.215C123.883 125.936 122.419 127.19 122.395 129.392Z" fill="#E58A7B"/>
<path d="M97.9355 115.274C96.5582 111.401 103.125 105.437 117.021 107.896C130.917 110.356 131.519 121.927 131.519 121.927L128.716 118.582L128.838 122.099L114.561 124.842L97.9355 115.274Z" fill="#263238"/>
<path d="M99.1159 158.13C99.0339 157.569 99.1744 156.998 99.5075 156.538C99.8405 156.079 100.34 155.768 100.899 155.671C105.228 154.958 115.065 153.507 120.009 154.195C123.698 154.712 124.657 156.852 124.817 158.61C124.842 158.918 124.801 159.228 124.696 159.518C124.592 159.809 124.426 160.074 124.211 160.295C123.995 160.517 123.735 160.689 123.447 160.802C123.159 160.914 122.851 160.963 122.542 160.947L101.17 159.987C100.666 159.962 100.186 159.763 99.8119 159.425C99.4376 159.086 99.1918 158.629 99.1159 158.13Z" fill="#4CAF4F"/>
<path opacity="0.6" d="M99.1159 158.13C99.0339 157.569 99.1744 156.998 99.5075 156.538C99.8405 156.079 100.34 155.768 100.899 155.671C105.228 154.958 115.065 153.507 120.009 154.195C123.698 154.712 124.657 156.852 124.817 158.61C124.842 158.918 124.801 159.228 124.696 159.518C124.592 159.809 124.426 160.074 124.211 160.295C123.995 160.517 123.735 160.689 123.447 160.802C123.159 160.914 122.851 160.963 122.542 160.947L101.17 159.987C100.666 159.962 100.186 159.763 99.8119 159.425C99.4376 159.086 99.1918 158.629 99.1159 158.13Z" fill="black"/>
<path d="M111.475 372.964L119.407 378.473L132.675 360.482L124.744 354.985L111.475 372.964Z" fill="#E58A7B"/>
<path d="M92.9796 372.607L101.354 377.378L113.098 358.354L104.724 353.583L92.9796 372.607Z" fill="#E58A7B"/>
<path d="M132.663 360.482L125.826 369.754L117.894 364.257L124.731 354.985L132.663 360.482Z" fill="#CF6F64"/>
<path d="M104.711 353.583L113.098 358.367L107.048 368.168L98.661 363.384L104.711 353.583Z" fill="#CF6F64"/>
<path d="M118.165 218.19C118.165 218.19 149.129 257.209 143.312 294.532C138.627 324.672 111.45 365.487 111.45 365.487L98.6734 359.141C107.679 341.096 115.365 322.42 121.669 303.263C123.613 297.315 124.181 291.003 123.329 284.804C122.477 278.605 120.227 272.68 116.75 267.478C101.059 244.568 75.9235 258.206 92.8322 218.19H118.165Z" fill="#4CAF4F"/>
<path opacity="0.6" d="M118.165 218.19C118.165 218.19 149.129 257.209 143.312 294.532C138.627 324.672 111.45 365.487 111.45 365.487L98.6734 359.141C107.679 341.096 115.365 322.42 121.669 303.263C123.613 297.315 124.181 291.003 123.329 284.804C122.477 278.605 120.227 272.68 116.75 267.478C101.059 244.568 75.9235 258.206 92.8322 218.19H118.165Z" fill="black"/>
<path opacity="0.4" d="M133.351 243.252L128.851 238.776C128.851 239.133 137.569 292.958 140.017 308.083C141.461 303.665 142.567 299.143 143.325 294.556C146.202 276.246 140.189 257.542 133.351 243.252Z" fill="black"/>
<path d="M131.987 218.19C131.987 218.19 169.272 267.232 170.329 296.635C171.203 321.229 129.748 368.881 129.748 368.881L117.697 361.084C117.697 361.084 141.96 327.242 148.071 299.598C145.71 272.2 95.7834 218.19 95.7834 218.19H131.987Z" fill="#4CAF4F"/>
<path opacity="0.6" d="M131.987 218.19C131.987 218.19 169.272 267.232 170.329 296.635C171.203 321.229 129.748 368.881 129.748 368.881L117.697 361.084C117.697 361.084 141.96 327.242 148.071 299.598C145.71 272.2 95.7834 218.19 95.7834 218.19H131.987Z" fill="black"/>
<path d="M85.8595 159.668C81.8752 160.614 78.0507 175.101 78.0507 175.101L93.6314 185.504C93.6314 185.504 98.8208 174.043 97.0008 169.026C95.1193 163.799 90.8645 158.475 85.8595 159.668Z" fill="#4CAF4F"/>
<path opacity="0.2" d="M88.9093 169.001L87.8272 181.63L93.6192 185.516C95.2184 181.916 96.4025 178.145 97.1485 174.277L88.9093 169.001Z" fill="black"/>
<path d="M136.598 159.95C136.598 159.95 141.197 161.561 131.987 218.178H92.8075C93.4715 202.192 93.4838 192.354 85.8595 159.668C91.3454 158.537 96.9061 157.806 102.498 157.479C108.421 157.054 114.368 157.054 120.292 157.479C127.941 158.18 136.598 159.95 136.598 159.95Z" fill="#4CAF4F"/>
<path d="M140.582 169.001C141.468 171.461 142.402 174.105 143.386 176.65C144.37 179.196 145.305 181.815 146.301 184.397L149.313 192.12L150.076 194.051L150.469 195.01L150.654 195.49C150.654 195.576 150.654 195.576 150.654 195.563C150.429 195.247 150.135 194.986 149.793 194.801C149.307 194.515 148.758 194.35 148.194 194.321C147.726 194.307 147.26 194.395 146.829 194.58C146.264 194.838 146.264 194.948 146.276 194.936C146.378 194.854 146.469 194.759 146.547 194.653C147.227 193.76 147.816 192.8 148.305 191.788C148.883 190.657 149.436 189.452 149.99 188.234C151.072 185.775 152.068 183.229 153.064 180.659C154.06 178.089 155.007 175.494 155.929 172.875L158.733 165.029L163.468 166.259C162.533 171.867 161.328 177.326 159.877 182.885C159.176 185.652 158.352 188.394 157.417 191.161C156.95 192.551 156.434 193.928 155.843 195.342C155.228 196.877 154.471 198.351 153.581 199.744C153.254 200.213 152.892 200.657 152.498 201.073C151.87 201.751 151.108 202.291 150.26 202.659C149.508 202.982 148.693 203.133 147.875 203.102C146.958 203.067 146.065 202.801 145.28 202.327C144.354 201.749 143.585 200.95 143.042 200.003C142.857 199.683 142.698 199.363 142.587 199.13L142.353 198.662L141.886 197.703L140.951 195.797C139.722 193.239 138.492 190.657 137.422 188.062C136.352 185.467 135.221 182.836 134.163 180.192C133.106 177.548 132.159 174.904 131.261 172.051L140.582 169.001Z" fill="#E58A7B"/>
<path d="M136.598 159.95C141.308 161.069 146.608 174.99 146.608 174.99L132.602 186.906C132.602 186.906 123.538 171.731 125.371 166.726C127.277 161.512 130.45 158.487 136.598 159.95Z" fill="#4CAF4F"/>
<path d="M160.959 160.627L165.878 156.519L169.296 161.844L166.775 166.283C166.775 166.283 162.767 169.973 159.225 168.091C158.663 166.828 158.528 165.415 158.841 164.068C159.154 162.721 159.897 161.513 160.959 160.627Z" fill="#E58A7B"/>
<path d="M174.757 156.532L174.388 157.872L166.603 159.176L165.841 156.519L174.757 156.532Z" fill="#E58A7B"/>
<path d="M130.708 369.508L116.664 360.433L119.185 356.055L134.962 365.757L130.708 369.508Z" fill="#4CAF4F"/>
<path d="M106.851 376.739C105.619 376.588 104.435 376.169 103.383 375.509C103.34 375.494 103.302 375.466 103.275 375.428C103.249 375.391 103.234 375.346 103.234 375.3C103.234 375.254 103.249 375.209 103.275 375.172C103.302 375.134 103.34 375.106 103.383 375.091C103.764 374.968 107.072 373.947 108.031 374.734C108.139 374.824 108.221 374.941 108.269 375.073C108.316 375.205 108.328 375.347 108.302 375.485C108.285 375.706 108.212 375.919 108.089 376.104C107.966 376.289 107.798 376.44 107.601 376.542C107.371 376.668 107.113 376.735 106.851 376.739ZM104.084 375.386C105.621 376.173 106.851 376.456 107.441 376.161C107.57 376.09 107.678 375.987 107.755 375.862C107.833 375.737 107.877 375.594 107.884 375.448C107.884 375.251 107.884 375.165 107.773 375.116C107.257 374.698 105.412 375.017 104.059 375.386H104.084Z" fill="#263238"/>
<path d="M103.469 375.595C103.404 375.594 103.342 375.568 103.297 375.521C103.279 375.487 103.269 375.449 103.269 375.411C103.269 375.372 103.279 375.334 103.297 375.3C103.297 375.189 104.096 372.521 105.351 371.918C105.511 371.845 105.685 371.807 105.861 371.807C106.037 371.807 106.211 371.845 106.371 371.918C106.544 371.973 106.694 372.084 106.796 372.233C106.899 372.382 106.948 372.561 106.937 372.742C106.851 373.849 104.601 375.374 103.568 375.632L103.469 375.595ZM105.855 372.238C105.735 372.242 105.618 372.271 105.511 372.324C104.748 372.693 104.121 374.132 103.814 375.005C104.896 374.55 106.384 373.345 106.433 372.668C106.433 372.558 106.433 372.423 106.15 372.3C106.058 372.25 105.958 372.217 105.855 372.201V372.238Z" fill="#263238"/>
<path d="M124.399 382.051C123.01 382.051 121.079 380.268 120.021 379.174C119.994 379.136 119.98 379.091 119.98 379.045C119.98 378.998 119.994 378.953 120.021 378.916C120.046 378.876 120.08 378.844 120.121 378.822C120.162 378.8 120.209 378.79 120.255 378.793C120.747 378.793 125.014 379.432 125.617 380.637C125.68 380.745 125.714 380.868 125.714 380.994C125.714 381.119 125.68 381.242 125.617 381.35C125.526 381.538 125.39 381.7 125.22 381.82C125.05 381.941 124.852 382.016 124.645 382.039L124.399 382.051ZM120.833 379.346C122.382 380.846 123.747 381.682 124.522 381.584C124.658 381.566 124.787 381.516 124.899 381.436C125.01 381.357 125.1 381.251 125.162 381.129C125.189 381.087 125.204 381.038 125.204 380.988C125.204 380.937 125.189 380.888 125.162 380.846C124.842 380.182 122.567 379.616 120.833 379.346Z" fill="#263238"/>
<path d="M120.968 379.284C120.692 379.292 120.416 379.272 120.144 379.223C120.106 379.217 120.07 379.202 120.04 379.178C120.01 379.154 119.987 379.123 119.972 379.088C119.954 379.051 119.944 379.011 119.944 378.971C119.944 378.93 119.954 378.89 119.972 378.854C120.046 378.768 121.706 376.763 123.28 376.628C123.726 376.594 124.167 376.735 124.51 377.022C124.989 377.44 124.965 377.809 124.842 378.042C124.534 378.879 122.407 379.284 120.968 379.284ZM120.648 378.829C122.026 378.903 124.227 378.448 124.51 377.846C124.51 377.846 124.608 377.649 124.288 377.378C124.161 377.268 124.013 377.184 123.852 377.134C123.691 377.083 123.522 377.066 123.354 377.083C122.294 377.379 121.349 377.993 120.648 378.842V378.829Z" fill="#263238"/>
<path d="M103.801 374.267L93.3732 371.316C93.1934 371.261 92.9999 371.275 92.8297 371.355C92.6595 371.434 92.5246 371.574 92.4509 371.746L88.9339 379.653C88.8513 379.856 88.8125 380.074 88.8201 380.292C88.8277 380.511 88.8814 380.725 88.9778 380.922C89.0743 381.118 89.2111 381.292 89.3795 381.431C89.5478 381.571 89.7438 381.673 89.9546 381.732C93.6437 382.691 95.4145 382.961 100.001 384.277C102.83 385.064 106.863 386.528 110.762 387.634C114.66 388.741 115.963 384.941 114.451 384.13C107.613 380.514 107.072 377.981 105.203 375.276C104.868 374.786 104.372 374.429 103.801 374.267Z" fill="#4CAF4F"/>
<path d="M120.304 377.735L111.401 371.586C111.25 371.476 111.064 371.426 110.878 371.444C110.692 371.462 110.52 371.548 110.393 371.685L104.49 378.03C104.346 378.194 104.239 378.387 104.175 378.595C104.112 378.804 104.093 379.024 104.121 379.24C104.149 379.457 104.223 379.665 104.337 379.85C104.452 380.036 104.604 380.195 104.785 380.317C107.921 382.42 109.544 383.269 113.467 385.986C115.926 387.659 120.685 391.373 124.006 393.684C127.326 395.996 129.798 392.824 128.617 391.569C123.329 385.925 122.173 382.383 121.3 379.174C121.149 378.591 120.796 378.082 120.304 377.735Z" fill="#4CAF4F"/>
<path d="M113.086 366.298L97.0377 358.318L98.6979 353.964L115.84 362.376L113.086 366.298Z" fill="#4CAF4F"/>
<path d="M92.2172 215.878L90.8645 219.42C90.7292 219.691 91.049 219.973 91.504 219.973H132.183C132.54 219.973 132.835 219.801 132.86 219.58L133.204 216.063C133.204 215.829 132.921 215.62 132.54 215.62H92.8567C92.7372 215.609 92.6168 215.626 92.5055 215.671C92.3942 215.716 92.2954 215.787 92.2172 215.878Z" fill="#4CAF4F"/>
<path opacity="0.4" d="M92.2172 215.878L90.8645 219.42C90.7292 219.691 91.049 219.973 91.504 219.973H132.183C132.54 219.973 132.835 219.801 132.86 219.58L133.204 216.063C133.204 215.829 132.921 215.62 132.54 215.62H92.8567C92.7372 215.609 92.6168 215.626 92.5055 215.671C92.3942 215.716 92.2954 215.787 92.2172 215.878Z" fill="white"/>
<path d="M98.6241 220.318H97.5543C97.3452 220.318 97.1853 220.207 97.1976 220.072L97.7018 215.509C97.7018 215.386 97.8986 215.276 98.1076 215.276H99.1775C99.3865 215.276 99.5464 215.386 99.5341 215.509L99.0299 220.072C99.0176 220.207 98.8332 220.318 98.6241 220.318Z" fill="#4CAF4F"/>
<path d="M123.711 220.318H122.653C122.444 220.318 122.284 220.207 122.296 220.072L122.788 215.509C122.788 215.386 122.997 215.276 123.206 215.276H124.264C124.473 215.276 124.645 215.386 124.621 215.509L124.129 220.072C124.067 220.207 123.932 220.318 123.711 220.318Z" fill="#4CAF4F"/>
<g style="mix-blend-mode:multiply">
<path d="M97.6895 428.572C115.884 428.572 130.634 427.504 130.634 426.186C130.634 424.869 115.884 423.801 97.6895 423.801C79.4948 423.801 64.7451 424.869 64.7451 426.186C64.7451 427.504 79.4948 428.572 97.6895 428.572Z" fill="#F5F5F5"/>
</g>
<path d="M117.759 422.817C111.93 421.12 105.461 418.943 101.551 416.668C101.44 416.594 101.317 416.557 101.207 416.496V390.106H113C113.895 390.053 114.736 389.66 115.351 389.007C115.966 388.355 116.309 387.492 116.309 386.595C116.309 385.698 115.966 384.835 115.351 384.183C114.736 383.53 113.895 383.137 113 383.084H101.268V262.792H94.1848V383.084H82.4655C81.987 383.056 81.5077 383.126 81.0571 383.289C80.6066 383.453 80.1942 383.707 79.8454 384.036C79.4965 384.365 79.2186 384.761 79.0286 385.201C78.8386 385.641 78.7406 386.116 78.7406 386.595C78.7406 387.075 78.8386 387.549 79.0286 387.989C79.2186 388.429 79.4965 388.826 79.8454 389.154C80.1942 389.483 80.6066 389.737 81.0571 389.901C81.5077 390.065 81.987 390.134 82.4655 390.106H94.1848V416.459C94.0741 416.459 93.9635 416.557 93.8528 416.631C89.8808 418.943 83.4616 421.12 77.6327 422.78C77.2389 422.899 76.9008 423.155 76.6796 423.502C76.4583 423.849 76.3686 424.263 76.4265 424.67C76.4845 425.078 76.6864 425.451 76.9956 425.722C77.3048 425.993 77.701 426.145 78.1123 426.149H117.279C117.672 426.122 118.044 425.962 118.333 425.694C118.622 425.426 118.81 425.067 118.866 424.677C118.922 424.287 118.843 423.889 118.641 423.551C118.44 423.212 118.128 422.953 117.759 422.817Z" fill="#E0E0E0"/>
<path d="M119.566 250.544H75.8373C72.3192 250.544 69.4673 253.396 69.4673 256.914V269.913C69.4673 273.431 72.3192 276.283 75.8373 276.283H119.566C123.084 276.283 125.936 273.431 125.936 269.913V256.914C125.936 253.396 123.084 250.544 119.566 250.544Z" fill="#4CAF4F"/>
<path d="M75.4315 276.295V278.533C75.4315 280.378 77.436 281.878 79.8954 281.878H115.557C118.017 281.878 120.021 280.378 120.021 278.533V276.295H75.4315Z" fill="#4CAF4F"/>
<path opacity="0.3" d="M75.4315 276.295V278.533C75.4315 280.378 77.436 281.878 79.8954 281.878H115.557C118.017 281.878 120.021 280.378 120.021 278.533V276.295H75.4315Z" fill="white"/>
</svg>
